Mirza-Regular.ufo
<glyph name="quotedbl" format="1">
  <advance width="290"/>
  <unicode hex="0022"/>
  <outline>
    <contour>
      <point x="238" y="317" type="line"/>
      <point x="238" y="407"/>
      <point x="239" y="473"/>
      <point x="250" y="549" type="curve"/>
      <point x="217" y="549"/>
      <point x="193" y="545"/>
      <point x="165" y="537" type="curve"/>
      <point x="165" y="374" type="line"/>
      <point x="183" y="357"/>
      <point x="201" y="339"/>
      <point x="218" y="317" type="curve"/>
    </contour>
    <contour>
      <point x="103" y="317" type="line"/>
      <point x="103" y="407"/>
      <point x="104" y="473"/>
      <point x="115" y="549" type="curve"/>
      <point x="82" y="549"/>
      <point x="58" y="545"/>
      <point x="30" y="537" type="curve"/>
      <point x="30" y="374" type="line"/>
      <point x="48" y="357"/>
      <point x="66" y="339"/>
      <point x="83" y="317" type="curve"/>
    </contour>
  </outline>
</glyph>
<glyph name="period" format="1">
  <advance width="210"/>
  <unicode hex="002E"/>
  <outline>
    <contour>
      <point x="133" y="9"/>
      <point x="157" y="33"/>
      <point x="180" y="61" type="curve"/>
      <point x="152" y="84"/>
      <point x="128" y="108"/>
      <point x="105" y="136" type="curve"/>
      <point x="77" y="113"/>
      <point x="53" y="89"/>
      <point x="30" y="61" type="curve"/>
      <point x="58" y="38"/>
      <point x="82" y="14"/>
      <point x="105" y="-14" type="curve" smooth="yes"/>
    </contour>
  </outline>
</glyph>
<glyph name="uni0608" format="1">
  <advance width="661"/>
  <unicode hex="0608"/>
  <outline>
    <contour>
      <point x="378" y="267"/>
      <point x="350" y="234"/>
      <point x="335" y="194" type="curve" smooth="yes"/>
      <point x="325" y="170"/>
      <point x="320" y="136"/>
      <point x="320" y="112" type="curve" smooth="yes"/>
      <point x="320" y="69"/>
      <point x="333" y="40"/>
      <point x="353" y="22" type="curve" smooth="yes"/>
      <point x="369" y="8"/>
      <point x="390" y="0"/>
      <point x="433" y="0" type="curve" smooth="yes"/>
      <point x="474" y="0" type="line"/>
      <point x="474" y="0"/>
      <point x="479" y="-52"/>
      <point x="431" y="-100" type="curve" smooth="yes"/>
      <point x="397" y="-134"/>
      <point x="353" y="-150"/>
      <point x="287" y="-150" type="curve" smooth="yes"/>
      <point x="216" y="-150"/>
      <point x="162" y="-132"/>
      <point x="133" y="-93" type="curve" smooth="yes"/>
      <point x="108" y="-60"/>
      <point x="110" y="-21"/>
      <point x="121" y="37" type="curve"/>
      <point x="102" y="44" type="line"/>
      <point x="86" y="3"/>
      <point x="76" y="-33"/>
      <point x="73" y="-67" type="curve" smooth="yes"/>
      <point x="71" y="-94"/>
      <point x="72" y="-123"/>
      <point x="85" y="-155" type="curve" smooth="yes"/>
      <point x="100" y="-192"/>
      <point x="126" y="-217"/>
      <point x="157" y="-234" type="curve" smooth="yes"/>
      <point x="190" y="-252"/>
      <point x="232" y="-263"/>
      <point x="279" y="-263" type="curve" smooth="yes"/>
      <point x="320" y="-263"/>
      <point x="357" y="-255"/>
      <point x="389" y="-239" type="curve" smooth="yes"/>
      <point x="417" y="-225"/>
      <point x="442" y="-204"/>
      <point x="461" y="-179" type="curve" smooth="yes"/>
      <point x="523" y="-97"/>
      <point x="519" y="0"/>
      <point x="519" y="0" type="curve"/>
      <point x="555" y="5"/>
      <point x="603" y="5"/>
      <point x="631" y="56" type="curve"/>
      <point x="631" y="154" type="line"/>
      <point x="607" y="111"/>
      <point x="548" y="98"/>
      <point x="519" y="98" type="curve" smooth="yes"/>
      <point x="519" y="98"/>
      <point x="516" y="170"/>
      <point x="487" y="221" type="curve" smooth="yes"/>
      <point x="467" y="256"/>
      <point x="442" y="267"/>
      <point x="419" y="267" type="curve" smooth="yes"/>
    </contour>
    <contour>
      <point x="461" y="200"/>
      <point x="466" y="98"/>
      <point x="466" y="98" type="curve" smooth="yes"/>
      <point x="413" y="98" type="line" smooth="yes"/>
      <point x="390" y="98"/>
      <point x="354" y="102"/>
      <point x="354" y="145" type="curve" smooth="yes"/>
      <point x="354" y="172"/>
      <point x="378" y="200"/>
      <point x="405" y="200" type="curve" smooth="yes"/>
    </contour>
    <contour>
      <point x="73" y="27"/>
      <point x="41" y="11"/>
      <point x="2" y="1" type="curve"/>
      <point x="31" y="-34" type="line"/>
      <point x="102" y="-3" type="line"/>
      <point x="102" y="44" type="line"/>
    </contour>
    <contour>
      <point x="419" y="297" type="move" name="top"/>
    </contour>
    <contour>
      <point x="279" y="-293" type="move" name="bottom"/>
    </contour>
  </outline>
</glyph>
<glyph name="question-ar" format="1">
  <advance width="383"/>
  <unicode hex="061F"/>
  <outline>
    <contour>
      <point x="246" y="268" type="line"/>
      <point x="178" y="294"/>
      <point x="142" y="343"/>
      <point x="142" y="403" type="curve" smooth="yes"/>
      <point x="142" y="468"/>
      <point x="176" y="504"/>
      <point x="233" y="504" type="curve" smooth="yes"/>
      <point x="280" y="504"/>
      <point x="323" y="481"/>
      <point x="349" y="443" type="curve"/>
      <point x="359" y="468"/>
      <point x="363" y="488"/>
      <point x="363" y="516" type="curve"/>
      <point x="318" y="546"/>
      <point x="268" y="562"/>
      <point x="211" y="562" type="curve" smooth="yes"/>
      <point x="99" y="562"/>
      <point x="40" y="506"/>
      <point x="40" y="403" type="curve" smooth="yes"/>
      <point x="40" y="298"/>
      <point x="138" y="235"/>
      <point x="229" y="225" type="curve"/>
    </contour>
    <contour>
      <point x="242" y="28"/>
      <point x="266" y="52"/>
      <point x="294" y="75" type="curve"/>
      <point x="271" y="103"/>
      <point x="247" y="127"/>
      <point x="219" y="150" type="curve"/>
      <point x="196" y="122"/>
      <point x="172" y="98"/>
      <point x="144" y="75" type="curve"/>
      <point x="167" y="47"/>
      <point x="191" y="23"/>
      <point x="219" y="0" type="curve"/>
    </contour>
  </outline>
</glyph>
<glyph name="uni0627" format="1">
  <advance width="154"/>
  <unicode hex="0627"/>
  <outline>
    <contour>
      <point x="30" y="472"/>
      <point x="33" y="411"/>
      <point x="41" y="328" type="curve" smooth="yes"/>
      <point x="47" y="268"/>
      <point x="54" y="217"/>
      <point x="58" y="189" type="curve" smooth="yes"/>
      <point x="63" y="157"/>
      <point x="67" y="125"/>
      <point x="68" y="115" type="curve" smooth="yes"/>
      <point x="71" y="76"/>
      <point x="72" y="28"/>
      <point x="70" y="0" type="curve"/>
      <point x="85" y="0" type="line"/>
      <point x="95" y="25"/>
      <point x="99" y="47"/>
      <point x="100" y="54" type="curve" smooth="yes"/>
      <point x="112" y="125"/>
      <point x="122" y="190"/>
      <point x="104" y="403" type="curve" smooth="yes"/>
      <point x="103" y="417"/>
      <point x="100" y="447"/>
      <point x="100" y="454" type="curve" smooth="yes"/>
      <point x="100" y="465"/>
      <point x="92" y="517"/>
      <point x="93" y="568" type="curve"/>
      <point x="82" y="568" type="line"/>
      <point x="63" y="544"/>
      <point x="48" y="520"/>
      <point x="30" y="484" type="curve"/>
    </contour>
    <contour>
      <point x="82" y="578" type="move" name="top"/>
    </contour>
    <contour>
      <point x="78" y="-24" type="move" name="bottom"/>
    </contour>
  </outline>
</glyph>
<glyph name="uni062D" format="1">
  <advance width="578"/>
  <unicode hex="062D"/>
  <outline>
    <contour>
      <point x="510" y="244"/>
      <point x="502" y="244"/>
      <point x="494" y="244" type="curve" smooth="yes"/>
      <point x="382" y="241"/>
      <point x="281" y="275"/>
      <point x="272" y="278" type="curve" smooth="yes"/>
      <point x="247" y="286"/>
      <point x="227" y="293"/>
      <point x="201" y="293" type="curve" smooth="yes"/>
      <point x="177" y="293"/>
      <point x="160" y="287"/>
      <point x="144" y="272" type="curve" smooth="yes"/>
      <point x="129" y="258"/>
      <point x="115" y="240"/>
      <point x="93" y="191" type="curve"/>
      <point x="109" y="180" type="line"/>
      <point x="119" y="197"/>
      <point x="141" y="223"/>
      <point x="194" y="223" type="curve" smooth="yes"/>
      <point x="243" y="223"/>
      <point x="298" y="201"/>
      <point x="317" y="194" type="curve"/>
      <point x="286" y="187"/>
      <point x="256" y="176"/>
      <point x="229" y="160" type="curve" smooth="yes"/>
      <point x="188" y="137"/>
      <point x="151" y="105"/>
      <point x="124" y="66" type="curve" smooth="yes"/>
      <point x="94" y="22"/>
      <point x="74" y="-32"/>
      <point x="71" y="-95" type="curve" smooth="yes"/>
      <point x="68" y="-162"/>
      <point x="87" y="-220"/>
      <point x="121" y="-262" type="curve" smooth="yes"/>
      <point x="160" y="-308"/>
      <point x="218" y="-336"/>
      <point x="289" y="-336" type="curve" smooth="yes"/>
      <point x="335" y="-336"/>
      <point x="359" y="-324"/>
      <point x="384" y="-310" type="curve" smooth="yes"/>
      <point x="408" y="-297"/>
      <point x="434" y="-284"/>
      <point x="479" y="-282" type="curve"/>
      <point x="484" y="-267" type="line"/>
      <point x="448" y="-262"/>
      <point x="439" y="-262"/>
      <point x="402" y="-259" type="curve" smooth="yes"/>
      <point x="361" y="-256"/>
      <point x="327" y="-251"/>
      <point x="314" y="-249" type="curve" smooth="yes"/>
      <point x="248" y="-238"/>
      <point x="198" y="-218"/>
      <point x="166" y="-183" type="curve" smooth="yes"/>
      <point x="138" y="-152"/>
      <point x="124" y="-112"/>
      <point x="128" y="-57" type="curve" smooth="yes"/>
      <point x="133" y="17"/>
      <point x="178" y="74"/>
      <point x="241" y="111" type="curve" smooth="yes"/>
      <point x="312" y="153"/>
      <point x="407" y="171"/>
      <point x="494" y="161" type="curve"/>
      <point x="505" y="191"/>
      <point x="512" y="223"/>
      <point x="518" y="244" type="curve"/>
    </contour>
    <contour>
      <point x="323" y="-48" type="move" name="center"/>
    </contour>
    <contour>
      <point x="289" y="-366" type="move" name="bottom"/>
    </contour>
    <contour>
      <point x="272" y="328" type="move" name="top"/>
    </contour>
  </outline>
</glyph>
<glyph name="uni0649" format="1">
  <advance width="659"/>
  <unicode hex="0649"/>
  <outline>
    <contour>
      <point x="410" y="130"/>
      <point x="391" y="144"/>
      <point x="391" y="165" type="curve" smooth="yes"/>
      <point x="391" y="170"/>
      <point x="399" y="199"/>
      <point x="423" y="226" type="curve" smooth="yes"/>
      <point x="446" y="251"/>
      <point x="482" y="279"/>
      <point x="541" y="279" type="curve"/>
      <point x="541" y="279"/>
      <point x="556" y="274"/>
      <point x="579" y="230" type="curve"/>
      <point x="597" y="238" type="line"/>
      <point x="598" y="255"/>
      <point x="596" y="314"/>
      <point x="566" y="345" type="curve" smooth="yes"/>
      <point x="554" y="359"/>
      <point x="536" y="366"/>
      <point x="516" y="366" type="curve" smooth="yes"/>
      <point x="481" y="366"/>
      <point x="430" y="347"/>
      <point x="383" y="255" type="curve" smooth="yes"/>
      <point x="351" y="192"/>
      <point x="338" y="127"/>
      <point x="338" y="107" type="curve" smooth="yes"/>
      <point x="338" y="85"/>
      <point x="354" y="69"/>
      <point x="374" y="59" type="curve" smooth="yes"/>
      <point x="395" y="48"/>
      <point x="420" y="42"/>
      <point x="439" y="39" type="curve" smooth="yes"/>
      <point x="520" y="25"/>
      <point x="556" y="19"/>
      <point x="556" y="19" type="curve" smooth="yes"/>
      <point x="556" y="19"/>
      <point x="526" y="-26"/>
      <point x="453" y="-57" type="curve" smooth="yes"/>
      <point x="414" y="-74"/>
      <point x="362" y="-86"/>
      <point x="296" y="-86" type="curve" smooth="yes"/>
      <point x="221" y="-86"/>
      <point x="164" y="-70"/>
      <point x="133" y="-32" type="curve" smooth="yes"/>
      <point x="107" y="1"/>
      <point x="109" y="53"/>
      <point x="120" y="111" type="curve"/>
      <point x="101" y="118" type="line"/>
      <point x="83" y="78"/>
      <point x="71" y="33"/>
      <point x="70" y="-9" type="curve" smooth="yes"/>
      <point x="69" y="-64"/>
      <point x="85" y="-115"/>
      <point x="126" y="-149" type="curve" smooth="yes"/>
      <point x="166" y="-182"/>
      <point x="223" y="-199"/>
      <point x="285" y="-199" type="curve" smooth="yes"/>
      <point x="344" y="-199"/>
      <point x="405" y="-182"/>
      <point x="459" y="-155" type="curve" smooth="yes"/>
      <point x="503" y="-134"/>
      <point x="534" y="-105"/>
      <point x="555" y="-75" type="curve" smooth="yes"/>
      <point x="591" y="-25"/>
      <point x="599" y="29"/>
      <point x="599" y="56" type="curve" smooth="yes"/>
      <point x="599" y="77"/>
      <point x="590" y="108"/>
      <point x="484" y="121" type="curve" smooth="yes"/>
    </contour>
    <contour>
      <point x="193" y="121" type="move" name="top"/>
    </contour>
    <contour>
      <point x="285" y="-229" type="move" name="bottom"/>
    </contour>
  </outline>
</glyph>
<glyph name="uni064B" format="1">
  <advance width="0"/>
  <unicode hex="064B"/>
  <outline>
    <contour>
      <point x="26" y="773"/>
      <point x="-24" y="753"/>
      <point x="-80" y="725" type="curve"/>
      <point x="-83" y="719"/>
      <point x="-85" y="711"/>
      <point x="-87" y="700" type="curve"/>
      <point x="-87" y="700"/>
      <point x="20" y="747"/>
      <point x="81" y="767" type="curve"/>
      <point x="85" y="775"/>
      <point x="88" y="783"/>
      <point x="89" y="793" type="curve"/>
    </contour>
    <contour>
      <point x="26" y="843"/>
      <point x="-24" y="823"/>
      <point x="-80" y="795" type="curve"/>
      <point x="-83" y="789"/>
      <point x="-85" y="781"/>
      <point x="-87" y="770" type="curve"/>
      <point x="-87" y="770"/>
      <point x="20" y="817"/>
      <point x="81" y="837" type="curve"/>
      <point x="85" y="845"/>
      <point x="88" y="853"/>
      <point x="89" y="863" type="curve"/>
    </contour>
    <contour>
      <point x="1" y="863" type="move" name="top"/>
    </contour>
    <contour>
      <point x="1" y="670" type="move" name="_top"/>
    </contour>
  </outline>
</glyph>
<glyph name="uni064E" format="1">
  <advance width="0"/>
  <unicode hex="064E"/>
  <outline>
    <contour>
      <point x="24" y="776"/>
      <point x="-26" y="756"/>
      <point x="-82" y="728" type="curve"/>
      <point x="-85" y="722"/>
      <point x="-87" y="712"/>
      <point x="-89" y="701" type="curve"/>
      <point x="-89" y="701"/>
      <point x="18" y="748"/>
      <point x="79" y="768" type="curve"/>
      <point x="83" y="776"/>
      <point x="86" y="786"/>
      <point x="87" y="796" type="curve"/>
    </contour>
    <contour>
      <point x="-1" y="805" type="move" name="top"/>
    </contour>
    <contour>
      <point x="-1" y="671" type="move" name="_top"/>
    </contour>
  </outline>
</glyph>
<glyph name="uni0654" format="1">
  <advance width="0"/>
  <unicode hex="0654"/>
  <outline>
    <contour>
      <point x="79" y="788"/>
      <point x="71" y="787"/>
      <point x="62" y="785" type="curve" smooth="yes"/>
      <point x="41" y="782"/>
      <point x="21" y="782"/>
      <point x="1" y="787" type="curve" smooth="yes"/>
      <point x="-25" y="794"/>
      <point x="-35" y="801"/>
      <point x="-35" y="824" type="curve" smooth="yes"/>
      <point x="-14" y="837"/>
      <point x="3" y="845"/>
      <point x="28" y="845" type="curve" smooth="yes"/>
      <point x="43" y="845"/>
      <point x="53" y="843"/>
      <point x="60" y="840" type="curve"/>
      <point x="65" y="847" type="line"/>
      <point x="64" y="856"/>
      <point x="53" y="873"/>
      <point x="24" y="873" type="curve" smooth="yes"/>
      <point x="3" y="873"/>
      <point x="-17" y="866"/>
      <point x="-36" y="850" type="curve" smooth="yes"/>
      <point x="-47" y="841"/>
      <point x="-60" y="824"/>
      <point x="-67" y="814" type="curve" smooth="yes"/>
      <point x="-70" y="810"/>
      <point x="-71" y="807"/>
      <point x="-71" y="803" type="curve" smooth="yes"/>
      <point x="-71" y="780"/>
      <point x="-52" y="765"/>
      <point x="-15" y="760" type="curve"/>
      <point x="-50" y="746"/>
      <point x="-68" y="734"/>
      <point x="-87" y="716" type="curve" smooth="yes"/>
      <point x="-89" y="714"/>
      <point x="-91" y="711"/>
      <point x="-91" y="708" type="curve" smooth="yes"/>
      <point x="-91" y="705"/>
      <point x="-89" y="700"/>
      <point x="-85" y="700" type="curve"/>
      <point x="-65" y="712"/>
      <point x="-43" y="725"/>
      <point x="-1" y="739" type="curve" smooth="yes"/>
      <point x="26" y="748"/>
      <point x="42" y="752"/>
      <point x="71" y="755" type="curve"/>
      <point x="77" y="764"/>
      <point x="83" y="778"/>
      <point x="88" y="790" type="curve"/>
    </contour>
    <contour>
      <point x="-2" y="873" type="move" name="top"/>
    </contour>
    <contour>
      <point x="-2" y="680" type="move" name="_top"/>
    </contour>
  </outline>
</glyph>
<glyph name="uni0659" format="1">
  <advance width="0"/>
  <unicode hex="0659"/>
  <outline>
    <contour>
      <point x="32" y="734"/>
      <point x="-22" y="732"/>
      <point x="-84" y="725" type="curve"/>
      <point x="-89" y="720"/>
      <point x="-94" y="712"/>
      <point x="-100" y="702" type="curve"/>
      <point x="-100" y="702"/>
      <point x="17" y="710"/>
      <point x="81" y="707" type="curve"/>
      <point x="87" y="714"/>
      <point x="94" y="722"/>
      <point x="98" y="731" type="curve"/>
    </contour>
    <contour>
      <point x="-1" y="732" type="move" name="top"/>
    </contour>
    <contour>
      <point x="-1" y="682" type="move" name="_top"/>
    </contour>
  </outline>
</glyph>
<glyph name="uni0661" format="1">
  <advance width="211"/>
  <unicode hex="0661"/>
  <outline>
    <contour>
      <point x="69" y="500"/>
      <point x="53" y="475"/>
      <point x="40" y="449" type="curve"/>
      <point x="72" y="397"/>
      <point x="96" y="331"/>
      <point x="111" y="257" type="curve" smooth="yes"/>
      <point x="128" y="175"/>
      <point x="134" y="94"/>
      <point x="128" y="0" type="curve"/>
      <point x="154" y="0" type="line"/>
      <point x="177" y="102"/>
      <point x="188" y="195"/>
      <point x="175" y="292" type="curve" smooth="yes"/>
      <point x="164" y="373"/>
      <point x="137" y="451"/>
      <point x="87" y="523" type="curve"/>
    </contour>
  </outline>
</glyph>
<glyph name="four-ar" format="1">
  <advance width="339"/>
  <unicode hex="0664"/>
  <outline>
    <contour>
      <point x="286" y="84" type="line"/>
      <point x="277" y="70"/>
      <point x="249" y="50"/>
      <point x="208" y="50" type="curve" smooth="yes"/>
      <point x="160" y="50"/>
      <point x="135" y="71"/>
      <point x="119" y="113" type="curve" smooth="yes"/>
      <point x="119" y="113"/>
      <point x="141" y="143"/>
      <point x="163" y="174" type="curve" smooth="yes"/>
      <point x="186" y="204"/>
      <point x="196" y="220"/>
      <point x="203" y="232" type="curve" smooth="yes"/>
      <point x="216" y="254"/>
      <point x="201" y="266"/>
      <point x="190" y="273" type="curve" smooth="yes"/>
      <point x="163" y="289"/>
      <point x="118" y="306"/>
      <point x="105" y="325" type="curve" smooth="yes"/>
      <point x="94" y="341"/>
      <point x="95" y="361"/>
      <point x="95" y="361" type="curve" smooth="yes"/>
      <point x="134" y="396"/>
      <point x="166" y="420"/>
      <point x="209" y="433" type="curve"/>
      <point x="215" y="455"/>
      <point x="219" y="475"/>
      <point x="220" y="499" type="curve"/>
      <point x="135" y="462"/>
      <point x="69" y="395"/>
      <point x="43" y="320" type="curve" smooth="yes"/>
      <point x="39" y="310"/>
      <point x="29" y="282"/>
      <point x="84" y="260" type="curve" smooth="yes"/>
      <point x="122" y="246"/>
      <point x="157" y="224"/>
      <point x="139" y="202" type="curve"/>
      <point x="114" y="173"/>
      <point x="41" y="104"/>
      <point x="40" y="54" type="curve"/>
      <point x="42" y="50"/>
      <point x="65" y="0"/>
      <point x="165" y="0" type="curve" smooth="yes"/>
      <point x="253" y="0"/>
      <point x="292" y="55"/>
      <point x="309" y="93" type="curve"/>
    </contour>
  </outline>
</glyph>
<glyph name="uni0665" format="1">
  <advance width="363"/>
  <unicode hex="0665"/>
  <outline>
    <contour>
      <point x="333" y="298"/>
      <point x="319" y="356"/>
      <point x="295" y="399" type="curve" smooth="yes"/>
      <point x="269" y="449"/>
      <point x="232" y="476"/>
      <point x="193" y="476" type="curve" smooth="yes"/>
      <point x="174" y="476"/>
      <point x="156" y="463"/>
      <point x="139" y="445" type="curve" smooth="yes"/>
      <point x="106" y="409"/>
      <point x="80" y="348"/>
      <point x="67" y="308" type="curve" smooth="yes"/>
      <point x="57" y="274"/>
      <point x="49" y="239"/>
      <point x="45" y="205" type="curve" smooth="yes"/>
      <point x="41" y="174"/>
      <point x="39" y="143"/>
      <point x="41" y="113" type="curve"/>
      <point x="42" y="109"/>
      <point x="50" y="90"/>
      <point x="67" y="72" type="curve" smooth="yes"/>
      <point x="93" y="44"/>
      <point x="128" y="30"/>
      <point x="169" y="30" type="curve" smooth="yes"/>
      <point x="196" y="30"/>
      <point x="220" y="35"/>
      <point x="241" y="45" type="curve" smooth="yes"/>
      <point x="261" y="55"/>
      <point x="279" y="70"/>
      <point x="293" y="89" type="curve" smooth="yes"/>
      <point x="320" y="126"/>
      <point x="334" y="180"/>
      <point x="333" y="240" type="curve" smooth="yes"/>
    </contour>
    <contour>
      <point x="303" y="186"/>
      <point x="299" y="169"/>
      <point x="275" y="149" type="curve" smooth="yes"/>
      <point x="256" y="133"/>
      <point x="227" y="121"/>
      <point x="181" y="121" type="curve" smooth="yes"/>
      <point x="160" y="121"/>
      <point x="134" y="126"/>
      <point x="115" y="141" type="curve" smooth="yes"/>
      <point x="100" y="152"/>
      <point x="90" y="169"/>
      <point x="90" y="194" type="curve"/>
      <point x="90" y="194"/>
      <point x="91" y="234"/>
      <point x="101" y="277" type="curve" smooth="yes"/>
      <point x="108" y="308"/>
      <point x="119" y="340"/>
      <point x="138" y="362" type="curve" smooth="yes"/>
      <point x="152" y="379"/>
      <point x="170" y="390"/>
      <point x="194" y="390" type="curve" smooth="yes"/>
      <point x="214" y="390"/>
      <point x="230" y="381"/>
      <point x="243" y="369" type="curve" smooth="yes"/>
      <point x="264" y="348"/>
      <point x="277" y="317"/>
      <point x="283" y="301" type="curve" smooth="yes"/>
      <point x="295" y="273"/>
      <point x="300" y="253"/>
      <point x="308" y="215" type="curve" smooth="yes"/>
    </contour>
  </outline>
</glyph>
<glyph name="uni0669" format="1">
  <advance width="338"/>
  <unicode hex="0669"/>
  <outline>
    <contour>
      <point x="242" y="137"/>
      <point x="219" y="210"/>
      <point x="219" y="312" type="curve" smooth="yes"/>
      <point x="219" y="402"/>
      <point x="203" y="468"/>
      <point x="173" y="501" type="curve" smooth="yes"/>
      <point x="159" y="516"/>
      <point x="142" y="523"/>
      <point x="124" y="523" type="curve" smooth="yes"/>
      <point x="102" y="523"/>
      <point x="76" y="517"/>
      <point x="54" y="476" type="curve" smooth="yes"/>
      <point x="39" y="450"/>
      <point x="30" y="415"/>
      <point x="30" y="391" type="curve" smooth="yes"/>
      <point x="30" y="369"/>
      <point x="32" y="332"/>
      <point x="56" y="309" type="curve" smooth="yes"/>
      <point x="69" y="296"/>
      <point x="87" y="288"/>
      <point x="124" y="288" type="curve" smooth="yes"/>
      <point x="147" y="288"/>
      <point x="164" y="297"/>
      <point x="171" y="303" type="curve"/>
      <point x="171" y="211" type="line" smooth="yes"/>
      <point x="171" y="153"/>
      <point x="184" y="112"/>
      <point x="200" y="79" type="curve" smooth="yes"/>
      <point x="217" y="44"/>
      <point x="241" y="18"/>
      <point x="284" y="0" type="curve"/>
      <point x="291" y="36"/>
      <point x="296" y="67"/>
      <point x="298" y="101" type="curve"/>
    </contour>
    <contour>
      <point x="159" y="376"/>
      <point x="142" y="369"/>
      <point x="118" y="369" type="curve" smooth="yes"/>
      <point x="78" y="369"/>
      <point x="63" y="384"/>
      <point x="63" y="415" type="curve" smooth="yes"/>
      <point x="63" y="439"/>
      <point x="84" y="465"/>
      <point x="112" y="465" type="curve" smooth="yes"/>
      <point x="130" y="465"/>
      <point x="149" y="453"/>
      <point x="159" y="430" type="curve" smooth="yes"/>
      <point x="166" y="412"/>
      <point x="165" y="411"/>
      <point x="169" y="392" type="curve"/>
    </contour>
  </outline>
</glyph>
<glyph name="uni066D" format="1">
  <advance width="449"/>
  <unicode hex="066D"/>
  <outline>
    <contour>
      <point x="218" y="569"/>
      <point x="210" y="565"/>
      <point x="205" y="559" type="curve" smooth="yes"/>
      <point x="195" y="546"/>
      <point x="199" y="522"/>
      <point x="202" y="515" type="curve" smooth="yes"/>
      <point x="217" y="471"/>
      <point x="223" y="411"/>
      <point x="224" y="399" type="curve"/>
      <point x="213" y="408"/>
      <point x="163" y="446"/>
      <point x="135" y="476" type="curve" smooth="yes"/>
      <point x="126" y="485"/>
      <point x="112" y="494"/>
      <point x="99" y="494" type="curve" smooth="yes"/>
      <point x="98" y="494"/>
      <point x="97" y="494"/>
      <point x="96" y="494" type="curve" smooth="yes"/>
      <point x="88" y="493"/>
      <point x="81" y="487"/>
      <point x="75" y="477" type="curve" smooth="yes"/>
      <point x="70" y="467"/>
      <point x="69" y="459"/>
      <point x="72" y="451" type="curve" smooth="yes"/>
      <point x="79" y="437"/>
      <point x="101" y="429"/>
      <point x="109" y="427" type="curve" smooth="yes"/>
      <point x="154" y="420"/>
      <point x="209" y="396"/>
      <point x="221" y="392" type="curve"/>
      <point x="207" y="386"/>
      <point x="149" y="364"/>
      <point x="109" y="355" type="curve" smooth="yes"/>
      <point x="96" y="352"/>
      <point x="79" y="343"/>
      <point x="74" y="330" type="curve" smooth="yes"/>
      <point x="70" y="323"/>
      <point x="72" y="314"/>
      <point x="77" y="304" type="curve" smooth="yes"/>
      <point x="83" y="294"/>
      <point x="90" y="289"/>
      <point x="98" y="288" type="curve" smooth="yes"/>
      <point x="99" y="288"/>
      <point x="100" y="288"/>
      <point x="101" y="288" type="curve" smooth="yes"/>
      <point x="116" y="288"/>
      <point x="133" y="301"/>
      <point x="138" y="307" type="curve" smooth="yes"/>
      <point x="167" y="342"/>
      <point x="216" y="378"/>
      <point x="226" y="385" type="curve"/>
      <point x="224" y="370"/>
      <point x="214" y="309"/>
      <point x="202" y="270" type="curve" smooth="yes"/>
      <point x="198" y="257"/>
      <point x="197" y="238"/>
      <point x="205" y="227" type="curve" smooth="yes"/>
      <point x="210" y="220"/>
      <point x="218" y="217"/>
      <point x="230" y="217" type="curve" smooth="yes"/>
      <point x="241" y="217"/>
      <point x="249" y="220"/>
      <point x="254" y="227" type="curve" smooth="yes"/>
      <point x="264" y="240"/>
      <point x="260" y="263"/>
      <point x="257" y="271" type="curve" smooth="yes"/>
      <point x="242" y="314"/>
      <point x="236" y="375"/>
      <point x="235" y="386" type="curve"/>
      <point x="246" y="377"/>
      <point x="295" y="339"/>
      <point x="324" y="309" type="curve" smooth="yes"/>
      <point x="333" y="300"/>
      <point x="347" y="291"/>
      <point x="359" y="291" type="curve" smooth="yes"/>
      <point x="361" y="291"/>
      <point x="362" y="291"/>
      <point x="363" y="291" type="curve" smooth="yes"/>
      <point x="371" y="292"/>
      <point x="378" y="298"/>
      <point x="384" y="308" type="curve" smooth="yes"/>
      <point x="389" y="318"/>
      <point x="390" y="327"/>
      <point x="387" y="334" type="curve" smooth="yes"/>
      <point x="380" y="349"/>
      <point x="358" y="357"/>
      <point x="350" y="358" type="curve" smooth="yes"/>
      <point x="305" y="366"/>
      <point x="249" y="389"/>
      <point x="238" y="394" type="curve"/>
      <point x="252" y="399"/>
      <point x="310" y="422"/>
      <point x="350" y="431" type="curve" smooth="yes"/>
      <point x="363" y="434"/>
      <point x="380" y="442"/>
      <point x="385" y="455" type="curve" smooth="yes"/>
      <point x="388" y="463"/>
      <point x="387" y="472"/>
      <point x="381" y="481" type="curve" smooth="yes"/>
      <point x="376" y="491"/>
      <point x="369" y="497"/>
      <point x="360" y="498" type="curve" smooth="yes"/>
      <point x="360" y="498"/>
      <point x="359" y="498"/>
      <point x="358" y="498" type="curve" smooth="yes"/>
      <point x="343" y="498"/>
      <point x="326" y="484"/>
      <point x="321" y="478" type="curve" smooth="yes"/>
      <point x="291" y="444"/>
      <point x="242" y="408"/>
      <point x="233" y="401" type="curve"/>
      <point x="235" y="415"/>
      <point x="245" y="477"/>
      <point x="257" y="516" type="curve" smooth="yes"/>
      <point x="261" y="529"/>
      <point x="262" y="547"/>
      <point x="254" y="559" type="curve" smooth="yes"/>
      <point x="249" y="565"/>
      <point x="241" y="569"/>
      <point x="229" y="569" type="curve" smooth="yes"/>
    </contour>
  </outline>
</glyph>
<glyph name="uni066F" format="1">
  <advance width="578"/>
  <unicode hex="066F"/>
  <outline>
    <contour>
      <point x="384" y="333"/>
      <point x="354" y="326"/>
      <point x="328" y="280" type="curve" smooth="yes"/>
      <point x="313" y="253"/>
      <point x="301" y="214"/>
      <point x="301" y="178" type="curve" smooth="yes"/>
      <point x="301" y="148"/>
      <point x="309" y="123"/>
      <point x="327" y="107" type="curve" smooth="yes"/>
      <point x="342" y="93"/>
      <point x="365" y="86"/>
      <point x="395" y="86" type="curve" smooth="yes"/>
      <point x="443" y="86"/>
      <point x="469" y="104"/>
      <point x="469" y="104" type="curve"/>
      <point x="479" y="58" type="line"/>
      <point x="479" y="58"/>
      <point x="469" y="12"/>
      <point x="431" y="-27" type="curve" smooth="yes"/>
      <point x="399" y="-60"/>
      <point x="349" y="-85"/>
      <point x="280" y="-85" type="curve" smooth="yes"/>
      <point x="221" y="-85"/>
      <point x="162" y="-67"/>
      <point x="132" y="-29" type="curve" smooth="yes"/>
      <point x="106" y="4"/>
      <point x="108" y="44"/>
      <point x="119" y="102" type="curve"/>
      <point x="100" y="109" type="line"/>
      <point x="85" y="72"/>
      <point x="74" y="33"/>
      <point x="71" y="-4" type="curve" smooth="yes"/>
      <point x="69" y="-32"/>
      <point x="70" y="-60"/>
      <point x="83" y="-92" type="curve" smooth="yes"/>
      <point x="97" y="-127"/>
      <point x="121" y="-153"/>
      <point x="155" y="-171" type="curve" smooth="yes"/>
      <point x="188" y="-189"/>
      <point x="230" y="-198"/>
      <point x="277" y="-198" type="curve" smooth="yes"/>
      <point x="322" y="-198"/>
      <point x="356" y="-190"/>
      <point x="387" y="-175" type="curve" smooth="yes"/>
      <point x="415" y="-161"/>
      <point x="440" y="-141"/>
      <point x="460" y="-115" type="curve" smooth="yes"/>
      <point x="479" y="-90"/>
      <point x="494" y="-60"/>
      <point x="504" y="-24" type="curve" smooth="yes"/>
      <point x="513" y="9"/>
      <point x="518" y="45"/>
      <point x="518" y="80" type="curve" smooth="yes"/>
      <point x="518" y="124"/>
      <point x="510" y="185"/>
      <point x="487" y="243" type="curve" smooth="yes"/>
      <point x="475" y="272"/>
      <point x="466" y="289"/>
      <point x="448" y="308" type="curve" smooth="yes"/>
      <point x="433" y="324"/>
      <point x="417" y="333"/>
      <point x="399" y="333" type="curve" smooth="yes"/>
    </contour>
    <contour>
      <point x="444" y="266"/>
      <point x="456" y="186"/>
      <point x="456" y="186" type="curve" smooth="yes"/>
      <point x="456" y="186"/>
      <point x="439" y="160"/>
      <point x="396" y="160" type="curve" smooth="yes"/>
      <point x="370" y="160"/>
      <point x="333" y="170"/>
      <point x="333" y="210" type="curve" smooth="yes"/>
      <point x="333" y="243"/>
      <point x="358" y="266"/>
      <point x="388" y="266" type="curve" smooth="yes"/>
    </contour>
    <contour>
      <point x="399" y="363" type="move" name="top"/>
    </contour>
    <contour>
      <point x="277" y="-228" type="move" name="bottom"/>
    </contour>
  </outline>
</glyph>
<glyph name="alefabove-ar" format="1">
  <advance width="0"/>
  <unicode hex="0670"/>
  <outline>
    <contour>
      <point x="21" y="758"/>
      <point x="13" y="809"/>
      <point x="2" y="833" type="curve"/>
      <point x="-12" y="827"/>
      <point x="-20" y="824"/>
      <point x="-26" y="817" type="curve"/>
      <point x="-18" y="803"/>
      <point x="3" y="767"/>
      <point x="-4" y="706" type="curve"/>
      <point x="14" y="707" type="line"/>
    </contour>
    <contour>
      <point x="-5" y="833" type="move" name="top"/>
    </contour>
    <contour>
      <point x="-5" y="686" type="move" name="_top"/>
    </contour>
  </outline>
</glyph>
<glyph name="uni06D2" format="1">
  <advance width="950"/>
  <unicode hex="06D2"/>
  <outline>
    <contour>
      <point x="460" y="280"/>
      <point x="466" y="351"/>
      <point x="442" y="387" type="curve" smooth="yes"/>
      <point x="430" y="405"/>
      <point x="414" y="407"/>
      <point x="407" y="407" type="curve" smooth="yes"/>
      <point x="388" y="407"/>
      <point x="374" y="391"/>
      <point x="353" y="362" type="curve" smooth="yes"/>
      <point x="324" y="320"/>
      <point x="313" y="305"/>
      <point x="226" y="264" type="curve" smooth="yes"/>
      <point x="194" y="249"/>
      <point x="153" y="230"/>
      <point x="122" y="204" type="curve" smooth="yes"/>
      <point x="87" y="175"/>
      <point x="70" y="143"/>
      <point x="70" y="106" type="curve" smooth="yes"/>
      <point x="70" y="73"/>
      <point x="83" y="49"/>
      <point x="109" y="32" type="curve" smooth="yes"/>
      <point x="141" y="11"/>
      <point x="194" y="1"/>
      <point x="265" y="1" type="curve" smooth="yes"/>
      <point x="825" y="1" type="line"/>
      <point x="858" y="40"/>
      <point x="873" y="65"/>
      <point x="890" y="99" type="curve"/>
      <point x="270" y="99" type="line" smooth="yes"/>
      <point x="170" y="99"/>
      <point x="135" y="111"/>
      <point x="135" y="145" type="curve" smooth="yes"/>
      <point x="135" y="160"/>
      <point x="144" y="177"/>
      <point x="166" y="186" type="curve" smooth="yes"/>
      <point x="261" y="221"/>
      <point x="279" y="242"/>
      <point x="318" y="281" type="curve" smooth="yes"/>
      <point x="328" y="291"/>
      <point x="358" y="335"/>
      <point x="395" y="335" type="curve" smooth="yes"/>
      <point x="441" y="335"/>
      <point x="435" y="282"/>
      <point x="432" y="242" type="curve"/>
      <point x="451" y="246" type="line"/>
    </contour>
    <contour>
      <point x="407" y="437" type="move" name="top"/>
    </contour>
    <contour>
      <point x="432" y="-27" type="move" name="bottom"/>
    </contour>
  </outline>
</glyph>
<glyph name="lamAlefabove-ar" format="1">
  <advance width="0"/>
  <unicode hex="06D9"/>
  <outline>
    <contour>
      <point x="34" y="747"/>
      <point x="32" y="752"/>
      <point x="27" y="759" type="curve"/>
      <point x="21" y="747"/>
      <point x="9" y="739"/>
      <point x="5" y="737" type="curve"/>
      <point x="12" y="737"/>
      <point x="28" y="737"/>
      <point x="38" y="739" type="curve"/>
    </contour>
    <contour>
      <point x="68" y="857" type="line"/>
      <point x="59" y="861" type="line"/>
      <point x="62" y="845"/>
      <point x="60" y="809"/>
      <point x="41" y="774" type="curve"/>
      <point x="45" y="765"/>
      <point x="53" y="745"/>
      <point x="53" y="730" type="curve"/>
      <point x="53" y="729"/>
      <point x="51" y="713"/>
      <point x="49" y="708" type="curve"/>
      <point x="28" y="704"/>
      <point x="6" y="700"/>
      <point x="-34" y="700" type="curve"/>
      <point x="-34" y="715"/>
      <point x="-34" y="726"/>
      <point x="-33" y="738" type="curve"/>
      <point x="-28" y="738" type="line"/>
      <point x="-10" y="742"/>
      <point x="5" y="754"/>
      <point x="17" y="773" type="curve"/>
      <point x="-9" y="818"/>
      <point x="-38" y="844"/>
      <point x="-43" y="848" type="curve"/>
      <point x="-48" y="841" type="line"/>
      <point x="-58" y="848"/>
      <point x="-64" y="853"/>
      <point x="-73" y="860" type="curve"/>
      <point x="-72" y="873"/>
      <point x="-67" y="887"/>
      <point x="-66" y="889" type="curve" smooth="yes"/>
      <point x="-64" y="893"/>
      <point x="-60" y="892"/>
      <point x="-58" y="890" type="curve" smooth="yes"/>
      <point x="-55" y="890"/>
      <point x="-51" y="887"/>
      <point x="-42" y="879" type="curve" smooth="yes"/>
      <point x="-27" y="866"/>
      <point x="-11" y="849"/>
      <point x="3" y="831" type="curve" smooth="yes"/>
      <point x="14" y="818"/>
      <point x="23" y="805"/>
      <point x="28" y="794" type="curve"/>
      <point x="36" y="806"/>
      <point x="39" y="820"/>
      <point x="42" y="835" type="curve" smooth="yes"/>
      <point x="44" y="856"/>
      <point x="41" y="878"/>
      <point x="35" y="895" type="curve"/>
      <point x="38" y="898"/>
      <point x="46" y="903"/>
      <point x="53" y="911" type="curve"/>
      <point x="58" y="896"/>
      <point x="68" y="883"/>
      <point x="77" y="876" type="curve"/>
    </contour>
    <contour>
      <point x="2" y="911" type="move" name="top"/>
    </contour>
    <contour>
      <point x="2" y="670" type="move" name="_top"/>
    </contour>
  </outline>
</glyph>
<glyph name="uni06DD" format="1">
  <advance width="904"/>
  <unicode hex="06DD"/>
  <outline>
    <contour>
      <point x="40" y="275"/>
      <point x="39" y="160"/>
      <point x="105" y="62" type="curve" smooth="yes"/>
      <point x="135" y="19"/>
      <point x="172" y="-18"/>
      <point x="214" y="-48" type="curve" smooth="yes"/>
      <point x="259" y="-78"/>
      <point x="305" y="-97"/>
      <point x="360" y="-110" type="curve" smooth="yes"/>
      <point x="434" y="-127"/>
      <point x="452" y="-161"/>
      <point x="452" y="-161" type="curve" smooth="yes"/>
      <point x="452" y="-161"/>
      <point x="470" y="-127"/>
      <point x="544" y="-110" type="curve" smooth="yes"/>
      <point x="598" y="-97"/>
      <point x="645" y="-78"/>
      <point x="689" y="-48" type="curve" smooth="yes"/>
      <point x="732" y="-18"/>
      <point x="769" y="19"/>
      <point x="798" y="62" type="curve" smooth="yes"/>
      <point x="865" y="160"/>
      <point x="864" y="275"/>
      <point x="864" y="275" type="curve" smooth="yes"/>
      <point x="864" y="275"/>
      <point x="865" y="390"/>
      <point x="798" y="487" type="curve" smooth="yes"/>
      <point x="769" y="531"/>
      <point x="732" y="568"/>
      <point x="689" y="597" type="curve" smooth="yes"/>
      <point x="645" y="628"/>
      <point x="598" y="647"/>
      <point x="544" y="659" type="curve" smooth="yes"/>
      <point x="470" y="676"/>
      <point x="452" y="711"/>
      <point x="452" y="711" type="curve" smooth="yes"/>
      <point x="452" y="711"/>
      <point x="434" y="676"/>
      <point x="360" y="659" type="curve" smooth="yes"/>
      <point x="305" y="647"/>
      <point x="259" y="628"/>
      <point x="214" y="597" type="curve" smooth="yes"/>
      <point x="172" y="568"/>
      <point x="135" y="531"/>
      <point x="105" y="487" type="curve" smooth="yes"/>
      <point x="39" y="390"/>
      <point x="40" y="287"/>
      <point x="40" y="275" type="curve"/>
    </contour>
    <contour>
      <point x="90" y="233"/>
      <point x="131" y="236"/>
      <point x="131" y="275" type="curve" smooth="yes"/>
      <point x="131" y="314"/>
      <point x="90" y="317"/>
      <point x="90" y="317" type="curve"/>
      <point x="117" y="344"/>
      <point x="121" y="361"/>
      <point x="121" y="361" type="curve" smooth="yes"/>
      <point x="121" y="361"/>
      <point x="150" y="348"/>
      <point x="148" y="320" type="curve"/>
      <point x="155" y="322"/>
      <point x="171" y="322"/>
      <point x="186" y="306" type="curve" smooth="yes"/>
      <point x="198" y="293"/>
      <point x="226" y="275"/>
      <point x="226" y="275" type="curve" smooth="yes"/>
      <point x="226" y="275"/>
      <point x="198" y="257"/>
      <point x="186" y="244" type="curve" smooth="yes"/>
      <point x="171" y="228"/>
      <point x="155" y="228"/>
      <point x="148" y="229" type="curve"/>
      <point x="150" y="202"/>
      <point x="121" y="189"/>
      <point x="121" y="189" type="curve" smooth="yes"/>
      <point x="121" y="189"/>
      <point x="117" y="205"/>
      <point x="90" y="233" type="curve"/>
    </contour>
    <contour>
      <point x="128" y="151"/>
      <point x="166" y="162"/>
      <point x="203" y="212" type="curve" smooth="yes"/>
      <point x="234" y="253"/>
      <point x="275" y="275"/>
      <point x="275" y="275" type="curve" smooth="yes"/>
      <point x="275" y="275"/>
      <point x="234" y="296"/>
      <point x="203" y="338" type="curve" smooth="yes"/>
      <point x="166" y="387"/>
      <point x="128" y="399"/>
      <point x="111" y="402" type="curve"/>
      <point x="115" y="411"/>
      <point x="147" y="490"/>
      <point x="248" y="539" type="curve" smooth="yes"/>
      <point x="305" y="567"/>
      <point x="355" y="578"/>
      <point x="378" y="582" type="curve"/>
      <point x="386" y="557"/>
      <point x="414" y="552"/>
      <point x="426" y="551" type="curve"/>
      <point x="429" y="511"/>
      <point x="452" y="498"/>
      <point x="452" y="498" type="curve" smooth="yes"/>
      <point x="452" y="498"/>
      <point x="475" y="511"/>
      <point x="478" y="551" type="curve"/>
      <point x="490" y="552"/>
      <point x="518" y="557"/>
      <point x="526" y="582" type="curve"/>
      <point x="549" y="578"/>
      <point x="599" y="567"/>
      <point x="656" y="539" type="curve" smooth="yes"/>
      <point x="757" y="490"/>
      <point x="789" y="411"/>
      <point x="793" y="402" type="curve"/>
      <point x="776" y="399"/>
      <point x="737" y="387"/>
      <point x="701" y="338" type="curve" smooth="yes"/>
      <point x="670" y="296"/>
      <point x="629" y="275"/>
      <point x="629" y="275" type="curve" smooth="yes"/>
      <point x="629" y="275"/>
      <point x="670" y="253"/>
      <point x="701" y="212" type="curve" smooth="yes"/>
      <point x="737" y="162"/>
      <point x="776" y="151"/>
      <point x="793" y="148" type="curve"/>
      <point x="789" y="139"/>
      <point x="757" y="59"/>
      <point x="656" y="10" type="curve" smooth="yes"/>
      <point x="599" y="-17"/>
      <point x="549" y="-28"/>
      <point x="526" y="-32" type="curve"/>
      <point x="518" y="-8"/>
      <point x="490" y="-2"/>
      <point x="478" y="-1" type="curve"/>
      <point x="475" y="39"/>
      <point x="452" y="52"/>
      <point x="452" y="52" type="curve" smooth="yes"/>
      <point x="452" y="52"/>
      <point x="429" y="39"/>
      <point x="426" y="-1" type="curve"/>
      <point x="414" y="-2"/>
      <point x="386" y="-8"/>
      <point x="378" y="-32" type="curve"/>
      <point x="355" y="-28"/>
      <point x="305" y="-17"/>
      <point x="248" y="10" type="curve" smooth="yes"/>
      <point x="147" y="59"/>
      <point x="115" y="139"/>
      <point x="111" y="148" type="curve"/>
    </contour>
    <contour>
      <point x="678" y="275"/>
      <point x="706" y="293"/>
      <point x="718" y="306" type="curve" smooth="yes"/>
      <point x="733" y="322"/>
      <point x="749" y="322"/>
      <point x="756" y="320" type="curve"/>
      <point x="754" y="348"/>
      <point x="783" y="361"/>
      <point x="783" y="361" type="curve" smooth="yes"/>
      <point x="783" y="361"/>
      <point x="787" y="344"/>
      <point x="814" y="317" type="curve"/>
      <point x="814" y="317"/>
      <point x="773" y="314"/>
      <point x="773" y="275" type="curve" smooth="yes"/>
      <point x="773" y="235"/>
      <point x="814" y="233"/>
      <point x="814" y="233" type="curve"/>
      <point x="787" y="205"/>
      <point x="783" y="189"/>
      <point x="783" y="189" type="curve" smooth="yes"/>
      <point x="783" y="189"/>
      <point x="754" y="202"/>
      <point x="756" y="229" type="curve"/>
      <point x="749" y="228"/>
      <point x="733" y="228"/>
      <point x="718" y="244" type="curve" smooth="yes"/>
      <point x="706" y="257"/>
      <point x="678" y="275"/>
      <point x="678" y="275" type="curve" smooth="yes"/>
    </contour>
  </outline>
</glyph>
<glyph name="uni06DE" format="1">
  <advance width="589"/>
  <unicode hex="06DE"/>
  <outline>
    <contour>
      <point x="514" y="245"/>
      <point x="497" y="248"/>
      <point x="469" y="252" type="curve"/>
      <point x="463" y="301"/>
      <point x="444" y="335"/>
      <point x="421" y="358" type="curve" smooth="yes"/>
      <point x="377" y="402"/>
      <point x="320" y="406"/>
      <point x="321" y="406" type="curve" smooth="yes"/>
      <point x="317" y="434"/>
      <point x="317" y="454"/>
      <point x="300" y="476" type="curve"/>
      <point x="286" y="457"/>
      <point x="283" y="438"/>
      <point x="279" y="406" type="curve" smooth="yes"/>
      <point x="278" y="406"/>
      <point x="212" y="401"/>
      <point x="168" y="345" type="curve" smooth="yes"/>
      <point x="150" y="323"/>
      <point x="136" y="293"/>
      <point x="131" y="252" type="curve"/>
      <point x="115" y="250"/>
      <point x="85" y="246"/>
      <point x="70" y="238" type="curve"/>
      <point x="79" y="234"/>
      <point x="109" y="228"/>
      <point x="131" y="224" type="curve"/>
      <point x="136" y="186"/>
      <point x="149" y="157"/>
      <point x="165" y="135" type="curve" smooth="yes"/>
      <point x="209" y="76"/>
      <point x="278" y="71"/>
      <point x="279" y="70" type="curve" smooth="yes"/>
      <point x="282" y="45"/>
      <point x="286" y="20"/>
      <point x="300" y="0" type="curve"/>
      <point x="311" y="15"/>
      <point x="317" y="41"/>
      <point x="321" y="70" type="curve" smooth="yes"/>
      <point x="320" y="71"/>
      <point x="355" y="73"/>
      <point x="391" y="95" type="curve" smooth="yes"/>
      <point x="425" y="116"/>
      <point x="460" y="155"/>
      <point x="469" y="224" type="curve"/>
      <point x="485" y="227"/>
      <point x="514" y="231"/>
      <point x="529" y="238" type="curve"/>
    </contour>
    <contour>
      <point x="385" y="216"/>
      <point x="404" y="195"/>
      <point x="417" y="141" type="curve" smooth="yes"/>
      <point x="363" y="144"/>
      <point x="329" y="165"/>
      <point x="300" y="217" type="curve"/>
      <point x="272" y="165"/>
      <point x="237" y="144"/>
      <point x="183" y="141" type="curve" smooth="yes"/>
      <point x="190" y="181"/>
      <point x="216" y="217"/>
      <point x="263" y="238" type="curve"/>
      <point x="216" y="261"/>
      <point x="186" y="289"/>
      <point x="183" y="336" type="curve" smooth="yes"/>
      <point x="248" y="333"/>
      <point x="267" y="313"/>
      <point x="300" y="259" type="curve"/>
      <point x="329" y="313"/>
      <point x="356" y="330"/>
      <point x="417" y="336" type="curve" smooth="yes"/>
      <point x="412" y="291"/>
      <point x="390" y="265"/>
      <point x="337" y="238" type="curve"/>
    </contour>
  </outline>
</glyph>
<glyph name="uni06E3" format="1">
  <advance width="0"/>
  <unicode hex="06E3"/>
  <outline>
    <contour>
      <point x="120" y="-233"/>
      <point x="114" y="-241"/>
      <point x="110" y="-249" type="curve"/>
      <point x="126" y="-271" type="line"/>
      <point x="125" y="-279"/>
      <point x="114" y="-289"/>
      <point x="100" y="-289" type="curve" smooth="yes"/>
      <point x="80" y="-289"/>
      <point x="72" y="-278"/>
      <point x="74" y="-255" type="curve"/>
      <point x="66" y="-258" type="line"/>
      <point x="66" y="-271"/>
      <point x="61" y="-289"/>
      <point x="39" y="-289" type="curve" smooth="yes"/>
      <point x="17" y="-289"/>
      <point x="5" y="-272"/>
      <point x="1" y="-266" type="curve"/>
      <point x="-4" y="-272"/>
      <point x="-11" y="-282"/>
      <point x="-16" y="-292" type="curve"/>
      <point x="-9" y="-300"/>
      <point x="11" y="-330"/>
      <point x="11" y="-348" type="curve" smooth="yes"/>
      <point x="11" y="-358"/>
      <point x="3" y="-368"/>
      <point x="-9" y="-375" type="curve" smooth="yes"/>
      <point x="-23" y="-383"/>
      <point x="-40" y="-387"/>
      <point x="-60" y="-387" type="curve" smooth="yes"/>
      <point x="-89" y="-387"/>
      <point x="-109" y="-379"/>
      <point x="-119" y="-367" type="curve" smooth="yes"/>
      <point x="-129" y="-354"/>
      <point x="-128" y="-340"/>
      <point x="-124" y="-318" type="curve"/>
      <point x="-131" y="-316" type="line"/>
      <point x="-138" y="-331"/>
      <point x="-141" y="-348"/>
      <point x="-142" y="-358" type="curve" smooth="yes"/>
      <point x="-142" y="-368"/>
      <point x="-142" y="-379"/>
      <point x="-137" y="-390" type="curve" smooth="yes"/>
      <point x="-132" y="-402"/>
      <point x="-123" y="-412"/>
      <point x="-111" y="-419" type="curve" smooth="yes"/>
      <point x="-98" y="-426"/>
      <point x="-81" y="-429"/>
      <point x="-64" y="-429" type="curve" smooth="yes"/>
      <point x="-51" y="-429"/>
      <point x="-37" y="-427"/>
      <point x="-26" y="-423" type="curve" smooth="yes"/>
      <point x="-16" y="-419"/>
      <point x="-8" y="-416"/>
      <point x="1" y="-407" type="curve" smooth="yes"/>
      <point x="18" y="-392"/>
      <point x="27" y="-369"/>
      <point x="27" y="-340" type="curve" smooth="yes"/>
      <point x="27" y="-333"/>
      <point x="26" y="-328"/>
      <point x="26" y="-321" type="curve"/>
      <point x="38" y="-326"/>
      <point x="48" y="-325"/>
      <point x="55" y="-320" type="curve" smooth="yes"/>
      <point x="63" y="-315"/>
      <point x="66" y="-307"/>
      <point x="69" y="-296" type="curve"/>
      <point x="69" y="-296"/>
      <point x="70" y="-306"/>
      <point x="78" y="-314" type="curve" smooth="yes"/>
      <point x="83" y="-318"/>
      <point x="91" y="-321"/>
      <point x="100" y="-321" type="curve" smooth="yes"/>
      <point x="114" y="-321"/>
      <point x="121" y="-315"/>
      <point x="128" y="-307" type="curve" smooth="yes"/>
      <point x="138" y="-293"/>
      <point x="139" y="-275"/>
      <point x="139" y="-273" type="curve" smooth="yes"/>
      <point x="139" y="-249"/>
      <point x="129" y="-233"/>
      <point x="125" y="-228" type="curve"/>
    </contour>
    <contour>
      <point x="-1" y="-208" type="move" name="_bottom"/>
    </contour>
    <contour>
      <point x="-1" y="-429" type="move" name="bottom"/>
    </contour>
  </outline>
</glyph>
<glyph name="yehabove-ar" format="1">
  <advance width="0"/>
  <unicode hex="06E7"/>
  <outline>
    <contour>
      <point x="-8" y="806"/>
      <point x="-6" y="832"/>
      <point x="-14" y="845" type="curve" smooth="yes"/>
      <point x="-19" y="852"/>
      <point x="-24" y="852"/>
      <point x="-26" y="852" type="curve" smooth="yes"/>
      <point x="-34" y="852"/>
      <point x="-40" y="846"/>
      <point x="-46" y="836" type="curve" smooth="yes"/>
      <point x="-57" y="820"/>
      <point x="-62" y="814"/>
      <point x="-94" y="800" type="curve" smooth="yes"/>
      <point x="-106" y="795"/>
      <point x="-121" y="787"/>
      <point x="-131" y="778" type="curve" smooth="yes"/>
      <point x="-146" y="767"/>
      <point x="-151" y="755"/>
      <point x="-151" y="742" type="curve" smooth="yes"/>
      <point x="-151" y="730"/>
      <point x="-147" y="721"/>
      <point x="-137" y="714" type="curve" smooth="yes"/>
      <point x="-125" y="706"/>
      <point x="-106" y="703"/>
      <point x="-79" y="703" type="curve" smooth="yes"/>
      <point x="127" y="703" type="line"/>
      <point x="139" y="717"/>
      <point x="146" y="726"/>
      <point x="151" y="738" type="curve"/>
      <point x="-77" y="738" type="line" smooth="yes"/>
      <point x="-115" y="738"/>
      <point x="-128" y="744"/>
      <point x="-128" y="756" type="curve" smooth="yes"/>
      <point x="-128" y="762"/>
      <point x="-125" y="768"/>
      <point x="-116" y="771" type="curve"/>
      <point x="-80" y="784"/>
      <point x="-74" y="792"/>
      <point x="-60" y="807" type="curve" smooth="yes"/>
      <point x="-56" y="810"/>
      <point x="-45" y="827"/>
      <point x="-32" y="827" type="curve" smooth="yes"/>
      <point x="-14" y="827"/>
      <point x="-17" y="807"/>
      <point x="-18" y="792" type="curve"/>
      <point x="-11" y="792" type="line"/>
    </contour>
    <contour>
      <point x="0" y="852" type="move" name="top"/>
    </contour>
    <contour>
      <point x="0" y="673" type="move" name="_top"/>
    </contour>
  </outline>
</glyph>
<glyph name="rhombusStopabove-ar" format="1">
  <advance width="0"/>
  <unicode hex="06EB"/>
  <outline>
    <contour>
      <point x="76" y="776" type="line"/>
      <point x="0" y="852" type="line"/>
      <point x="-75" y="776" type="line"/>
      <point x="0" y="700" type="line"/>
    </contour>
    <contour>
      <point x="0" y="831" type="line"/>
      <point x="56" y="776" type="line"/>
      <point x="0" y="720" type="line"/>
      <point x="-55" y="776" type="line"/>
    </contour>
    <contour>
      <point x="0" y="852" type="move" name="top"/>
    </contour>
    <contour>
      <point x="0" y="680" type="move" name="_top"/>
    </contour>
  </outline>
</glyph>
<glyph name="uni06EC" format="1">
  <advance width="0"/>
  <unicode hex="06EC"/>
  <outline>
    <contour>
      <point x="22" y="700"/>
      <point x="39" y="717"/>
      <point x="39" y="738" type="curve" smooth="yes"/>
      <point x="39" y="759"/>
      <point x="22" y="776"/>
      <point x="0" y="776" type="curve" smooth="yes"/>
      <point x="-21" y="776"/>
      <point x="-38" y="759"/>
      <point x="-38" y="738" type="curve" smooth="yes"/>
      <point x="-38" y="717"/>
      <point x="-21" y="700"/>
      <point x="0" y="700" type="curve" smooth="yes"/>
    </contour>
    <contour>
      <point x="1" y="776" type="move" name="top"/>
    </contour>
    <contour>
      <point x="1" y="680" type="move" name="_top"/>
    </contour>
  </outline>
</glyph>
<glyph name="uni06ED" format="1">
  <advance width="0"/>
  <unicode hex="06ED"/>
  <outline>
    <contour>
      <point x="43" y="-224"/>
      <point x="36" y="-214"/>
      <point x="24" y="-207" type="curve" smooth="yes"/>
      <point x="19" y="-203"/>
      <point x="10" y="-200"/>
      <point x="4" y="-200" type="curve" smooth="yes"/>
      <point x="-9" y="-200"/>
      <point x="-16" y="-206"/>
      <point x="-21" y="-218" type="curve" smooth="yes"/>
      <point x="-23" y="-222"/>
      <point x="-24" y="-228"/>
      <point x="-24" y="-231" type="curve"/>
      <point x="-11" y="-224"/>
      <point x="0" y="-228"/>
      <point x="16" y="-237" type="curve"/>
      <point x="-4" y="-237"/>
      <point x="-20" y="-240"/>
      <point x="-33" y="-252" type="curve" smooth="yes"/>
      <point x="-41" y="-260"/>
      <point x="-52" y="-277"/>
      <point x="-48" y="-304" type="curve" smooth="yes"/>
      <point x="-45" y="-317"/>
      <point x="-44" y="-332"/>
      <point x="-41" y="-347" type="curve" smooth="yes"/>
      <point x="-37" y="-368"/>
      <point x="-34" y="-391"/>
      <point x="-31" y="-415" type="curve"/>
      <point x="-22" y="-412" type="line"/>
      <point x="-21" y="-394"/>
      <point x="-24" y="-360"/>
      <point x="-31" y="-310" type="curve" smooth="yes"/>
      <point x="-32" y="-299"/>
      <point x="-30" y="-289"/>
      <point x="-22" y="-282" type="curve" smooth="yes"/>
      <point x="-15" y="-275"/>
      <point x="-3" y="-268"/>
      <point x="11" y="-265" type="curve" smooth="yes"/>
      <point x="23" y="-262"/>
      <point x="34" y="-262"/>
      <point x="41" y="-262" type="curve"/>
      <point x="43" y="-249"/>
      <point x="44" y="-237"/>
      <point x="44" y="-226" type="curve"/>
    </contour>
    <contour>
      <point x="-2" y="-180" type="move" name="_bottom"/>
    </contour>
    <contour>
      <point x="-2" y="-415" type="move" name="bottom"/>
    </contour>
  </outline>
</glyph>
<glyph name="six-persian" format="1">
  <advance width="393"/>
  <unicode hex="06F6"/>
  <outline>
    <contour>
      <point x="360" y="317"/>
      <point x="362" y="348"/>
      <point x="363" y="373" type="curve"/>
      <point x="351" y="366"/>
      <point x="338" y="358"/>
      <point x="326" y="351" type="curve"/>
      <point x="291" y="333"/>
      <point x="264" y="321"/>
      <point x="213" y="321" type="curve" smooth="yes"/>
      <point x="151" y="321"/>
      <point x="107" y="341"/>
      <point x="99" y="395" type="curve" smooth="yes"/>
      <point x="132" y="434"/>
      <point x="159" y="457"/>
      <point x="214" y="457" type="curve" smooth="yes"/>
      <point x="230" y="457"/>
      <point x="256" y="452"/>
      <point x="274" y="448" type="curve"/>
      <point x="285" y="467" type="line"/>
      <point x="281" y="473"/>
      <point x="255" y="523"/>
      <point x="199" y="523" type="curve" smooth="yes"/>
      <point x="149" y="523"/>
      <point x="112" y="480"/>
      <point x="90" y="446" type="curve" smooth="yes"/>
      <point x="65" y="404"/>
      <point x="52" y="362"/>
      <point x="51" y="352" type="curve"/>
      <point x="53" y="320"/>
      <point x="61" y="296"/>
      <point x="77" y="280" type="curve" smooth="yes"/>
      <point x="97" y="258"/>
      <point x="129" y="247"/>
      <point x="172" y="244" type="curve" smooth="yes"/>
      <point x="141" y="209"/>
      <point x="130" y="196"/>
      <point x="103" y="147" type="curve" smooth="yes"/>
      <point x="82" y="109"/>
      <point x="59" y="60"/>
      <point x="40" y="0" type="curve"/>
      <point x="74" y="0" type="line"/>
      <point x="106" y="69"/>
      <point x="151" y="126"/>
      <point x="197" y="169" type="curve" smooth="yes"/>
      <point x="279" y="249"/>
      <point x="318" y="273"/>
      <point x="354" y="292" type="curve"/>
    </contour>
  </outline>
</glyph>
<glyph name="uni08A0" format="1">
  <advance width="832"/>
  <unicode hex="08A0"/>
  <outline>
    <component base="uni066E"/>
    <component base="vbelowar" xOffset="410" yOffset="134"/>
    <contour>
      <point x="411" y="-259" type="move" name="bottom"/>
    </contour>
  </outline>
</glyph>
<glyph name="uni08E5" format="1">
  <advance width="0"/>
  <unicode hex="08E5"/>
  <outline>
    <contour>
      <point x="61" y="778" type="line" smooth="yes"/>
      <point x="87" y="821"/>
      <point x="86" y="861"/>
      <point x="64" y="873" type="curve" smooth="yes"/>
      <point x="45" y="883"/>
      <point x="20" y="873"/>
      <point x="-3" y="845" type="curve" smooth="yes"/>
      <point x="-16" y="829"/>
      <point x="-20" y="815"/>
      <point x="-17" y="802" type="curve" smooth="yes"/>
      <point x="-13" y="785"/>
      <point x="1" y="773"/>
      <point x="30" y="762" type="curve"/>
      <point x="15" y="746"/>
      <point x="-4" y="739"/>
      <point x="-22" y="739" type="curve" smooth="yes"/>
      <point x="-40" y="740"/>
      <point x="-57" y="746"/>
      <point x="-64" y="764" type="curve"/>
      <point x="-77" y="751"/>
      <point x="-81" y="745"/>
      <point x="-90" y="728" type="curve"/>
      <point x="-78" y="711"/>
      <point x="-57" y="701"/>
      <point x="-34" y="702" type="curve" smooth="yes"/>
      <point x="-18" y="702"/>
      <point x="-2" y="706"/>
      <point x="12" y="717" type="curve" smooth="yes"/>
      <point x="29" y="729"/>
      <point x="37" y="738"/>
      <point x="49" y="756" type="curve"/>
      <point x="80" y="743" type="line" smooth="yes"/>
      <point x="80" y="754"/>
      <point x="79" y="761"/>
      <point x="76" y="770" type="curve" smooth="yes"/>
    </contour>
    <contour>
      <point x="24" y="798" type="line" smooth="yes"/>
      <point x="5" y="809"/>
      <point x="3" y="820"/>
      <point x="4" y="827" type="curve" smooth="yes"/>
      <point x="5" y="837"/>
      <point x="13" y="846"/>
      <point x="25" y="849" type="curve"/>
      <point x="35" y="852"/>
      <point x="46" y="849"/>
      <point x="53" y="840" type="curve"/>
      <point x="64" y="828"/>
      <point x="58" y="807"/>
      <point x="45" y="786" type="curve"/>
    </contour>
    <contour>
      <point x="4" y="876" type="move" name="top"/>
    </contour>
    <contour>
      <point x="4" y="680" type="move" name="_top"/>
    </contour>
  </outline>
</glyph>
<glyph name="uni08E9" format="1">
  <advance width="0"/>
  <unicode hex="08E9"/>
  <outline>
    <contour>
      <point x="-54" y="-325"/>
      <point x="-48" y="-335"/>
      <point x="-31" y="-348" type="curve"/>
      <point x="-33" y="-354"/>
      <point x="-35" y="-361"/>
      <point x="-35" y="-367" type="curve" smooth="yes"/>
      <point x="-35" y="-381"/>
      <point x="-28" y="-391"/>
      <point x="-9" y="-405" type="curve"/>
      <point x="-6" y="-399" type="line"/>
      <point x="-10" y="-394"/>
      <point x="-14" y="-390"/>
      <point x="-15" y="-384" type="curve"/>
      <point x="-20" y="-371"/>
      <point x="-5" y="-357"/>
      <point x="4" y="-352" type="curve" smooth="yes"/>
      <point x="11" y="-348"/>
      <point x="35" y="-337"/>
      <point x="43" y="-325" type="curve"/>
      <point x="49" y="-318"/>
      <point x="54" y="-306"/>
      <point x="53" y="-295" type="curve" smooth="yes"/>
      <point x="52" y="-282"/>
      <point x="47" y="-275"/>
      <point x="30" y="-261" type="curve"/>
      <point x="33" y="-255"/>
      <point x="34" y="-247"/>
      <point x="34" y="-240" type="curve" smooth="yes"/>
      <point x="33" y="-226"/>
      <point x="27" y="-219"/>
      <point x="7" y="-204" type="curve"/>
      <point x="4" y="-211" type="line"/>
      <point x="7" y="-214"/>
      <point x="13" y="-220"/>
      <point x="14" y="-225" type="curve"/>
      <point x="14" y="-229"/>
      <point x="17" y="-241"/>
      <point x="-4" y="-256" type="curve" smooth="yes"/>
      <point x="-14" y="-263"/>
      <point x="-35" y="-272"/>
      <point x="-45" y="-285" type="curve" smooth="yes"/>
      <point x="-51" y="-294"/>
      <point x="-54" y="-303"/>
      <point x="-54" y="-312" type="curve" smooth="yes"/>
    </contour>
    <contour>
      <point x="-39" y="-315"/>
      <point x="-24" y="-302"/>
      <point x="-14" y="-297" type="curve" smooth="yes"/>
      <point x="-7" y="-293"/>
      <point x="16" y="-282"/>
      <point x="25" y="-268" type="curve"/>
      <point x="28" y="-272"/>
      <point x="32" y="-276"/>
      <point x="33" y="-281" type="curve"/>
      <point x="33" y="-284"/>
      <point x="35" y="-296"/>
      <point x="15" y="-311" type="curve" smooth="yes"/>
      <point x="4" y="-318"/>
      <point x="-16" y="-326"/>
      <point x="-27" y="-342" type="curve"/>
      <point x="-30" y="-338"/>
      <point x="-33" y="-334"/>
      <point x="-34" y="-328" type="curve"/>
    </contour>
    <contour>
      <point x="1" y="-183" type="move" name="_bottom"/>
    </contour>
    <contour>
      <point x="1" y="-405" type="move" name="bottom"/>
    </contour>
  </outline>
</glyph>
<glyph name="openfathatan-ar" format="1">
  <advance width="0"/>
  <unicode hex="08F0"/>
  <outline>
    <contour>
      <point x="-10" y="775"/>
      <point x="-60" y="755"/>
      <point x="-116" y="727" type="curve"/>
      <point x="-119" y="721"/>
      <point x="-121" y="711"/>
      <point x="-123" y="700" type="curve"/>
      <point x="-123" y="700"/>
      <point x="-16" y="747"/>
      <point x="45" y="767" type="curve"/>
      <point x="49" y="775"/>
      <point x="52" y="785"/>
      <point x="53" y="795" type="curve"/>
    </contour>
    <contour>
      <point x="59" y="873"/>
      <point x="9" y="853"/>
      <point x="-47" y="825" type="curve"/>
      <point x="-50" y="819"/>
      <point x="-52" y="809"/>
      <point x="-54" y="798" type="curve"/>
      <point x="-54" y="798"/>
      <point x="53" y="845"/>
      <point x="114" y="865" type="curve"/>
      <point x="118" y="873"/>
      <point x="121" y="883"/>
      <point x="122" y="893" type="curve"/>
    </contour>
    <contour>
      <point x="4" y="893" type="move" name="top"/>
    </contour>
    <contour>
      <point x="4" y="680" type="move" name="_top"/>
    </contour>
  </outline>
</glyph>
<glyph name="openkasratan-ar" format="1">
  <advance width="0"/>
  <unicode hex="08F2"/>
  <outline>
    <contour>
      <point x="-10" y="-313"/>
      <point x="-60" y="-333"/>
      <point x="-116" y="-361" type="curve"/>
      <point x="-119" y="-367"/>
      <point x="-121" y="-377"/>
      <point x="-123" y="-388" type="curve"/>
      <point x="-123" y="-388"/>
      <point x="-16" y="-341"/>
      <point x="45" y="-321" type="curve"/>
      <point x="49" y="-313"/>
      <point x="52" y="-303"/>
      <point x="53" y="-293" type="curve"/>
    </contour>
    <contour>
      <point x="59" y="-225"/>
      <point x="9" y="-245"/>
      <point x="-47" y="-273" type="curve"/>
      <point x="-50" y="-279"/>
      <point x="-52" y="-289"/>
      <point x="-54" y="-300" type="curve"/>
      <point x="-54" y="-300"/>
      <point x="53" y="-253"/>
      <point x="114" y="-233" type="curve"/>
      <point x="118" y="-225"/>
      <point x="121" y="-215"/>
      <point x="122" y="-205" type="curve"/>
    </contour>
    <contour>
      <point x="1" y="-185" type="move" name="_bottom"/>
    </contour>
    <contour>
      <point x="1" y="-388" type="move" name="bottom"/>
    </contour>
  </outline>
</glyph>
<glyph name="uni08F5" format="1">
  <advance width="0"/>
  <unicode hex="08F5"/>
  <outline>
    <contour>
      <point x="-87" y="700"/>
      <point x="20" y="747"/>
      <point x="81" y="767" type="curve"/>
      <point x="85" y="775"/>
      <point x="88" y="785"/>
      <point x="89" y="795" type="curve"/>
      <point x="26" y="775"/>
      <point x="-24" y="755"/>
      <point x="-80" y="727" type="curve"/>
      <point x="-83" y="721"/>
      <point x="-85" y="711"/>
      <point x="-87" y="700" type="curve"/>
    </contour>
    <contour>
      <point x="-16" y="803"/>
      <point x="-8" y="795"/>
      <point x="0" y="786" type="curve"/>
      <point x="10" y="795"/>
      <point x="17" y="802"/>
      <point x="23" y="809" type="curve"/>
      <point x="17" y="817"/>
      <point x="7" y="827"/>
      <point x="-2" y="833" type="curve"/>
      <point x="-8" y="826"/>
      <point x="-17" y="816"/>
      <point x="-25" y="810" type="curve"/>
    </contour>
    <contour>
      <point x="1" y="833" type="move" name="top"/>
    </contour>
    <contour>
      <point x="1" y="680" type="move" name="_top"/>
    </contour>
  </outline>
</glyph>
<glyph name="uni25A2" format="1">
  <advance width="383"/>
  <unicode hex="25A2"/>
  <outline>
    <contour>
      <point x="40" y="88"/>
      <point x="61" y="67"/>
      <point x="87" y="67" type="curve" smooth="yes"/>
      <point x="297" y="67" type="line" smooth="yes"/>
      <point x="323" y="67"/>
      <point x="343" y="88"/>
      <point x="343" y="113" type="curve" smooth="yes"/>
      <point x="343" y="324" type="line" smooth="yes"/>
      <point x="343" y="349"/>
      <point x="323" y="370"/>
      <point x="297" y="370" type="curve" smooth="yes"/>
      <point x="87" y="370" type="line" smooth="yes"/>
      <point x="61" y="370"/>
      <point x="40" y="349"/>
      <point x="40" y="324" type="curve" smooth="yes"/>
      <point x="40" y="113" type="line" smooth="yes"/>
    </contour>
    <contour>
      <point x="70" y="319" type="line" smooth="yes"/>
      <point x="70" y="331"/>
      <point x="80" y="341"/>
      <point x="93" y="341" type="curve" smooth="yes"/>
      <point x="292" y="341" type="line" smooth="yes"/>
      <point x="305" y="341"/>
      <point x="314" y="331"/>
      <point x="314" y="319" type="curve" smooth="yes"/>
      <point x="314" y="119" type="line" smooth="yes"/>
      <point x="314" y="107"/>
      <point x="305" y="97"/>
      <point x="292" y="97" type="curve" smooth="yes"/>
      <point x="93" y="97" type="line" smooth="yes"/>
      <point x="80" y="97"/>
      <point x="70" y="107"/>
      <point x="70" y="119" type="curve" smooth="yes"/>
    </contour>
  </outline>
</glyph>
<glyph name="noonghunna-ar.fina" format="1">
  <advance width="657"/>
  <unicode hex="FB9F"/>
  <outline>
    <contour>
      <point x="657" y="98" type="line"/>
      <point x="568" y="98" type="line" smooth="yes"/>
      <point x="551" y="98"/>
      <point x="504" y="102"/>
      <point x="463" y="153" type="curve" smooth="yes"/>
      <point x="459" y="158" type="line"/>
      <point x="445" y="140"/>
      <point x="430" y="119"/>
      <point x="416" y="94" type="curve"/>
      <point x="461" y="19"/>
      <point x="487" y="-31"/>
      <point x="487" y="-64" type="curve" smooth="yes"/>
      <point x="487" y="-95"/>
      <point x="463" y="-122"/>
      <point x="431" y="-140" type="curve" smooth="yes"/>
      <point x="401" y="-157"/>
      <point x="353" y="-172"/>
      <point x="290" y="-172" type="curve" smooth="yes"/>
      <point x="254" y="-172"/>
      <point x="221" y="-167"/>
      <point x="195" y="-158" type="curve" smooth="yes"/>
      <point x="163" y="-147"/>
      <point x="143" y="-133"/>
      <point x="130" y="-113" type="curve" smooth="yes"/>
      <point x="109" y="-82"/>
      <point x="109" y="-39"/>
      <point x="119" y="15" type="curve"/>
      <point x="100" y="22" type="line"/>
      <point x="83" y="-19"/>
      <point x="74" y="-57"/>
      <point x="71" y="-91" type="curve" smooth="yes"/>
      <point x="68" y="-123"/>
      <point x="72" y="-154"/>
      <point x="83" y="-180" type="curve" smooth="yes"/>
      <point x="96" y="-210"/>
      <point x="117" y="-236"/>
      <point x="156" y="-257" type="curve" smooth="yes"/>
      <point x="190" y="-275"/>
      <point x="230" y="-285"/>
      <point x="282" y="-285" type="curve" smooth="yes"/>
      <point x="318" y="-285"/>
      <point x="348" y="-280"/>
      <point x="369" y="-274" type="curve" smooth="yes"/>
      <point x="408" y="-263"/>
      <point x="449" y="-238"/>
      <point x="476" y="-209" type="curve" smooth="yes"/>
      <point x="540" y="-140"/>
      <point x="541" y="-39"/>
      <point x="524" y="19" type="curve"/>
      <point x="544" y="4"/>
      <point x="563" y="0"/>
      <point x="594" y="0" type="curve" smooth="yes"/>
      <point x="657" y="0" type="line"/>
    </contour>
    <contour>
      <point x="285" y="-59" type="move" name="top"/>
    </contour>
    <contour>
      <point x="282" y="-318" type="move" name="bottom"/>
    </contour>
  </outline>
</glyph>
<glyph name="uniFBAB" format="1">
  <advance width="613"/>
  <unicode hex="FBAB"/>
  <outline>
    <contour>
      <point x="569" y="98" type="line" smooth="yes"/>
      <point x="535" y="98"/>
      <point x="503" y="98"/>
      <point x="492" y="111" type="curve"/>
      <point x="497" y="167"/>
      <point x="474" y="205"/>
      <point x="456" y="227" type="curve" smooth="yes"/>
      <point x="435" y="253"/>
      <point x="407" y="276"/>
      <point x="368" y="300" type="curve" smooth="yes"/>
      <point x="349" y="311"/>
      <point x="328" y="322"/>
      <point x="308" y="332" type="curve" smooth="yes"/>
      <point x="291" y="341"/>
      <point x="275" y="349"/>
      <point x="262" y="357" type="curve"/>
      <point x="256" y="347"/>
      <point x="249" y="336"/>
      <point x="243" y="326" type="curve"/>
      <point x="231" y="303"/>
      <point x="242" y="291"/>
      <point x="262" y="280" type="curve"/>
      <point x="280" y="271" type="line"/>
      <point x="248" y="269"/>
      <point x="212" y="245"/>
      <point x="194" y="217" type="curve" smooth="yes"/>
      <point x="180" y="196"/>
      <point x="173" y="171"/>
      <point x="173" y="147" type="curve"/>
      <point x="174" y="125"/>
      <point x="180" y="100"/>
      <point x="196" y="81" type="curve"/>
      <point x="180" y="65"/>
      <point x="140" y="43"/>
      <point x="79" y="25" type="curve"/>
      <point x="70" y="-4" type="line"/>
      <point x="120" y="-13"/>
      <point x="158" y="-9"/>
      <point x="194" y="-3" type="curve" smooth="yes"/>
      <point x="228" y="3"/>
      <point x="259" y="17"/>
      <point x="291" y="46" type="curve"/>
      <point x="333" y="31"/>
      <point x="371" y="13"/>
      <point x="412" y="-7" type="curve"/>
      <point x="440" y="23" type="line" smooth="yes"/>
      <point x="454" y="39"/>
      <point x="462" y="47"/>
      <point x="467" y="58" type="curve"/>
      <point x="469" y="43"/>
      <point x="476" y="31"/>
      <point x="486" y="21" type="curve" smooth="yes"/>
      <point x="502" y="4"/>
      <point x="533" y="0"/>
      <point x="567" y="0" type="curve" smooth="yes"/>
      <point x="613" y="0" type="line"/>
      <point x="613" y="98" type="line"/>
    </contour>
    <contour>
      <point x="326" y="203"/>
      <point x="331" y="187"/>
      <point x="331" y="179" type="curve" smooth="yes"/>
      <point x="331" y="170"/>
      <point x="325" y="155"/>
      <point x="309" y="143" type="curve"/>
      <point x="297" y="135"/>
      <point x="284" y="131"/>
      <point x="273" y="131" type="curve" smooth="yes"/>
      <point x="266" y="131"/>
      <point x="257" y="132"/>
      <point x="238" y="144" type="curve"/>
      <point x="223" y="152"/>
      <point x="208" y="166"/>
      <point x="208" y="177" type="curve" smooth="yes"/>
      <point x="208" y="186"/>
      <point x="220" y="202"/>
      <point x="239" y="219" type="curve" smooth="yes"/>
      <point x="260" y="237"/>
      <point x="273" y="243"/>
      <point x="286" y="243" type="curve" smooth="yes"/>
      <point x="300" y="243"/>
      <point x="308" y="235"/>
      <point x="318" y="217" type="curve" smooth="yes"/>
    </contour>
    <contour>
      <point x="440" y="139"/>
      <point x="445" y="113"/>
      <point x="447" y="83" type="curve"/>
      <point x="409" y="93"/>
      <point x="371" y="102"/>
      <point x="333" y="112" type="curve"/>
      <point x="349" y="128"/>
      <point x="359" y="148"/>
      <point x="362" y="169" type="curve" smooth="yes"/>
      <point x="366" y="192"/>
      <point x="362" y="217"/>
      <point x="351" y="240" type="curve"/>
      <point x="389" y="217"/>
      <point x="413" y="192"/>
      <point x="429" y="161" type="curve" smooth="yes"/>
    </contour>
    <contour>
      <point x="262" y="387" type="move" name="top"/>
    </contour>
    <contour>
      <point x="297" y="-10" type="move" name="bottom"/>
    </contour>
  </outline>
</glyph>
<glyph name="yehbarree-ar.fina" format="1">
  <advance width="583"/>
  <unicode hex="FBAF"/>
  <outline>
    <contour>
      <point x="584" y="98" type="line"/>
      <point x="470" y="98" type="line" smooth="yes"/>
      <point x="433" y="98"/>
      <point x="399" y="90"/>
      <point x="370" y="74" type="curve" smooth="yes"/>
      <point x="347" y="61"/>
      <point x="337" y="51"/>
      <point x="321" y="36" type="curve" smooth="yes"/>
      <point x="295" y="12"/>
      <point x="253" y="-9"/>
      <point x="226" y="-21" type="curve" smooth="yes"/>
      <point x="193" y="-37"/>
      <point x="156" y="-55"/>
      <point x="126" y="-79" type="curve" smooth="yes"/>
      <point x="69" y="-125"/>
      <point x="70" y="-164"/>
      <point x="70" y="-179" type="curve" smooth="yes"/>
      <point x="70" y="-193"/>
      <point x="75" y="-224"/>
      <point x="110" y="-248" type="curve" smooth="yes"/>
      <point x="144" y="-272"/>
      <point x="198" y="-284"/>
      <point x="266" y="-284" type="curve" smooth="yes"/>
      <point x="567" y="-284" type="line"/>
      <point x="599" y="-245"/>
      <point x="616" y="-221"/>
      <point x="632" y="-186" type="curve"/>
      <point x="244" y="-186" type="line"/>
      <point x="196" y="-186"/>
      <point x="136" y="-183"/>
      <point x="136" y="-138" type="curve" smooth="yes"/>
      <point x="136" y="-123"/>
      <point x="151" y="-106"/>
      <point x="170" y="-100" type="curve" smooth="yes"/>
      <point x="183" y="-95"/>
      <point x="201" y="-87"/>
      <point x="222" y="-76" type="curve" smooth="yes"/>
      <point x="249" y="-63"/>
      <point x="272" y="-49"/>
      <point x="291" y="-33" type="curve"/>
      <point x="303" y="-21"/>
      <point x="327" y="0"/>
      <point x="384" y="0" type="curve" smooth="yes"/>
      <point x="584" y="0" type="line"/>
    </contour>
    <contour>
      <point x="261" y="77" type="move" name="top"/>
    </contour>
    <contour>
      <point x="266" y="-304" type="move" name="bottom"/>
    </contour>
  </outline>
</glyph>
<glyph name="uniFBBA" format="1">
  <advance width="0"/>
  <unicode hex="FBBA"/>
  <outline>
    <contour>
      <point x="-79" y="632"/>
      <point x="-62" y="616"/>
      <point x="-43" y="594" type="curve"/>
      <point x="-24" y="611"/>
      <point x="-10" y="625"/>
      <point x="1" y="638" type="curve"/>
      <point x="16" y="625"/>
      <point x="30" y="611"/>
      <point x="44" y="594" type="curve"/>
      <point x="68" y="616"/>
      <point x="82" y="630"/>
      <point x="96" y="646" type="curve"/>
      <point x="85" y="662"/>
      <point x="66" y="682"/>
      <point x="47" y="696" type="curve"/>
      <point x="69" y="716"/>
      <point x="83" y="730"/>
      <point x="96" y="745" type="curve"/>
      <point x="84" y="763"/>
      <point x="61" y="786"/>
      <point x="40" y="800" type="curve"/>
      <point x="29" y="787"/>
      <point x="13" y="771"/>
      <point x="-1" y="757" type="curve"/>
      <point x="-14" y="772"/>
      <point x="-31" y="790"/>
      <point x="-47" y="800" type="curve"/>
      <point x="-61" y="785"/>
      <point x="-83" y="763"/>
      <point x="-99" y="747" type="curve"/>
      <point x="-81" y="733"/>
      <point x="-65" y="718"/>
      <point x="-49" y="699" type="curve"/>
      <point x="-63" y="684"/>
      <point x="-84" y="663"/>
      <point x="-99" y="648" type="curve"/>
    </contour>
    <contour>
      <point x="-22" y="712"/>
      <point x="-9" y="725"/>
      <point x="1" y="737" type="curve"/>
      <point x="14" y="726"/>
      <point x="27" y="714"/>
      <point x="39" y="699" type="curve"/>
      <point x="28" y="687"/>
      <point x="13" y="671"/>
      <point x="-1" y="658" type="curve"/>
      <point x="-12" y="671"/>
      <point x="-26" y="686"/>
      <point x="-39" y="696" type="curve"/>
    </contour>
    <contour>
      <point x="-2" y="800" type="move" name="top"/>
    </contour>
    <contour>
      <point x="-2" y="574" type="move" name="_top"/>
    </contour>
  </outline>
</glyph>
<glyph name="twodotsverticalabove-ar" format="1">
  <advance width="0"/>
  <unicode hex="FBBD"/>
  <outline>
    <contour>
      <point x="32" y="818"/>
      <point x="43" y="831"/>
      <point x="56" y="845" type="curve"/>
      <point x="44" y="863"/>
      <point x="21" y="886"/>
      <point x="1" y="900" type="curve"/>
      <point x="-13" y="885"/>
      <point x="-35" y="863"/>
      <point x="-51" y="848" type="curve"/>
      <point x="-35" y="834"/>
      <point x="-20" y="820"/>
      <point x="-5" y="804" type="curve"/>
      <point x="-19" y="789"/>
      <point x="-37" y="771"/>
      <point x="-51" y="757" type="curve"/>
      <point x="-31" y="741"/>
      <point x="-14" y="725"/>
      <point x="4" y="703" type="curve"/>
      <point x="28" y="725"/>
      <point x="42" y="739"/>
      <point x="56" y="755" type="curve"/>
      <point x="47" y="770"/>
      <point x="31" y="787"/>
      <point x="13" y="801" type="curve"/>
    </contour>
    <contour>
      <point x="3" y="900" type="move" name="top"/>
    </contour>
    <contour>
      <point x="3" y="683" type="move" name="_top"/>
    </contour>
  </outline>
</glyph>
<glyph name="twodotsverticalbelow-ar" format="1">
  <advance width="0"/>
  <unicode hex="FBBE"/>
  <outline>
    <contour>
      <point x="32" y="-170"/>
      <point x="43" y="-157"/>
      <point x="56" y="-143" type="curve"/>
      <point x="44" y="-125"/>
      <point x="21" y="-102"/>
      <point x="1" y="-88" type="curve"/>
      <point x="-13" y="-103"/>
      <point x="-35" y="-125"/>
      <point x="-51" y="-140" type="curve"/>
      <point x="-35" y="-154"/>
      <point x="-20" y="-168"/>
      <point x="-5" y="-184" type="curve"/>
      <point x="-19" y="-199"/>
      <point x="-37" y="-217"/>
      <point x="-51" y="-231" type="curve"/>
      <point x="-31" y="-247"/>
      <point x="-14" y="-263"/>
      <point x="4" y="-285" type="curve"/>
      <point x="28" y="-263"/>
      <point x="42" y="-249"/>
      <point x="56" y="-233" type="curve"/>
      <point x="47" y="-218"/>
      <point x="31" y="-201"/>
      <point x="13" y="-187" type="curve"/>
    </contour>
    <contour>
      <point x="3" y="-68" type="move" name="_bottom"/>
    </contour>
    <contour>
      <point x="3" y="-285" type="move" name="bottom"/>
    </contour>
  </outline>
</glyph>
<glyph name="uniFC18" format="1">
  <advance width="687"/>
  <unicode hex="FC18"/>
  <outline>
    <contour>
      <point x="519" y="289"/>
      <point x="465" y="316"/>
      <point x="421" y="338" type="curve" smooth="yes"/>
      <point x="390" y="354"/>
      <point x="358" y="370"/>
      <point x="322" y="370" type="curve" smooth="yes"/>
      <point x="305" y="370"/>
      <point x="288" y="366"/>
      <point x="273" y="358" type="curve" smooth="yes"/>
      <point x="251" y="346"/>
      <point x="230" y="324"/>
      <point x="213" y="293" type="curve"/>
      <point x="224" y="276" type="line"/>
      <point x="245" y="298"/>
      <point x="264" y="306"/>
      <point x="295" y="306" type="curve" smooth="yes"/>
      <point x="326" y="306"/>
      <point x="364" y="290"/>
      <point x="403" y="269" type="curve"/>
      <point x="360" y="269"/>
      <point x="321" y="263"/>
      <point x="287" y="250" type="curve" smooth="yes"/>
      <point x="248" y="236"/>
      <point x="214" y="213"/>
      <point x="185" y="179" type="curve"/>
      <point x="175" y="160"/>
      <point x="165" y="140"/>
      <point x="162" y="120" type="curve"/>
      <point x="123" y="112"/>
      <point x="95" y="93"/>
      <point x="78" y="65" type="curve" smooth="yes"/>
      <point x="60" y="35"/>
      <point x="54" y="-6"/>
      <point x="60" y="-54" type="curve" smooth="yes"/>
      <point x="70" y="-133"/>
      <point x="75" y="-172"/>
      <point x="81" y="-203" type="curve" smooth="yes"/>
      <point x="94" y="-295"/>
      <point x="99" y="-331"/>
      <point x="103" y="-360" type="curve"/>
      <point x="135" y="-351" type="line"/>
      <point x="133" y="-271"/>
      <point x="129" y="-221"/>
      <point x="122" y="-161" type="curve" smooth="yes"/>
      <point x="120" y="-133"/>
      <point x="107" y="-26"/>
      <point x="99" y="23" type="curve" smooth="yes"/>
      <point x="108" y="43"/>
      <point x="164" y="57"/>
      <point x="222" y="53" type="curve" smooth="yes"/>
      <point x="262" y="50"/>
      <point x="291" y="43"/>
      <point x="317" y="36" type="curve"/>
      <point x="340" y="68"/>
      <point x="350" y="97"/>
      <point x="357" y="117" type="curve"/>
      <point x="315" y="160"/>
      <point x="258" y="166"/>
      <point x="237" y="170" type="curve"/>
      <point x="260" y="185"/>
      <point x="320" y="216"/>
      <point x="431" y="216" type="curve" smooth="yes"/>
      <point x="480" y="216"/>
      <point x="529" y="212"/>
      <point x="576" y="199" type="curve"/>
      <point x="601" y="223"/>
      <point x="613" y="244"/>
      <point x="627" y="272" type="curve"/>
    </contour>
    <contour>
      <point x="344" y="0" type="move" name="caret_1"/>
    </contour>
    <contour>
      <point x="397" y="9" type="move" name="bottom_1"/>
    </contour>
    <contour>
      <point x="342" y="400" type="move" name="top_1"/>
    </contour>
    <contour>
      <point x="88" y="240" type="move" name="top_2"/>
    </contour>
    <contour>
      <point x="118" y="-386" type="move" name="bottom_2"/>
    </contour>
  </outline>
</glyph>
<glyph name="uniFC2A" format="1">
  <advance width="600"/>
  <unicode hex="FC2A"/>
  <outline>
    <contour>
      <point x="504" y="330"/>
      <point x="448" y="315"/>
      <point x="378" y="293" type="curve"/>
      <point x="329" y="319"/>
      <point x="297" y="349"/>
      <point x="291" y="403" type="curve"/>
      <point x="323" y="426"/>
      <point x="352" y="438"/>
      <point x="397" y="438" type="curve" smooth="yes"/>
      <point x="440" y="438"/>
      <point x="472" y="427"/>
      <point x="484" y="422" type="curve"/>
      <point x="503" y="440" type="line"/>
      <point x="491" y="457"/>
      <point x="442" y="503"/>
      <point x="391" y="503" type="curve" smooth="yes"/>
      <point x="360" y="503"/>
      <point x="323" y="486"/>
      <point x="293" y="459" type="curve" smooth="yes"/>
      <point x="260" y="429"/>
      <point x="240" y="390"/>
      <point x="240" y="347" type="curve" smooth="yes"/>
      <point x="240" y="308"/>
      <point x="256" y="286"/>
      <point x="292" y="257" type="curve"/>
      <point x="256" y="242"/>
      <point x="226" y="222"/>
      <point x="200" y="191" type="curve" smooth="yes"/>
      <point x="178" y="164"/>
      <point x="161" y="135"/>
      <point x="158" y="112" type="curve"/>
      <point x="116" y="95"/>
      <point x="92" y="74"/>
      <point x="72" y="35" type="curve" smooth="yes"/>
      <point x="57" y="7"/>
      <point x="52" y="-14"/>
      <point x="60" y="-74" type="curve"/>
      <point x="70" y="-153"/>
      <point x="75" y="-192"/>
      <point x="81" y="-224" type="curve" smooth="yes"/>
      <point x="94" y="-315"/>
      <point x="99" y="-351"/>
      <point x="103" y="-380" type="curve"/>
      <point x="135" y="-371" type="line"/>
      <point x="133" y="-291"/>
      <point x="129" y="-241"/>
      <point x="122" y="-181" type="curve" smooth="yes"/>
      <point x="120" y="-153"/>
      <point x="107" y="-47"/>
      <point x="99" y="3" type="curve"/>
      <point x="108" y="23"/>
      <point x="160" y="35"/>
      <point x="222" y="35" type="curve" smooth="yes"/>
      <point x="262" y="35"/>
      <point x="291" y="28"/>
      <point x="317" y="20" type="curve"/>
      <point x="340" y="52"/>
      <point x="353" y="83"/>
      <point x="360" y="102" type="curve"/>
      <point x="320" y="137"/>
      <point x="270" y="149"/>
      <point x="247" y="154" type="curve"/>
      <point x="302" y="217"/>
      <point x="442" y="251"/>
      <point x="511" y="269" type="curve"/>
      <point x="522" y="290"/>
      <point x="531" y="309"/>
      <point x="540" y="335" type="curve"/>
    </contour>
    <contour>
      <point x="308" y="2" type="move" name="caret_1"/>
    </contour>
    <contour>
      <point x="307" y="-25" type="move" name="bottom_1"/>
    </contour>
    <contour>
      <point x="391" y="533" type="move" name="top_1"/>
    </contour>
    <contour>
      <point x="113" y="224" type="move" name="top_2"/>
    </contour>
    <contour>
      <point x="118" y="-405" type="move" name="bottom_2"/>
    </contour>
  </outline>
</glyph>
<glyph name="uniFC43" format="1">
  <advance width="650"/>
  <unicode hex="FC43"/>
  <outline>
    <contour>
      <point x="515" y="514"/>
      <point x="495" y="539"/>
      <point x="483" y="568" type="curve"/>
      <point x="425" y="492" type="line"/>
      <point x="441" y="451"/>
      <point x="460" y="372"/>
      <point x="470" y="320" type="curve" smooth="yes"/>
      <point x="480" y="268"/>
      <point x="495" y="168"/>
      <point x="498" y="111" type="curve"/>
      <point x="490" y="90"/>
      <point x="427" y="56"/>
      <point x="389" y="56" type="curve"/>
      <point x="385" y="41"/>
      <point x="382" y="21"/>
      <point x="379" y="-4" type="curve"/>
      <point x="399" y="-6"/>
      <point x="429" y="-11"/>
      <point x="463" y="-20" type="curve" smooth="yes"/>
      <point x="509" y="-32"/>
      <point x="533" y="-49"/>
      <point x="533" y="-67" type="curve" smooth="yes"/>
      <point x="533" y="-93"/>
      <point x="494" y="-119"/>
      <point x="464" y="-132" type="curve" smooth="yes"/>
      <point x="432" y="-146"/>
      <point x="373" y="-168"/>
      <point x="290" y="-168" type="curve" smooth="yes"/>
      <point x="212" y="-168"/>
      <point x="160" y="-149"/>
      <point x="132" y="-114" type="curve" smooth="yes"/>
      <point x="105" y="-81"/>
      <point x="109" y="-29"/>
      <point x="119" y="29" type="curve"/>
      <point x="100" y="36" type="line"/>
      <point x="84" y="-5"/>
      <point x="74" y="-53"/>
      <point x="71" y="-87" type="curve" smooth="yes"/>
      <point x="68" y="-121"/>
      <point x="72" y="-149"/>
      <point x="83" y="-175" type="curve" smooth="yes"/>
      <point x="98" y="-211"/>
      <point x="124" y="-237"/>
      <point x="160" y="-255" type="curve" smooth="yes"/>
      <point x="196" y="-273"/>
      <point x="237" y="-281"/>
      <point x="282" y="-281" type="curve" smooth="yes"/>
      <point x="343" y="-281"/>
      <point x="404" y="-266"/>
      <point x="457" y="-238" type="curve" smooth="yes"/>
      <point x="489" y="-221"/>
      <point x="527" y="-193"/>
      <point x="550" y="-166" type="curve" smooth="yes"/>
      <point x="573" y="-139"/>
      <point x="590" y="-104"/>
      <point x="590" y="-68" type="curve" smooth="yes"/>
      <point x="590" y="-13"/>
      <point x="551" y="16"/>
      <point x="506" y="27" type="curve"/>
      <point x="527" y="42"/>
      <point x="551" y="88"/>
      <point x="546" y="157" type="curve"/>
      <point x="545" y="196"/>
      <point x="531" y="292"/>
      <point x="527" y="322" type="curve" smooth="yes"/>
      <point x="524" y="348"/>
      <point x="519" y="385"/>
      <point x="517" y="399" type="curve"/>
      <point x="514" y="441"/>
      <point x="520" y="463"/>
      <point x="543" y="483" type="curve"/>
    </contour>
    <contour>
      <point x="325" y="0" type="move" name="caret_1"/>
    </contour>
    <contour>
      <point x="498" y="-300" type="move" name="bottom_1"/>
    </contour>
    <contour>
      <point x="436" y="588" type="move" name="top_1"/>
    </contour>
    <contour>
      <point x="241" y="30" type="move" name="top_2"/>
    </contour>
    <contour>
      <point x="282" y="-311" type="move" name="bottom_2"/>
    </contour>
  </outline>
</glyph>
<glyph name="uniFC49" format="1">
  <advance width="793"/>
  <unicode hex="FC49"/>
  <outline>
    <contour>
      <point x="714" y="246"/>
      <point x="695" y="256"/>
      <point x="668" y="264" type="curve" smooth="yes"/>
      <point x="644" y="271"/>
      <point x="629" y="272"/>
      <point x="610" y="279" type="curve"/>
      <point x="601" y="268"/>
      <point x="592" y="243"/>
      <point x="588" y="229" type="curve" smooth="yes"/>
      <point x="579" y="197"/>
      <point x="581" y="175"/>
      <point x="594" y="155" type="curve"/>
      <point x="561" y="139"/>
      <point x="527" y="118"/>
      <point x="500" y="96" type="curve" smooth="yes"/>
      <point x="473" y="74"/>
      <point x="452" y="50"/>
      <point x="448" y="30" type="curve"/>
      <point x="445" y="18"/>
      <point x="442" y="2"/>
      <point x="440" y="-12" type="curve"/>
      <point x="517" y="-23"/>
      <point x="543" y="-49"/>
      <point x="543" y="-67" type="curve" smooth="yes"/>
      <point x="543" y="-94"/>
      <point x="491" y="-120"/>
      <point x="464" y="-132" type="curve" smooth="yes"/>
      <point x="432" y="-146"/>
      <point x="373" y="-168"/>
      <point x="290" y="-168" type="curve" smooth="yes"/>
      <point x="212" y="-168"/>
      <point x="160" y="-149"/>
      <point x="132" y="-114" type="curve" smooth="yes"/>
      <point x="105" y="-81"/>
      <point x="109" y="-15"/>
      <point x="119" y="29" type="curve"/>
      <point x="100" y="36" type="line"/>
      <point x="83" y="-8"/>
      <point x="74" y="-53"/>
      <point x="71" y="-87" type="curve" smooth="yes"/>
      <point x="68" y="-121"/>
      <point x="72" y="-149"/>
      <point x="83" y="-175" type="curve" smooth="yes"/>
      <point x="98" y="-211"/>
      <point x="124" y="-237"/>
      <point x="160" y="-255" type="curve" smooth="yes"/>
      <point x="196" y="-273"/>
      <point x="237" y="-281"/>
      <point x="282" y="-281" type="curve" smooth="yes"/>
      <point x="343" y="-281"/>
      <point x="404" y="-266"/>
      <point x="457" y="-238" type="curve" smooth="yes"/>
      <point x="489" y="-221"/>
      <point x="529" y="-193"/>
      <point x="552" y="-166" type="curve" smooth="yes"/>
      <point x="575" y="-139"/>
      <point x="592" y="-104"/>
      <point x="592" y="-67" type="curve" smooth="yes"/>
      <point x="592" y="-2"/>
      <point x="540" y="22"/>
      <point x="502" y="32" type="curve"/>
      <point x="525" y="55"/>
      <point x="599" y="118"/>
      <point x="679" y="124" type="curve"/>
      <point x="711" y="125"/>
      <point x="725" y="130"/>
      <point x="729" y="168" type="curve" smooth="yes"/>
      <point x="733" y="203"/>
      <point x="735" y="221"/>
      <point x="724" y="234" type="curve" smooth="yes"/>
    </contour>
    <contour>
      <point x="397" y="0" type="move" name="caret_1"/>
    </contour>
    <contour>
      <point x="629" y="-200" type="move" name="bottom_1"/>
    </contour>
    <contour>
      <point x="610" y="309" type="move" name="top_1"/>
    </contour>
    <contour>
      <point x="262" y="34" type="move" name="top_2"/>
    </contour>
    <contour>
      <point x="282" y="-311" type="move" name="bottom_2"/>
    </contour>
  </outline>
</glyph>
<glyph name="uniFCB3" format="1">
  <advance width="786"/>
  <unicode hex="FCB3"/>
  <outline>
    <contour>
      <point x="726" y="356"/>
      <point x="720" y="385"/>
      <point x="690" y="408" type="curve" smooth="yes"/>
      <point x="671" y="423"/>
      <point x="642" y="435"/>
      <point x="617" y="435" type="curve" smooth="yes"/>
      <point x="558" y="435"/>
      <point x="486" y="370"/>
      <point x="450" y="332" type="curve" smooth="yes"/>
      <point x="401" y="280"/>
      <point x="368" y="225"/>
      <point x="359" y="213" type="curve"/>
      <point x="331" y="216"/>
      <point x="309" y="242"/>
      <point x="292" y="269" type="curve" smooth="yes"/>
      <point x="282" y="284"/>
      <point x="269" y="303"/>
      <point x="240" y="303" type="curve" smooth="yes"/>
      <point x="213" y="303"/>
      <point x="188" y="287"/>
      <point x="166" y="266" type="curve" smooth="yes"/>
      <point x="153" y="253"/>
      <point x="141" y="239"/>
      <point x="131" y="225" type="curve" smooth="yes"/>
      <point x="112" y="199"/>
      <point x="102" y="174"/>
      <point x="98" y="151" type="curve" smooth="yes"/>
      <point x="95" y="135"/>
      <point x="95" y="118"/>
      <point x="98" y="100" type="curve"/>
      <point x="81" y="94"/>
      <point x="43" y="96"/>
      <point x="9" y="98" type="curve"/>
      <point x="-20" y="98" type="line" smooth="yes"/>
      <point x="-55" y="98"/>
      <point x="-70" y="74"/>
      <point x="-70" y="48" type="curve" smooth="yes"/>
      <point x="-70" y="16"/>
      <point x="-47" y="0"/>
      <point x="-20" y="0" type="curve" smooth="yes"/>
      <point x="5" y="0" type="line" smooth="yes"/>
      <point x="71" y="0"/>
      <point x="79" y="10"/>
      <point x="126" y="10" type="curve" smooth="yes"/>
      <point x="146" y="10"/>
      <point x="189" y="5"/>
      <point x="224" y="-14" type="curve"/>
      <point x="236" y="15"/>
      <point x="247" y="65"/>
      <point x="245" y="97" type="curve"/>
      <point x="223" y="103"/>
      <point x="157" y="115"/>
      <point x="157" y="152" type="curve" smooth="yes"/>
      <point x="157" y="179"/>
      <point x="175" y="221"/>
      <point x="229" y="221" type="curve" smooth="yes"/>
      <point x="261" y="221"/>
      <point x="276" y="201"/>
      <point x="292" y="179" type="curve" smooth="yes"/>
      <point x="302" y="165"/>
      <point x="314" y="149"/>
      <point x="331" y="137" type="curve" smooth="yes"/>
      <point x="349" y="125"/>
      <point x="375" y="118"/>
      <point x="417" y="118" type="curve" smooth="yes"/>
      <point x="502" y="118"/>
      <point x="580" y="145"/>
      <point x="633" y="186" type="curve" smooth="yes"/>
      <point x="659" y="206"/>
      <point x="685" y="234"/>
      <point x="700" y="259" type="curve" smooth="yes"/>
      <point x="717" y="287"/>
      <point x="726" y="319"/>
      <point x="726" y="339" type="curve" smooth="yes"/>
    </contour>
    <contour>
      <point x="657" y="259"/>
      <point x="638" y="243"/>
      <point x="606" y="230" type="curve" smooth="yes"/>
      <point x="582" y="220"/>
      <point x="550" y="212"/>
      <point x="510" y="212" type="curve" smooth="yes"/>
      <point x="395" y="212" type="line"/>
      <point x="414" y="239"/>
      <point x="443" y="275"/>
      <point x="464" y="297" type="curve" smooth="yes"/>
      <point x="504" y="339"/>
      <point x="542" y="360"/>
      <point x="578" y="360" type="curve" smooth="yes"/>
      <point x="616" y="360"/>
      <point x="642" y="336"/>
      <point x="654" y="322" type="curve" smooth="yes"/>
      <point x="664" y="310"/>
      <point x="668" y="300"/>
      <point x="674" y="279" type="curve"/>
    </contour>
    <contour>
      <point x="393" y="0" type="move" name="caret_1"/>
    </contour>
    <contour>
      <point x="445" y="78" type="move" name="bottom_1"/>
    </contour>
    <contour>
      <point x="597" y="465" type="move" name="top_1"/>
    </contour>
    <contour>
      <point x="128" y="313" type="move" name="top_2"/>
    </contour>
    <contour>
      <point x="128" y="-35" type="move" name="bottom_2"/>
    </contour>
  </outline>
</glyph>
<glyph name="uniFCBB" format="1">
  <advance width="536"/>
  <unicode hex="FCBB"/>
  <outline>
    <contour>
      <point x="443" y="312"/>
      <point x="387" y="297"/>
      <point x="317" y="275" type="curve"/>
      <point x="268" y="301"/>
      <point x="236" y="331"/>
      <point x="230" y="385" type="curve"/>
      <point x="262" y="408"/>
      <point x="291" y="420"/>
      <point x="336" y="420" type="curve" smooth="yes"/>
      <point x="379" y="420"/>
      <point x="411" y="409"/>
      <point x="423" y="404" type="curve"/>
      <point x="442" y="422" type="line"/>
      <point x="430" y="439"/>
      <point x="381" y="485"/>
      <point x="330" y="485" type="curve" smooth="yes"/>
      <point x="299" y="485"/>
      <point x="262" y="468"/>
      <point x="232" y="441" type="curve" smooth="yes"/>
      <point x="199" y="411"/>
      <point x="179" y="372"/>
      <point x="179" y="329" type="curve" smooth="yes"/>
      <point x="179" y="290"/>
      <point x="195" y="268"/>
      <point x="231" y="239" type="curve"/>
      <point x="181" y="222"/>
      <point x="132" y="196"/>
      <point x="92" y="140" type="curve"/>
      <point x="77" y="121"/>
      <point x="66" y="98"/>
      <point x="33" y="98" type="curve" smooth="yes"/>
      <point x="-22" y="98" type="line" smooth="yes"/>
      <point x="-47" y="98"/>
      <point x="-70" y="81"/>
      <point x="-70" y="49" type="curve" smooth="yes"/>
      <point x="-70" y="20"/>
      <point x="-51" y="0"/>
      <point x="-22" y="0" type="curve" smooth="yes"/>
      <point x="9" y="0" type="line" smooth="yes"/>
      <point x="50" y="0"/>
      <point x="76" y="10"/>
      <point x="90" y="48" type="curve"/>
      <point x="126" y="-2"/>
      <point x="229" y="-18"/>
      <point x="244" y="-12" type="curve"/>
      <point x="261" y="0"/>
      <point x="288" y="45"/>
      <point x="287" y="83" type="curve"/>
      <point x="287" y="120"/>
      <point x="271" y="156"/>
      <point x="240" y="176" type="curve"/>
      <point x="305" y="209"/>
      <point x="375" y="232"/>
      <point x="454" y="253" type="curve"/>
      <point x="465" y="274"/>
      <point x="470" y="291"/>
      <point x="479" y="317" type="curve"/>
    </contour>
    <contour>
      <point x="186" y="71"/>
      <point x="165" y="81"/>
      <point x="129" y="102" type="curve"/>
      <point x="136" y="118"/>
      <point x="155" y="142"/>
      <point x="182" y="142" type="curve" smooth="yes"/>
      <point x="216" y="142"/>
      <point x="244" y="106"/>
      <point x="233" y="60" type="curve"/>
    </contour>
    <contour>
      <point x="268" y="0" type="move" name="caret_1"/>
    </contour>
    <contour>
      <point x="271" y="-64" type="move" name="bottom_1"/>
    </contour>
    <contour>
      <point x="327" y="514" type="move" name="top_1"/>
    </contour>
    <contour>
      <point x="77" y="363" type="move" name="top_2"/>
    </contour>
    <contour>
      <point x="54" y="-25" type="move" name="bottom_2"/>
    </contour>
  </outline>
</glyph>
<glyph name="uniFCC7" format="1">
  <advance width="457"/>
  <unicode hex="FCC7"/>
  <outline>
    <contour>
      <point x="371" y="192"/>
      <point x="343" y="254"/>
      <point x="310" y="297" type="curve" smooth="yes"/>
      <point x="289" y="324"/>
      <point x="254" y="353"/>
      <point x="218" y="378" type="curve"/>
      <point x="295" y="421"/>
      <point x="371" y="457"/>
      <point x="420" y="480" type="curve"/>
      <point x="428" y="510"/>
      <point x="433" y="537"/>
      <point x="437" y="568" type="curve"/>
      <point x="365" y="534"/>
      <point x="212" y="460"/>
      <point x="138" y="392" type="curve"/>
      <point x="132" y="450"/>
      <point x="126" y="503"/>
      <point x="120" y="568" type="curve"/>
      <point x="97" y="547"/>
      <point x="80" y="529"/>
      <point x="59" y="497" type="curve"/>
      <point x="78" y="386"/>
      <point x="89" y="309"/>
      <point x="98" y="239" type="curve" smooth="yes"/>
      <point x="101" y="214"/>
      <point x="103" y="201"/>
      <point x="105" y="179" type="curve" smooth="yes"/>
      <point x="107" y="160"/>
      <point x="102" y="141"/>
      <point x="88" y="125" type="curve" smooth="yes"/>
      <point x="72" y="107"/>
      <point x="49" y="98"/>
      <point x="24" y="98" type="curve" smooth="yes"/>
      <point x="-21" y="98" type="line" smooth="yes"/>
      <point x="-48" y="98"/>
      <point x="-70" y="76"/>
      <point x="-70" y="49" type="curve" smooth="yes"/>
      <point x="-70" y="21"/>
      <point x="-46" y="0"/>
      <point x="-21" y="0" type="curve" smooth="yes"/>
      <point x="37" y="0" type="line" smooth="yes"/>
      <point x="99" y="0"/>
      <point x="140" y="26"/>
      <point x="143" y="82" type="curve"/>
      <point x="156" y="16"/>
      <point x="205" y="0"/>
      <point x="249" y="0" type="curve" smooth="yes"/>
      <point x="310" y="0"/>
      <point x="371" y="45"/>
      <point x="371" y="128" type="curve" smooth="yes"/>
    </contour>
    <contour>
      <point x="313" y="113"/>
      <point x="279" y="98"/>
      <point x="243" y="98" type="curve" smooth="yes"/>
      <point x="219" y="98"/>
      <point x="195" y="107"/>
      <point x="180" y="125" type="curve" smooth="yes"/>
      <point x="169" y="139"/>
      <point x="163" y="162"/>
      <point x="161" y="178" type="curve" smooth="yes"/>
      <point x="155" y="231"/>
      <point x="149" y="278"/>
      <point x="144" y="324" type="curve"/>
      <point x="182" y="313"/>
      <point x="225" y="282"/>
      <point x="259" y="246" type="curve" smooth="yes"/>
      <point x="297" y="207"/>
      <point x="325" y="164"/>
      <point x="325" y="139" type="curve"/>
    </contour>
    <contour>
      <point x="209" y="0" type="move" name="caret_1"/>
    </contour>
    <contour>
      <point x="242" y="-25" type="move" name="bottom_1"/>
    </contour>
    <contour>
      <point x="315" y="557" type="move" name="top_1"/>
    </contour>
    <contour>
      <point x="45" y="558" type="move" name="top_2"/>
    </contour>
    <contour>
      <point x="29" y="-25" type="move" name="bottom_2"/>
    </contour>
  </outline>
</glyph>
<glyph name="uniFCCC" format="1">
  <advance width="337"/>
  <unicode hex="FCCC"/>
  <outline>
    <contour>
      <point x="37" y="492" type="line"/>
      <point x="55" y="450"/>
      <point x="70" y="373"/>
      <point x="81" y="320" type="curve" smooth="yes"/>
      <point x="94" y="258"/>
      <point x="100" y="157"/>
      <point x="122" y="114" type="curve"/>
      <point x="92" y="103"/>
      <point x="73" y="98"/>
      <point x="31" y="98" type="curve" smooth="yes"/>
      <point x="-21" y="98" type="line" smooth="yes"/>
      <point x="-56" y="98"/>
      <point x="-70" y="72"/>
      <point x="-70" y="48" type="curve" smooth="yes"/>
      <point x="-70" y="16"/>
      <point x="-46" y="0"/>
      <point x="-21" y="0" type="curve" smooth="yes"/>
      <point x="18" y="0" type="line" smooth="yes"/>
      <point x="61" y="0"/>
      <point x="88" y="14"/>
      <point x="135" y="14" type="curve" smooth="yes"/>
      <point x="167" y="14"/>
      <point x="204" y="2"/>
      <point x="243" y="-19" type="curve"/>
      <point x="255" y="11"/>
      <point x="263" y="87"/>
      <point x="260" y="119" type="curve"/>
      <point x="242" y="126"/>
      <point x="212" y="137"/>
      <point x="196" y="147" type="curve" smooth="yes"/>
      <point x="159" y="171"/>
      <point x="154" y="179"/>
      <point x="139" y="302" type="curve" smooth="yes"/>
      <point x="135" y="337"/>
      <point x="130" y="392"/>
      <point x="129" y="399" type="curve" smooth="yes"/>
      <point x="125" y="437"/>
      <point x="133" y="465"/>
      <point x="155" y="483" type="curve"/>
      <point x="127" y="514"/>
      <point x="107" y="539"/>
      <point x="95" y="568" type="curve"/>
    </contour>
    <contour>
      <point x="159" y="0" type="move" name="caret_1"/>
    </contour>
    <contour>
      <point x="209" y="-172" type="move" name="bottom_1"/>
    </contour>
    <contour>
      <point x="230" y="568" type="move" name="top_1"/>
    </contour>
    <contour>
      <point x="7" y="568" type="move" name="top_2"/>
    </contour>
    <contour>
      <point x="63" y="-33" type="move" name="bottom_2"/>
    </contour>
  </outline>
</glyph>
<glyph name="uniFCD1" format="1">
  <advance width="358"/>
  <unicode hex="FCD1"/>
  <outline>
    <contour>
      <point x="319" y="373"/>
      <point x="321" y="404"/>
      <point x="313" y="419" type="curve" smooth="yes"/>
      <point x="305" y="433"/>
      <point x="286" y="444"/>
      <point x="254" y="454" type="curve" smooth="yes"/>
      <point x="238" y="459"/>
      <point x="220" y="462"/>
      <point x="197" y="470" type="curve"/>
      <point x="189" y="460"/>
      <point x="180" y="440"/>
      <point x="175" y="420" type="curve" smooth="yes"/>
      <point x="167" y="387"/>
      <point x="169" y="372"/>
      <point x="180" y="347" type="curve"/>
      <point x="145" y="333"/>
      <point x="130" y="324"/>
      <point x="105" y="306" type="curve" smooth="yes"/>
      <point x="76" y="284"/>
      <point x="51" y="244"/>
      <point x="51" y="197" type="curve" smooth="yes"/>
      <point x="51" y="167"/>
      <point x="63" y="149"/>
      <point x="85" y="122" type="curve" smooth="yes"/>
      <point x="85" y="122"/>
      <point x="83" y="98"/>
      <point x="13" y="98" type="curve" smooth="yes"/>
      <point x="-21" y="98" type="line" smooth="yes"/>
      <point x="-60" y="98"/>
      <point x="-70" y="62"/>
      <point x="-70" y="50" type="curve" smooth="yes"/>
      <point x="-70" y="22"/>
      <point x="-48" y="0"/>
      <point x="-21" y="0" type="curve" smooth="yes"/>
      <point x="4" y="0" type="line" smooth="yes"/>
      <point x="61" y="0"/>
      <point x="89" y="15"/>
      <point x="121" y="15" type="curve" smooth="yes"/>
      <point x="159" y="15"/>
      <point x="192" y="1"/>
      <point x="224" y="-16" type="curve"/>
      <point x="236" y="14"/>
      <point x="244" y="83"/>
      <point x="241" y="115" type="curve"/>
      <point x="220" y="129"/>
      <point x="195" y="143"/>
      <point x="165" y="160" type="curve" smooth="yes"/>
      <point x="125" y="183"/>
      <point x="109" y="200"/>
      <point x="109" y="210" type="curve"/>
      <point x="119" y="233"/>
      <point x="142" y="262"/>
      <point x="209" y="289" type="curve" smooth="yes"/>
      <point x="240" y="302"/>
      <point x="273" y="314"/>
      <point x="305" y="321" type="curve"/>
    </contour>
    <contour>
      <point x="179" y="0" type="move" name="caret_1"/>
    </contour>
    <contour>
      <point x="242" y="-90" type="move" name="bottom_1"/>
    </contour>
    <contour>
      <point x="257" y="503" type="move" name="top_1"/>
    </contour>
    <contour>
      <point x="45" y="353" type="move" name="top_2"/>
    </contour>
    <contour>
      <point x="42" y="-52" type="move" name="bottom_2"/>
    </contour>
  </outline>
</glyph>
<glyph name="uniFD0F" format="1">
  <advance width="837"/>
  <unicode hex="FD0F"/>
  <outline>
    <contour>
      <point x="777" y="243"/>
      <point x="771" y="272"/>
      <point x="741" y="295" type="curve" smooth="yes"/>
      <point x="722" y="310"/>
      <point x="693" y="322"/>
      <point x="668" y="322" type="curve" smooth="yes"/>
      <point x="609" y="322"/>
      <point x="537" y="257"/>
      <point x="501" y="219" type="curve" smooth="yes"/>
      <point x="453" y="168"/>
      <point x="416" y="109"/>
      <point x="410" y="98" type="curve"/>
      <point x="387" y="101"/>
      <point x="361" y="119"/>
      <point x="353" y="146" type="curve"/>
      <point x="297" y="125"/>
      <point x="232" y="110"/>
      <point x="186" y="100" type="curve"/>
      <point x="185" y="91"/>
      <point x="182" y="66"/>
      <point x="174" y="27" type="curve"/>
      <point x="182" y="28"/>
      <point x="193" y="30"/>
      <point x="200" y="32" type="curve"/>
      <point x="202" y="21"/>
      <point x="204" y="10"/>
      <point x="204" y="-3" type="curve" smooth="yes"/>
      <point x="204" y="-40"/>
      <point x="188" y="-76"/>
      <point x="160" y="-103" type="curve" smooth="yes"/>
      <point x="114" y="-149"/>
      <point x="-9" y="-211"/>
      <point x="-60" y="-239" type="curve"/>
      <point x="-51" y="-252" type="line"/>
      <point x="-30" y="-246"/>
      <point x="-12" y="-244"/>
      <point x="3" y="-244" type="curve" smooth="yes"/>
      <point x="25" y="-244"/>
      <point x="57" y="-248"/>
      <point x="79" y="-248" type="curve" smooth="yes"/>
      <point x="119" y="-248"/>
      <point x="140" y="-235"/>
      <point x="161" y="-215" type="curve" smooth="yes"/>
      <point x="182" y="-195"/>
      <point x="202" y="-167"/>
      <point x="218" y="-130" type="curve" smooth="yes"/>
      <point x="251" y="-55"/>
      <point x="248" y="15"/>
      <point x="245" y="41" type="curve"/>
      <point x="275" y="48"/>
      <point x="308" y="56"/>
      <point x="335" y="65" type="curve"/>
      <point x="343" y="43"/>
      <point x="358" y="26"/>
      <point x="383" y="18" type="curve"/>
      <point x="375" y="-16" type="line"/>
      <point x="403" y="-16" type="line"/>
      <point x="411" y="10" type="line"/>
      <point x="432" y="6"/>
      <point x="441" y="5"/>
      <point x="460" y="5" type="curve" smooth="yes"/>
      <point x="557" y="5"/>
      <point x="631" y="32"/>
      <point x="684" y="73" type="curve" smooth="yes"/>
      <point x="712" y="95"/>
      <point x="735" y="120"/>
      <point x="751" y="146" type="curve" smooth="yes"/>
      <point x="768" y="174"/>
      <point x="777" y="206"/>
      <point x="777" y="226" type="curve" smooth="yes"/>
    </contour>
    <contour>
      <point x="708" y="146"/>
      <point x="689" y="130"/>
      <point x="657" y="117" type="curve" smooth="yes"/>
      <point x="633" y="107"/>
      <point x="601" y="99"/>
      <point x="561" y="99" type="curve" smooth="yes"/>
      <point x="446" y="99" type="line"/>
      <point x="465" y="126"/>
      <point x="495" y="163"/>
      <point x="515" y="184" type="curve" smooth="yes"/>
      <point x="555" y="226"/>
      <point x="593" y="247"/>
      <point x="629" y="247" type="curve" smooth="yes"/>
      <point x="667" y="247"/>
      <point x="693" y="223"/>
      <point x="705" y="209" type="curve" smooth="yes"/>
      <point x="715" y="197"/>
      <point x="719" y="187"/>
      <point x="725" y="166" type="curve"/>
    </contour>
    <contour>
      <point x="449" y="0" type="move" name="caret_1"/>
    </contour>
    <contour>
      <point x="536" y="-35" type="move" name="bottom_1"/>
    </contour>
    <contour>
      <point x="658" y="352" type="move" name="top_1"/>
    </contour>
    <contour>
      <point x="43" y="-276" type="move" name="bottom_2"/>
    </contour>
    <contour>
      <point x="155" y="146" type="move" name="top_2"/>
    </contour>
    <contour>
      <point x="87" y="-62" type="move" name="center"/>
    </contour>
  </outline>
</glyph>
<glyph name="uniFD13" format="1">
  <advance width="825"/>
  <unicode hex="FD13"/>
  <outline>
    <contour>
      <point x="707" y="98" type="line" smooth="yes"/>
      <point x="682" y="98"/>
      <point x="668" y="104"/>
      <point x="651" y="118" type="curve"/>
      <point x="651" y="118"/>
      <point x="718" y="159"/>
      <point x="718" y="202" type="curve" smooth="yes"/>
      <point x="718" y="247"/>
      <point x="659" y="263"/>
      <point x="604" y="263" type="curve" smooth="yes"/>
      <point x="559" y="263"/>
      <point x="519" y="242"/>
      <point x="509" y="237" type="curve"/>
      <point x="501" y="216"/>
      <point x="495" y="191"/>
      <point x="492" y="165" type="curve"/>
      <point x="526" y="159"/>
      <point x="549" y="143"/>
      <point x="569" y="115" type="curve"/>
      <point x="554" y="102"/>
      <point x="537" y="92"/>
      <point x="516" y="83" type="curve" smooth="yes"/>
      <point x="498" y="74"/>
      <point x="476" y="66"/>
      <point x="451" y="57" type="curve" smooth="yes"/>
      <point x="433" y="51"/>
      <point x="434" y="31"/>
      <point x="426" y="-6" type="curve"/>
      <point x="443" y="-9"/>
      <point x="470" y="-17"/>
      <point x="487" y="-23" type="curve" smooth="yes"/>
      <point x="525" y="-37"/>
      <point x="540" y="-53"/>
      <point x="540" y="-70" type="curve" smooth="yes"/>
      <point x="540" y="-95"/>
      <point x="504" y="-116"/>
      <point x="464" y="-133" type="curve"/>
      <point x="432" y="-148"/>
      <point x="369" y="-169"/>
      <point x="289" y="-169" type="curve" smooth="yes"/>
      <point x="224" y="-169"/>
      <point x="164" y="-155"/>
      <point x="132" y="-115" type="curve" smooth="yes"/>
      <point x="105" y="-82"/>
      <point x="109" y="-30"/>
      <point x="119" y="28" type="curve"/>
      <point x="100" y="35" type="line"/>
      <point x="91" y="12"/>
      <point x="76" y="-37"/>
      <point x="71" y="-81" type="curve" smooth="yes"/>
      <point x="68" y="-112"/>
      <point x="70" y="-146"/>
      <point x="83" y="-177" type="curve" smooth="yes"/>
      <point x="96" y="-208"/>
      <point x="120" y="-236"/>
      <point x="159" y="-256" type="curve" smooth="yes"/>
      <point x="192" y="-273"/>
      <point x="235" y="-282"/>
      <point x="281" y="-282" type="curve" smooth="yes"/>
      <point x="341" y="-282"/>
      <point x="404" y="-267"/>
      <point x="458" y="-239" type="curve" smooth="yes"/>
      <point x="495" y="-220"/>
      <point x="528" y="-195"/>
      <point x="552" y="-166" type="curve" smooth="yes"/>
      <point x="577" y="-135"/>
      <point x="592" y="-100"/>
      <point x="592" y="-61" type="curve" smooth="yes"/>
      <point x="592" y="-15"/>
      <point x="557" y="13"/>
      <point x="521" y="27" type="curve"/>
      <point x="553" y="41"/>
      <point x="574" y="56"/>
      <point x="596" y="73" type="curve"/>
      <point x="604" y="50"/>
      <point x="619" y="34"/>
      <point x="637" y="21" type="curve" smooth="yes"/>
      <point x="659" y="7"/>
      <point x="685" y="0"/>
      <point x="711" y="0" type="curve" smooth="yes"/>
      <point x="825" y="0" type="line"/>
      <point x="825" y="98" type="line"/>
    </contour>
    <contour>
      <point x="393" y="0" type="move" name="caret_1"/>
    </contour>
    <contour>
      <point x="559" y="-264" type="move" name="bottom_1"/>
    </contour>
    <contour>
      <point x="581" y="293" type="move" name="top_1"/>
    </contour>
    <contour>
      <point x="256" y="7" type="move" name="top_2"/>
    </contour>
    <contour>
      <point x="281" y="-312" type="move" name="bottom_2"/>
    </contour>
  </outline>
</glyph>
<glyph name="uniFD17" format="1">
  <advance width="1039"/>
  <unicode hex="FD17"/>
  <outline>
    <contour>
      <point x="1003" y="98" type="line" smooth="yes"/>
      <point x="975" y="98"/>
      <point x="957" y="105"/>
      <point x="944" y="120" type="curve" smooth="yes"/>
      <point x="926" y="140"/>
      <point x="928" y="167"/>
      <point x="930" y="190" type="curve"/>
      <point x="908" y="178" type="line"/>
      <point x="907" y="163"/>
      <point x="904" y="143"/>
      <point x="896" y="127" type="curve" smooth="yes"/>
      <point x="887" y="109"/>
      <point x="872" y="95"/>
      <point x="843" y="95" type="curve" smooth="yes"/>
      <point x="799" y="95"/>
      <point x="785" y="127"/>
      <point x="784" y="160" type="curve"/>
      <point x="783" y="172"/>
      <point x="784" y="183"/>
      <point x="785" y="190" type="curve"/>
      <point x="763" y="178" type="line"/>
      <point x="762" y="169"/>
      <point x="761" y="160"/>
      <point x="758" y="149" type="curve" smooth="yes"/>
      <point x="746" y="109"/>
      <point x="723" y="94"/>
      <point x="672" y="94" type="curve" smooth="yes"/>
      <point x="654" y="94"/>
      <point x="608" y="102"/>
      <point x="560" y="165" type="curve" smooth="yes"/>
      <point x="543" y="188"/>
      <point x="532" y="205"/>
      <point x="506" y="205" type="curve" smooth="yes"/>
      <point x="480" y="205"/>
      <point x="450" y="188"/>
      <point x="427" y="155" type="curve"/>
      <point x="410" y="133"/>
      <point x="394" y="102"/>
      <point x="380" y="66" type="curve" smooth="yes"/>
      <point x="366" y="30"/>
      <point x="364" y="3"/>
      <point x="374" y="-17" type="curve" smooth="yes"/>
      <point x="381" y="-31"/>
      <point x="399" y="-46"/>
      <point x="435" y="-56" type="curve" smooth="yes"/>
      <point x="461" y="-63"/>
      <point x="494" y="-67"/>
      <point x="534" y="-70" type="curve"/>
      <point x="524" y="-97"/>
      <point x="495" y="-126"/>
      <point x="447" y="-145" type="curve" smooth="yes"/>
      <point x="399" y="-164"/>
      <point x="339" y="-171"/>
      <point x="296" y="-171" type="curve" smooth="yes"/>
      <point x="241" y="-171"/>
      <point x="167" y="-160"/>
      <point x="133" y="-115" type="curve" smooth="yes"/>
      <point x="117" y="-94"/>
      <point x="111" y="-66"/>
      <point x="111" y="-36" type="curve" smooth="yes"/>
      <point x="110" y="-15"/>
      <point x="114" y="6"/>
      <point x="119" y="27" type="curve"/>
      <point x="100" y="36" type="line"/>
      <point x="72" y="-22"/>
      <point x="68" y="-83"/>
      <point x="70" y="-119" type="curve" smooth="yes"/>
      <point x="71" y="-142"/>
      <point x="80" y="-192"/>
      <point x="117" y="-228" type="curve" smooth="yes"/>
      <point x="149" y="-259"/>
      <point x="202" y="-283"/>
      <point x="283" y="-283" type="curve" smooth="yes"/>
      <point x="368" y="-283"/>
      <point x="445" y="-256"/>
      <point x="498" y="-214" type="curve" smooth="yes"/>
      <point x="525" y="-192"/>
      <point x="549" y="-166"/>
      <point x="566" y="-136" type="curve" smooth="yes"/>
      <point x="580" y="-110"/>
      <point x="588" y="-84"/>
      <point x="588" y="-61" type="curve" smooth="yes"/>
      <point x="588" y="-27"/>
      <point x="571" y="0"/>
      <point x="530" y="5" type="curve" smooth="yes"/>
      <point x="494" y="9"/>
      <point x="483" y="10"/>
      <point x="452" y="17" type="curve" smooth="yes"/>
      <point x="438" y="20"/>
      <point x="425" y="31"/>
      <point x="428" y="53" type="curve"/>
      <point x="429" y="67"/>
      <point x="448" y="115"/>
      <point x="491" y="115" type="curve" smooth="yes"/>
      <point x="520" y="115"/>
      <point x="545" y="94"/>
      <point x="564" y="68" type="curve" smooth="yes"/>
      <point x="580" y="47"/>
      <point x="593" y="31"/>
      <point x="614" y="18" type="curve" smooth="yes"/>
      <point x="630" y="8"/>
      <point x="650" y="2"/>
      <point x="675" y="2" type="curve" smooth="yes"/>
      <point x="732" y="2"/>
      <point x="761" y="35"/>
      <point x="769" y="75" type="curve"/>
      <point x="767" y="37"/>
      <point x="790" y="0"/>
      <point x="838" y="0" type="curve" smooth="yes"/>
      <point x="894" y="0"/>
      <point x="910" y="49"/>
      <point x="915" y="75" type="curve"/>
      <point x="915" y="33"/>
      <point x="943" y="0"/>
      <point x="1001" y="0" type="curve" smooth="yes"/>
      <point x="1039" y="0" type="line"/>
      <point x="1039" y="98" type="line"/>
    </contour>
    <contour>
      <point x="515" y="0" type="move" name="caret_1"/>
    </contour>
    <contour>
      <point x="760" y="-25" type="move" name="bottom_1"/>
    </contour>
    <contour>
      <point x="768" y="230" type="move" name="top_1"/>
    </contour>
    <contour>
      <point x="218" y="25" type="move" name="top_2"/>
    </contour>
    <contour>
      <point x="283" y="-313" type="move" name="bottom_2"/>
    </contour>
  </outline>
</glyph>
<glyph name="uniFD21" format="1">
  <advance width="1168"/>
  <unicode hex="FD21"/>
  <outline>
    <contour>
      <point x="1074" y="98" type="line" smooth="yes"/>
      <point x="1028" y="98"/>
      <point x="971" y="80"/>
      <point x="952" y="73" type="curve"/>
      <point x="966" y="83"/>
      <point x="977" y="93"/>
      <point x="989" y="107" type="curve" smooth="yes"/>
      <point x="1020" y="143"/>
      <point x="1044" y="185"/>
      <point x="1044" y="222" type="curve" smooth="yes"/>
      <point x="1044" y="229"/>
      <point x="1043" y="268"/>
      <point x="1008" y="295" type="curve" smooth="yes"/>
      <point x="990" y="309"/>
      <point x="962" y="320"/>
      <point x="935" y="320" type="curve" smooth="yes"/>
      <point x="906" y="320"/>
      <point x="880" y="308"/>
      <point x="853" y="291" type="curve" smooth="yes"/>
      <point x="815" y="267"/>
      <point x="781" y="232"/>
      <point x="768" y="218" type="curve" smooth="yes"/>
      <point x="719" y="165"/>
      <point x="680" y="103"/>
      <point x="677" y="98" type="curve"/>
      <point x="636" y="99"/>
      <point x="599" y="117"/>
      <point x="568" y="165" type="curve" smooth="yes"/>
      <point x="552" y="190"/>
      <point x="532" y="205"/>
      <point x="505" y="205" type="curve" smooth="yes"/>
      <point x="475" y="205"/>
      <point x="454" y="186"/>
      <point x="431" y="154" type="curve" smooth="yes"/>
      <point x="418" y="136"/>
      <point x="397" y="103"/>
      <point x="383" y="66" type="curve" smooth="yes"/>
      <point x="369" y="29"/>
      <point x="366" y="0"/>
      <point x="374" y="-17" type="curve" smooth="yes"/>
      <point x="382" y="-34"/>
      <point x="406" y="-48"/>
      <point x="435" y="-56" type="curve" smooth="yes"/>
      <point x="461" y="-63"/>
      <point x="494" y="-67"/>
      <point x="534" y="-70" type="curve"/>
      <point x="524" y="-97"/>
      <point x="495" y="-126"/>
      <point x="447" y="-145" type="curve" smooth="yes"/>
      <point x="399" y="-164"/>
      <point x="338" y="-171"/>
      <point x="295" y="-171" type="curve" smooth="yes"/>
      <point x="233" y="-171"/>
      <point x="164" y="-156"/>
      <point x="133" y="-116" type="curve" smooth="yes"/>
      <point x="116" y="-94"/>
      <point x="112" y="-66"/>
      <point x="112" y="-36" type="curve" smooth="yes"/>
      <point x="112" y="-21"/>
      <point x="113" y="0"/>
      <point x="119" y="27" type="curve"/>
      <point x="100" y="36" type="line"/>
      <point x="77" y="-17"/>
      <point x="68" y="-83"/>
      <point x="70" y="-119" type="curve" smooth="yes"/>
      <point x="71" y="-145"/>
      <point x="81" y="-193"/>
      <point x="117" y="-228" type="curve" smooth="yes"/>
      <point x="149" y="-259"/>
      <point x="202" y="-283"/>
      <point x="283" y="-283" type="curve" smooth="yes"/>
      <point x="369" y="-283"/>
      <point x="445" y="-256"/>
      <point x="498" y="-214" type="curve" smooth="yes"/>
      <point x="522" y="-195"/>
      <point x="550" y="-165"/>
      <point x="566" y="-136" type="curve" smooth="yes"/>
      <point x="580" y="-110"/>
      <point x="588" y="-84"/>
      <point x="588" y="-61" type="curve" smooth="yes"/>
      <point x="588" y="-27"/>
      <point x="571" y="0"/>
      <point x="530" y="5" type="curve" smooth="yes"/>
      <point x="494" y="9"/>
      <point x="483" y="10"/>
      <point x="452" y="17" type="curve" smooth="yes"/>
      <point x="438" y="20"/>
      <point x="425" y="31"/>
      <point x="428" y="53" type="curve"/>
      <point x="429" y="65"/>
      <point x="446" y="115"/>
      <point x="492" y="115" type="curve" smooth="yes"/>
      <point x="523" y="115"/>
      <point x="551" y="92"/>
      <point x="567" y="71" type="curve" smooth="yes"/>
      <point x="585" y="47"/>
      <point x="602" y="26"/>
      <point x="649" y="14" type="curve"/>
      <point x="642" y="-17" type="line"/>
      <point x="670" y="-17" type="line"/>
      <point x="678" y="9" type="line"/>
      <point x="701" y="4"/>
      <point x="725" y="4"/>
      <point x="763" y="4" type="curve" smooth="yes"/>
      <point x="795" y="4"/>
      <point x="948" y="2"/>
      <point x="989" y="1" type="curve" smooth="yes"/>
      <point x="1017" y="1"/>
      <point x="1038" y="0"/>
      <point x="1068" y="0" type="curve" smooth="yes"/>
      <point x="1168" y="0" type="line" smooth="yes"/>
      <point x="1168" y="98" type="line" smooth="yes"/>
    </contour>
    <contour>
      <point x="982" y="134"/>
      <point x="943" y="119"/>
      <point x="907" y="109" type="curve" smooth="yes"/>
      <point x="884" y="103"/>
      <point x="857" y="98"/>
      <point x="828" y="98" type="curve" smooth="yes"/>
      <point x="713" y="98" type="line" smooth="yes"/>
      <point x="713" y="98"/>
      <point x="743" y="144"/>
      <point x="783" y="184" type="curve" smooth="yes"/>
      <point x="821" y="222"/>
      <point x="857" y="246"/>
      <point x="898" y="246" type="curve" smooth="yes"/>
      <point x="942" y="246"/>
      <point x="982" y="218"/>
      <point x="982" y="176" type="curve" smooth="yes"/>
    </contour>
    <contour>
      <point x="559" y="0" type="move" name="caret_1"/>
    </contour>
    <contour>
      <point x="800" y="-26" type="move" name="bottom_1"/>
    </contour>
    <contour>
      <point x="915" y="350" type="move" name="top_1"/>
    </contour>
    <contour>
      <point x="219" y="20" type="move" name="top_2"/>
    </contour>
    <contour>
      <point x="283" y="-313" type="move" name="bottom_2"/>
    </contour>
  </outline>
</glyph>
<glyph name="uniFD2A" format="1">
  <advance width="776"/>
  <unicode hex="FD2A"/>
  <outline>
    <contour>
      <point x="740" y="98" type="line" smooth="yes"/>
      <point x="712" y="98"/>
      <point x="694" y="105"/>
      <point x="681" y="120" type="curve" smooth="yes"/>
      <point x="663" y="140"/>
      <point x="665" y="167"/>
      <point x="667" y="190" type="curve"/>
      <point x="645" y="178" type="line"/>
      <point x="643" y="145"/>
      <point x="633" y="95"/>
      <point x="579" y="95" type="curve" smooth="yes"/>
      <point x="534" y="95"/>
      <point x="522" y="130"/>
      <point x="521" y="160" type="curve"/>
      <point x="520" y="172"/>
      <point x="521" y="183"/>
      <point x="522" y="190" type="curve"/>
      <point x="500" y="178" type="line"/>
      <point x="498" y="143"/>
      <point x="485" y="94"/>
      <point x="422" y="94" type="curve" smooth="yes"/>
      <point x="392" y="94"/>
      <point x="374" y="105"/>
      <point x="364" y="119" type="curve" smooth="yes"/>
      <point x="358" y="128"/>
      <point x="356" y="134"/>
      <point x="353" y="146" type="curve"/>
      <point x="297" y="125"/>
      <point x="232" y="110"/>
      <point x="186" y="100" type="curve"/>
      <point x="185" y="91"/>
      <point x="182" y="66"/>
      <point x="174" y="27" type="curve"/>
      <point x="182" y="28"/>
      <point x="193" y="30"/>
      <point x="200" y="32" type="curve"/>
      <point x="202" y="21"/>
      <point x="204" y="10"/>
      <point x="204" y="-3" type="curve" smooth="yes"/>
      <point x="204" y="-40"/>
      <point x="188" y="-76"/>
      <point x="160" y="-103" type="curve" smooth="yes"/>
      <point x="114" y="-149"/>
      <point x="-9" y="-211"/>
      <point x="-60" y="-239" type="curve"/>
      <point x="-51" y="-252" type="line"/>
      <point x="-30" y="-246"/>
      <point x="-12" y="-244"/>
      <point x="3" y="-244" type="curve" smooth="yes"/>
      <point x="25" y="-244"/>
      <point x="57" y="-248"/>
      <point x="79" y="-248" type="curve" smooth="yes"/>
      <point x="119" y="-248"/>
      <point x="140" y="-235"/>
      <point x="161" y="-215" type="curve" smooth="yes"/>
      <point x="182" y="-195"/>
      <point x="202" y="-167"/>
      <point x="218" y="-130" type="curve" smooth="yes"/>
      <point x="251" y="-55"/>
      <point x="248" y="15"/>
      <point x="245" y="41" type="curve"/>
      <point x="275" y="48"/>
      <point x="309" y="56"/>
      <point x="336" y="65" type="curve"/>
      <point x="343" y="28"/>
      <point x="366" y="-2"/>
      <point x="414" y="-2" type="curve" smooth="yes"/>
      <point x="471" y="-2"/>
      <point x="496" y="38"/>
      <point x="506" y="75" type="curve"/>
      <point x="504" y="37"/>
      <point x="527" y="-2"/>
      <point x="575" y="-2" type="curve" smooth="yes"/>
      <point x="631" y="-2"/>
      <point x="647" y="49"/>
      <point x="652" y="75" type="curve"/>
      <point x="652" y="33"/>
      <point x="680" y="0"/>
      <point x="738" y="0" type="curve" smooth="yes"/>
      <point x="776" y="0" type="line"/>
      <point x="776" y="98" type="line"/>
    </contour>
    <contour>
      <point x="418" y="0" type="move" name="caret_1"/>
    </contour>
    <contour>
      <point x="502" y="-25" type="move" name="bottom_1"/>
    </contour>
    <contour>
      <point x="509" y="227" type="move" name="top_1"/>
    </contour>
    <contour>
      <point x="161" y="160" type="move" name="top_2"/>
    </contour>
    <contour>
      <point x="43" y="-278" type="move" name="bottom_2"/>
    </contour>
  </outline>
</glyph>
<glyph name="uniFECB" format="1">
  <advance width="384"/>
  <unicode hex="FECB"/>
  <outline>
    <contour>
      <point x="311" y="133"/>
      <point x="293" y="127"/>
      <point x="272" y="121" type="curve"/>
      <point x="208" y="100"/>
      <point x="162" y="99"/>
      <point x="162" y="99" type="curve"/>
      <point x="114" y="119"/>
      <point x="76" y="181"/>
      <point x="69" y="222" type="curve"/>
      <point x="98" y="245"/>
      <point x="132" y="256"/>
      <point x="180" y="256" type="curve" smooth="yes"/>
      <point x="222" y="256"/>
      <point x="255" y="244"/>
      <point x="267" y="239" type="curve"/>
      <point x="287" y="257" type="line"/>
      <point x="282" y="265"/>
      <point x="227" y="322"/>
      <point x="171" y="322" type="curve" smooth="yes"/>
      <point x="137" y="322"/>
      <point x="96" y="300"/>
      <point x="70" y="276" type="curve" smooth="yes"/>
      <point x="40" y="249"/>
      <point x="17" y="208"/>
      <point x="17" y="170" type="curve" smooth="yes"/>
      <point x="17" y="143"/>
      <point x="32" y="113"/>
      <point x="54" y="98" type="curve"/>
      <point x="-20" y="98" type="line" smooth="yes"/>
      <point x="-50" y="98"/>
      <point x="-70" y="77"/>
      <point x="-70" y="50" type="curve" smooth="yes"/>
      <point x="-70" y="22"/>
      <point x="-48" y="0"/>
      <point x="-20" y="0" type="curve" smooth="yes"/>
      <point x="63" y="0" type="line" smooth="yes"/>
      <point x="154" y="0"/>
      <point x="217" y="26"/>
      <point x="261" y="43" type="curve" smooth="yes"/>
      <point x="275" y="48"/>
      <point x="264" y="45"/>
      <point x="292" y="55" type="curve"/>
      <point x="307" y="85"/>
      <point x="314" y="105"/>
      <point x="324" y="137" type="curve"/>
    </contour>
    <contour>
      <point x="171" y="352" type="move" name="top"/>
    </contour>
    <contour>
      <point x="124" y="-25" type="move" name="bottom"/>
    </contour>
  </outline>
</glyph>
<glyph name="lam-ar.init" format="1">
  <advance width="218"/>
  <unicode hex="FEDF"/>
  <outline>
    <contour>
      <point x="127" y="514"/>
      <point x="107" y="539"/>
      <point x="95" y="568" type="curve"/>
      <point x="37" y="492" type="line"/>
      <point x="52" y="454"/>
      <point x="71" y="377"/>
      <point x="82" y="320" type="curve" smooth="yes"/>
      <point x="92" y="266"/>
      <point x="103" y="199"/>
      <point x="108" y="152" type="curve"/>
      <point x="89" y="118"/>
      <point x="50" y="98"/>
      <point x="10" y="98" type="curve" smooth="yes"/>
      <point x="-21" y="98" type="line" smooth="yes"/>
      <point x="-56" y="98"/>
      <point x="-70" y="72"/>
      <point x="-70" y="48" type="curve" smooth="yes"/>
      <point x="-70" y="18"/>
      <point x="-48" y="0"/>
      <point x="-21" y="0" type="curve"/>
      <point x="11" y="0" type="line"/>
      <point x="29" y="0"/>
      <point x="41" y="1"/>
      <point x="53" y="4" type="curve" smooth="yes"/>
      <point x="83" y="10"/>
      <point x="109" y="28"/>
      <point x="127" y="54" type="curve" smooth="yes"/>
      <point x="146" y="82"/>
      <point x="155" y="116"/>
      <point x="158" y="157" type="curve"/>
      <point x="157" y="192"/>
      <point x="156" y="206"/>
      <point x="139" y="322" type="curve" smooth="yes"/>
      <point x="135" y="348"/>
      <point x="131" y="385"/>
      <point x="129" y="399" type="curve"/>
      <point x="126" y="441"/>
      <point x="132" y="463"/>
      <point x="155" y="483" type="curve"/>
    </contour>
    <contour>
      <point x="28" y="558" type="move" name="top"/>
    </contour>
    <contour>
      <point x="21" y="-26" type="move" name="bottom"/>
    </contour>
  </outline>
</glyph>
<glyph name="heh-ar.init" format="1">
  <advance width="417"/>
  <unicode hex="FEEB"/>
  <outline>
    <contour>
      <point x="357" y="161"/>
      <point x="345" y="195"/>
      <point x="320" y="227" type="curve" smooth="yes"/>
      <point x="299" y="253"/>
      <point x="271" y="276"/>
      <point x="232" y="300" type="curve" smooth="yes"/>
      <point x="213" y="311"/>
      <point x="192" y="322"/>
      <point x="172" y="332" type="curve" smooth="yes"/>
      <point x="155" y="341"/>
      <point x="139" y="349"/>
      <point x="126" y="357" type="curve"/>
      <point x="120" y="347"/>
      <point x="113" y="336"/>
      <point x="107" y="326" type="curve"/>
      <point x="95" y="303"/>
      <point x="106" y="291"/>
      <point x="126" y="280" type="curve"/>
      <point x="144" y="271" type="line"/>
      <point x="112" y="269"/>
      <point x="76" y="245"/>
      <point x="58" y="217" type="curve" smooth="yes"/>
      <point x="40" y="190"/>
      <point x="37" y="162"/>
      <point x="39" y="140" type="curve" smooth="yes"/>
      <point x="41" y="127"/>
      <point x="44" y="116"/>
      <point x="51" y="98" type="curve" smooth="yes"/>
      <point x="-20" y="98" type="line" smooth="yes"/>
      <point x="-47" y="98"/>
      <point x="-70" y="76"/>
      <point x="-70" y="49" type="curve" smooth="yes"/>
      <point x="-70" y="21"/>
      <point x="-48" y="0"/>
      <point x="-20" y="0" type="curve" smooth="yes"/>
      <point x="33" y="0" type="line" smooth="yes"/>
      <point x="91" y="0"/>
      <point x="128" y="12"/>
      <point x="154" y="47" type="curve"/>
      <point x="197" y="32"/>
      <point x="241" y="13"/>
      <point x="276" y="-7" type="curve"/>
      <point x="291" y="9"/>
      <point x="307" y="25"/>
      <point x="322" y="41" type="curve" smooth="yes"/>
      <point x="344" y="65"/>
      <point x="355" y="93"/>
      <point x="357" y="123" type="curve" smooth="yes"/>
    </contour>
    <contour>
      <point x="195" y="170"/>
      <point x="189" y="155"/>
      <point x="173" y="143" type="curve" smooth="yes"/>
      <point x="161" y="135"/>
      <point x="148" y="131"/>
      <point x="137" y="131" type="curve" smooth="yes"/>
      <point x="130" y="131"/>
      <point x="121" y="132"/>
      <point x="102" y="144" type="curve" smooth="yes"/>
      <point x="87" y="152"/>
      <point x="72" y="166"/>
      <point x="72" y="177" type="curve" smooth="yes"/>
      <point x="72" y="186"/>
      <point x="84" y="202"/>
      <point x="103" y="219" type="curve" smooth="yes"/>
      <point x="124" y="237"/>
      <point x="137" y="243"/>
      <point x="150" y="243" type="curve" smooth="yes"/>
      <point x="164" y="243"/>
      <point x="172" y="235"/>
      <point x="182" y="217" type="curve" smooth="yes"/>
      <point x="190" y="203"/>
      <point x="195" y="187"/>
      <point x="195" y="179" type="curve" smooth="yes"/>
    </contour>
    <contour>
      <point x="273" y="93"/>
      <point x="235" y="102"/>
      <point x="197" y="112" type="curve"/>
      <point x="213" y="128"/>
      <point x="223" y="148"/>
      <point x="226" y="169" type="curve" smooth="yes"/>
      <point x="230" y="192"/>
      <point x="226" y="217"/>
      <point x="215" y="240" type="curve"/>
      <point x="253" y="217"/>
      <point x="277" y="192"/>
      <point x="293" y="161" type="curve" smooth="yes"/>
      <point x="304" y="139"/>
      <point x="309" y="113"/>
      <point x="311" y="83" type="curve"/>
    </contour>
    <contour>
      <point x="126" y="387" type="move" name="top"/>
    </contour>
    <contour>
      <point x="155" y="-11" type="move" name="bottom"/>
    </contour>
  </outline>
</glyph>
<glyph name="uniFEEE" format="1">
  <advance width="405"/>
  <unicode hex="FEEE"/>
  <outline>
    <contour>
      <point x="287" y="98" type="line"/>
      <point x="287" y="128"/>
      <point x="278" y="164"/>
      <point x="265" y="192" type="curve" smooth="yes"/>
      <point x="247" y="230"/>
      <point x="219" y="258"/>
      <point x="183" y="258" type="curve" smooth="yes"/>
      <point x="150" y="258"/>
      <point x="123" y="231"/>
      <point x="107" y="197" type="curve" smooth="yes"/>
      <point x="95" y="170"/>
      <point x="89" y="150"/>
      <point x="89" y="117" type="curve" smooth="yes"/>
      <point x="89" y="98"/>
      <point x="91" y="60"/>
      <point x="109" y="35" type="curve" smooth="yes"/>
      <point x="126" y="10"/>
      <point x="156" y="0"/>
      <point x="197" y="0" type="curve" smooth="yes"/>
      <point x="249" y="0" type="line"/>
      <point x="249" y="-11"/>
      <point x="247" y="-26"/>
      <point x="244" y="-38" type="curve" smooth="yes"/>
      <point x="234" y="-79"/>
      <point x="212" y="-119"/>
      <point x="179" y="-150" type="curve" smooth="yes"/>
      <point x="158" y="-170"/>
      <point x="131" y="-188"/>
      <point x="110" y="-200" type="curve" smooth="yes"/>
      <point x="84" y="-215"/>
      <point x="-8" y="-263"/>
      <point x="-20" y="-270" type="curve"/>
      <point x="-11" y="-283" type="line"/>
      <point x="11" y="-278"/>
      <point x="30" y="-275"/>
      <point x="49" y="-275" type="curve" smooth="yes"/>
      <point x="70" y="-275"/>
      <point x="99" y="-279"/>
      <point x="117" y="-279" type="curve" smooth="yes"/>
      <point x="138" y="-279"/>
      <point x="165" y="-274"/>
      <point x="190" y="-258" type="curve" smooth="yes"/>
      <point x="211" y="-244"/>
      <point x="228" y="-224"/>
      <point x="243" y="-197" type="curve" smooth="yes"/>
      <point x="280" y="-128"/>
      <point x="289" y="-38"/>
      <point x="289" y="0" type="curve"/>
      <point x="405" y="0" type="line" smooth="yes"/>
      <point x="405" y="98" type="line" smooth="yes"/>
    </contour>
    <contour>
      <point x="243" y="122"/>
      <point x="244" y="104"/>
      <point x="244" y="98" type="curve"/>
      <point x="186" y="98" type="line" smooth="yes"/>
      <point x="151" y="98"/>
      <point x="121" y="104"/>
      <point x="121" y="142" type="curve" smooth="yes"/>
      <point x="121" y="165"/>
      <point x="144" y="186"/>
      <point x="175" y="186" type="curve" smooth="yes"/>
      <point x="202" y="186"/>
      <point x="221" y="169"/>
      <point x="231" y="148" type="curve" smooth="yes"/>
    </contour>
    <contour>
      <point x="114" y="-77" type="move" name="center"/>
    </contour>
    <contour>
      <point x="103" y="-319" type="move" name="bottom"/>
    </contour>
    <contour>
      <point x="173" y="288" type="move" name="top"/>
    </contour>
  </outline>
</glyph>
<glyph name="uniFEF0" format="1">
  <advance width="680"/>
  <unicode hex="FEF0"/>
  <outline>
    <contour>
      <point x="482" y="98" type="line"/>
      <point x="460" y="71"/>
      <point x="440" y="37"/>
      <point x="422" y="-1" type="curve"/>
      <point x="434" y="-3"/>
      <point x="454" y="-7"/>
      <point x="474" y="-14" type="curve" smooth="yes"/>
      <point x="520" y="-29"/>
      <point x="543" y="-48"/>
      <point x="543" y="-71" type="curve" smooth="yes"/>
      <point x="543" y="-92"/>
      <point x="503" y="-119"/>
      <point x="447" y="-139" type="curve" smooth="yes"/>
      <point x="401" y="-156"/>
      <point x="344" y="-168"/>
      <point x="292" y="-168" type="curve" smooth="yes"/>
      <point x="217" y="-168"/>
      <point x="163" y="-152"/>
      <point x="132" y="-114" type="curve" smooth="yes"/>
      <point x="105" y="-81"/>
      <point x="108" y="-29"/>
      <point x="119" y="29" type="curve"/>
      <point x="100" y="36" type="line"/>
      <point x="84" y="-2"/>
      <point x="74" y="-50"/>
      <point x="71" y="-87" type="curve" smooth="yes"/>
      <point x="68" y="-120"/>
      <point x="72" y="-149"/>
      <point x="83" y="-175" type="curve" smooth="yes"/>
      <point x="96" y="-206"/>
      <point x="117" y="-231"/>
      <point x="147" y="-248" type="curve" smooth="yes"/>
      <point x="182" y="-270"/>
      <point x="228" y="-281"/>
      <point x="283" y="-281" type="curve" smooth="yes"/>
      <point x="342" y="-281"/>
      <point x="404" y="-266"/>
      <point x="457" y="-237" type="curve" smooth="yes"/>
      <point x="508" y="-211"/>
      <point x="547" y="-175"/>
      <point x="567" y="-137" type="curve" smooth="yes"/>
      <point x="585" y="-103"/>
      <point x="589" y="-75"/>
      <point x="589" y="-58" type="curve" smooth="yes"/>
      <point x="589" y="-36"/>
      <point x="582" y="-14"/>
      <point x="563" y="0" type="curve"/>
      <point x="680" y="0" type="line"/>
      <point x="680" y="98" type="line"/>
    </contour>
    <contour>
      <point x="287" y="29" type="move" name="top"/>
    </contour>
    <contour>
      <point x="293" y="-311" type="move" name="bottom"/>
    </contour>
  </outline>
</glyph>
<glyph name="lam_alef-ar" format="1">
  <advance width="447"/>
  <unicode hex="FEFB"/>
  <outline>
    <contour>
      <point x="401" y="493"/>
      <point x="377" y="528"/>
      <point x="362" y="568" type="curve"/>
      <point x="343" y="546"/>
      <point x="323" y="530"/>
      <point x="314" y="523" type="curve"/>
      <point x="326" y="476"/>
      <point x="335" y="417"/>
      <point x="329" y="359" type="curve" smooth="yes"/>
      <point x="325" y="321"/>
      <point x="315" y="283"/>
      <point x="296" y="248" type="curve"/>
      <point x="280" y="279"/>
      <point x="256" y="314"/>
      <point x="226" y="351" type="curve" smooth="yes"/>
      <point x="187" y="399"/>
      <point x="144" y="442"/>
      <point x="102" y="479" type="curve" smooth="yes"/>
      <point x="78" y="500"/>
      <point x="67" y="508"/>
      <point x="61" y="511" type="curve" smooth="yes"/>
      <point x="55" y="514"/>
      <point x="43" y="517"/>
      <point x="37" y="505" type="curve" smooth="yes"/>
      <point x="34" y="499"/>
      <point x="23" y="466"/>
      <point x="20" y="430" type="curve"/>
      <point x="44" y="410"/>
      <point x="62" y="396"/>
      <point x="89" y="379" type="curve"/>
      <point x="100" y="396" type="line"/>
      <point x="116" y="383"/>
      <point x="193" y="314"/>
      <point x="267" y="191" type="curve"/>
      <point x="232" y="142"/>
      <point x="191" y="110"/>
      <point x="142" y="97" type="curve"/>
      <point x="129" y="96" type="line"/>
      <point x="125" y="64"/>
      <point x="124" y="32"/>
      <point x="124" y="-5" type="curve"/>
      <point x="234" y="-5"/>
      <point x="295" y="4"/>
      <point x="353" y="17" type="curve"/>
      <point x="355" y="30"/>
      <point x="360" y="73"/>
      <point x="360" y="76" type="curve"/>
      <point x="362" y="117"/>
      <point x="339" y="172"/>
      <point x="327" y="196" type="curve"/>
      <point x="381" y="290"/>
      <point x="383" y="385"/>
      <point x="379" y="431" type="curve"/>
      <point x="405" y="421" type="line"/>
      <point x="427" y="473" type="line"/>
    </contour>
    <contour>
      <point x="298" y="97"/>
      <point x="248" y="95"/>
      <point x="227" y="95" type="curve"/>
      <point x="238" y="103"/>
      <point x="272" y="124"/>
      <point x="296" y="160" type="curve"/>
      <point x="306" y="140"/>
      <point x="315" y="124"/>
      <point x="325" y="101" type="curve"/>
    </contour>
    <contour>
      <point x="293" y="-29" type="move" name="caret_1"/>
    </contour>
    <contour>
      <point x="335" y="-46" type="move" name="bottom_1"/>
    </contour>
    <contour>
      <point x="294" y="557" type="move" name="top_1"/>
    </contour>
    <contour>
      <point x="49" y="523" type="move" name="top_2"/>
    </contour>
    <contour>
      <point x="129" y="-42" type="move" name="bottom_2"/>
    </contour>
  </outline>
</glyph>
<glyph name="uniFEFC" format="1">
  <advance width="559"/>
  <unicode hex="FEFC"/>
  <outline>
    <contour>
      <point x="524" y="98" type="line" smooth="yes"/>
      <point x="490" y="98"/>
      <point x="470" y="106"/>
      <point x="457" y="131" type="curve" smooth="yes"/>
      <point x="445" y="154"/>
      <point x="438" y="187"/>
      <point x="432" y="250" type="curve" smooth="yes"/>
      <point x="432" y="254"/>
      <point x="423" y="342"/>
      <point x="417" y="406" type="curve" smooth="yes"/>
      <point x="406" y="520"/>
      <point x="408" y="504"/>
      <point x="401" y="567" type="curve"/>
      <point x="376" y="547"/>
      <point x="355" y="525"/>
      <point x="341" y="505" type="curve"/>
      <point x="341" y="505"/>
      <point x="352" y="429"/>
      <point x="355" y="406" type="curve" smooth="yes"/>
      <point x="358" y="381"/>
      <point x="364" y="307"/>
      <point x="361" y="259" type="curve" smooth="yes"/>
      <point x="358" y="207"/>
      <point x="346" y="184"/>
      <point x="340" y="176" type="curve"/>
      <point x="329" y="215"/>
      <point x="304" y="262"/>
      <point x="283" y="295" type="curve" smooth="yes"/>
      <point x="254" y="340"/>
      <point x="212" y="391"/>
      <point x="158" y="438" type="curve"/>
      <point x="110" y="481"/>
      <point x="59" y="517"/>
      <point x="42" y="517" type="curve" smooth="yes"/>
      <point x="35" y="517"/>
      <point x="29" y="511"/>
      <point x="28" y="501" type="curve" smooth="yes"/>
      <point x="23" y="459"/>
      <point x="25" y="482"/>
      <point x="20" y="434" type="curve"/>
      <point x="43" y="416"/>
      <point x="62" y="402"/>
      <point x="89" y="385" type="curve"/>
      <point x="100" y="405" type="line"/>
      <point x="124" y="386"/>
      <point x="161" y="356"/>
      <point x="206" y="301" type="curve" smooth="yes"/>
      <point x="254" y="242"/>
      <point x="301" y="167"/>
      <point x="296" y="115" type="curve"/>
      <point x="288" y="105"/>
      <point x="235" y="35"/>
      <point x="71" y="-46" type="curve"/>
      <point x="73" y="-59" type="line"/>
      <point x="100" y="-51"/>
      <point x="125" y="-47"/>
      <point x="148" y="-43" type="curve" smooth="yes"/>
      <point x="194" y="-35"/>
      <point x="217" y="-30"/>
      <point x="252" y="-12" type="curve" smooth="yes"/>
      <point x="374" y="50"/>
      <point x="389" y="130"/>
      <point x="390" y="135" type="curve"/>
      <point x="392" y="83"/>
      <point x="405" y="54"/>
      <point x="421" y="36" type="curve" smooth="yes"/>
      <point x="441" y="13"/>
      <point x="471" y="0"/>
      <point x="527" y="0" type="curve" smooth="yes"/>
      <point x="559" y="0" type="line"/>
      <point x="559" y="98" type="line"/>
    </contour>
    <contour>
      <point x="188" y="-63" type="move" name="caret_1"/>
    </contour>
    <contour>
      <point x="397" y="-35" type="move" name="bottom_1"/>
    </contour>
    <contour>
      <point x="342" y="557" type="move" name="top_1"/>
    </contour>
    <contour>
      <point x="52" y="527" type="move" name="top_2"/>
    </contour>
    <contour>
      <point x="162" y="-75" type="move" name="bottom_2"/>
    </contour>
  </outline>
</glyph>
<glyph name="Longdotlessbeh-ar.init" format="1">
  <advance width="416"/>
  <outline>
    <contour>
      <point x="287" y="280"/>
      <point x="275" y="260"/>
      <point x="261" y="230" type="curve"/>
      <point x="284" y="203"/>
      <point x="301" y="182"/>
      <point x="322" y="158" type="curve"/>
      <point x="322" y="158"/>
      <point x="304" y="98"/>
      <point x="227" y="98" type="curve" smooth="yes"/>
      <point x="-21" y="98" type="line" smooth="yes"/>
      <point x="-50" y="98"/>
      <point x="-70" y="77"/>
      <point x="-70" y="50" type="curve"/>
      <point x="-70" y="22"/>
      <point x="-49" y="0"/>
      <point x="-21" y="0" type="curve"/>
      <point x="219" y="0" type="line" smooth="yes"/>
      <point x="267" y="0"/>
      <point x="301" y="19"/>
      <point x="325" y="56" type="curve" smooth="yes"/>
      <point x="346" y="89"/>
      <point x="356" y="122"/>
      <point x="356" y="165" type="curve" smooth="yes"/>
      <point x="356" y="215"/>
      <point x="337" y="263"/>
      <point x="304" y="299" type="curve"/>
    </contour>
    <contour>
      <point x="116" y="283" type="move" name="top"/>
    </contour>
    <contour>
      <point x="139" y="-25" type="move" name="bottom"/>
    </contour>
  </outline>
</glyph>
<glyph name="TahSmallTwoDotsbelow-ar" format="1">
  <advance width="0"/>
  <outline>
    <contour>
      <point x="29" y="-406"/>
      <point x="13" y="-422"/>
      <point x="-1" y="-436" type="curve"/>
      <point x="-14" y="-421"/>
      <point x="-31" y="-403"/>
      <point x="-47" y="-393" type="curve"/>
      <point x="-61" y="-408"/>
      <point x="-83" y="-430"/>
      <point x="-99" y="-446" type="curve"/>
      <point x="-79" y="-462"/>
      <point x="-62" y="-478"/>
      <point x="-43" y="-500" type="curve"/>
      <point x="-24" y="-483"/>
      <point x="-10" y="-469"/>
      <point x="1" y="-456" type="curve"/>
      <point x="16" y="-469"/>
      <point x="30" y="-483"/>
      <point x="44" y="-500" type="curve"/>
      <point x="68" y="-478"/>
      <point x="82" y="-464"/>
      <point x="96" y="-448" type="curve"/>
      <point x="84" y="-430"/>
      <point x="61" y="-407"/>
      <point x="40" y="-393" type="curve"/>
    </contour>
    <contour>
      <point x="-53" y="-224" type="line" smooth="yes"/>
      <point x="-49" y="-232"/>
      <point x="-33" y="-268"/>
      <point x="-29" y="-323" type="curve" smooth="yes"/>
      <point x="-40" y="-343" type="line" smooth="yes"/>
      <point x="-69" y="-343" type="line" smooth="yes"/>
      <point x="-59" y="-375" type="line" smooth="yes"/>
      <point x="-17" y="-375" type="line"/>
      <point x="4" y="-375"/>
      <point x="27" y="-366"/>
      <point x="46" y="-353" type="curve"/>
      <point x="64" y="-338"/>
      <point x="75" y="-320"/>
      <point x="75" y="-301" type="curve"/>
      <point x="75" y="-286"/>
      <point x="54" y="-272"/>
      <point x="39" y="-272" type="curve"/>
      <point x="26" y="-272"/>
      <point x="4" y="-280"/>
      <point x="-19" y="-313" type="curve" smooth="yes"/>
      <point x="-18" y="-292"/>
      <point x="-19" y="-285"/>
      <point x="-26" y="-255" type="curve" smooth="yes"/>
      <point x="-27" y="-236"/>
      <point x="-23" y="-233"/>
      <point x="-16" y="-226" type="curve" smooth="yes"/>
      <point x="-25" y="-217"/>
      <point x="-32" y="-208"/>
      <point x="-37" y="-200" type="curve" smooth="yes"/>
    </contour>
    <contour>
      <point x="49" y="-333"/>
      <point x="28" y="-343"/>
      <point x="4" y="-343" type="curve"/>
      <point x="-22" y="-343" type="line" smooth="yes"/>
      <point x="-12" y="-321"/>
      <point x="2" y="-298"/>
      <point x="25" y="-297" type="curve" smooth="yes"/>
      <point x="46" y="-297"/>
      <point x="54" y="-310"/>
      <point x="59" y="-320" type="curve" smooth="yes"/>
    </contour>
    <contour>
      <point x="-2" y="-180" type="move" name="_bottom"/>
    </contour>
    <contour>
      <point x="-2" y="-503" type="move" name="bottom"/>
    </contour>
  </outline>
</glyph>
<glyph name="barlong" format="1">
  <advance width="0"/>
  <outline>
    <contour>
      <point x="-92" y="219" type="line"/>
      <point x="-64" y="188" type="line"/>
      <point x="85" y="188" type="line"/>
      <point x="57" y="219" type="line"/>
    </contour>
  </outline>
</glyph>
<glyph name="behVbelow-ar.fina" format="1">
  <advance width="893"/>
  <outline>
    <component base="dotlessbeh-ar.fina"/>
    <component base="vbelow-ar" xOffset="417" yOffset="145"/>
    <contour>
      <point x="418" y="-248" type="move" name="bottom"/>
    </contour>
  </outline>
</glyph>
<glyph name="dalVinvertedbelow-ar.fina" format="1">
  <advance width="503"/>
  <outline>
    <component base="dal-ar.fina"/>
    <component base="circumflex.below" xOffset="177" yOffset="153"/>
    <contour>
      <point x="204" y="-238" type="move" name="bottom"/>
    </contour>
  </outline>
</glyph>
<glyph name="dotlessbeh_hah-ar" format="1">
  <advance width="579"/>
  <outline>
    <contour>
      <point x="428" y="244"/>
      <point x="400" y="251"/>
      <point x="347" y="261" type="curve" smooth="yes"/>
      <point x="260" y="277"/>
      <point x="218" y="276"/>
      <point x="203" y="278" type="curve"/>
      <point x="230" y="288"/>
      <point x="255" y="300"/>
      <point x="277" y="323" type="curve" smooth="yes"/>
      <point x="292" y="339"/>
      <point x="297" y="350"/>
      <point x="309" y="370" type="curve" smooth="yes"/>
      <point x="323" y="393"/>
      <point x="340" y="413"/>
      <point x="364" y="413" type="curve" smooth="yes"/>
      <point x="405" y="413"/>
      <point x="397" y="356"/>
      <point x="393" y="342" type="curve"/>
      <point x="408" y="342" type="line"/>
      <point x="418" y="358"/>
      <point x="429" y="391"/>
      <point x="429" y="418" type="curve" smooth="yes"/>
      <point x="429" y="448"/>
      <point x="415" y="478"/>
      <point x="379" y="478" type="curve" smooth="yes"/>
      <point x="349" y="478"/>
      <point x="325" y="457"/>
      <point x="304" y="431" type="curve" smooth="yes"/>
      <point x="296" y="421"/>
      <point x="281" y="398"/>
      <point x="247" y="366" type="curve" smooth="yes"/>
      <point x="225" y="345"/>
      <point x="204" y="327"/>
      <point x="166" y="307" type="curve" smooth="yes"/>
      <point x="142" y="295"/>
      <point x="126" y="284"/>
      <point x="110" y="257" type="curve"/>
      <point x="106" y="249"/>
      <point x="100" y="235"/>
      <point x="94" y="212" type="curve"/>
      <point x="105" y="213"/>
      <point x="150" y="217"/>
      <point x="156" y="217" type="curve" smooth="yes"/>
      <point x="160" y="217"/>
      <point x="165" y="217"/>
      <point x="170" y="217" type="curve" smooth="yes"/>
      <point x="233" y="217"/>
      <point x="312" y="202"/>
      <point x="312" y="202" type="curve"/>
      <point x="238" y="183"/>
      <point x="195" y="153"/>
      <point x="158" y="116" type="curve" smooth="yes"/>
      <point x="87" y="45"/>
      <point x="74" y="-39"/>
      <point x="71" y="-69" type="curve" smooth="yes"/>
      <point x="64" y="-139"/>
      <point x="88" y="-199"/>
      <point x="125" y="-240" type="curve" smooth="yes"/>
      <point x="165" y="-284"/>
      <point x="221" y="-310"/>
      <point x="289" y="-310" type="curve" smooth="yes"/>
      <point x="335" y="-310"/>
      <point x="359" y="-298"/>
      <point x="384" y="-284" type="curve" smooth="yes"/>
      <point x="408" y="-271"/>
      <point x="434" y="-258"/>
      <point x="479" y="-256" type="curve"/>
      <point x="484" y="-241" type="line"/>
      <point x="448" y="-236"/>
      <point x="449" y="-237"/>
      <point x="402" y="-233" type="curve" smooth="yes"/>
      <point x="357" y="-229"/>
      <point x="338" y="-227"/>
      <point x="314" y="-223" type="curve" smooth="yes"/>
      <point x="254" y="-213"/>
      <point x="202" y="-192"/>
      <point x="168" y="-152" type="curve" smooth="yes"/>
      <point x="135" y="-113"/>
      <point x="125" y="-65"/>
      <point x="128" y="-33" type="curve" smooth="yes"/>
      <point x="133" y="19"/>
      <point x="174" y="96"/>
      <point x="253" y="139" type="curve" smooth="yes"/>
      <point x="295" y="162"/>
      <point x="349" y="179"/>
      <point x="413" y="179" type="curve" smooth="yes"/>
      <point x="429" y="179"/>
      <point x="446" y="179"/>
      <point x="463" y="177" type="curve"/>
      <point x="473" y="198"/>
      <point x="486" y="230"/>
      <point x="489" y="244" type="curve"/>
    </contour>
    <contour>
      <point x="275" y="17" type="move" name="caret_1"/>
    </contour>
    <contour>
      <point x="478" y="140" type="move" name="bottom_1"/>
    </contour>
    <contour>
      <point x="314" y="-15" type="move" name="center"/>
    </contour>
    <contour>
      <point x="379" y="508" type="move" name="top_1"/>
    </contour>
    <contour>
      <point x="158" y="391" type="move" name="top_2"/>
    </contour>
    <contour>
      <point x="289" y="-340" type="move" name="bottom_2"/>
    </contour>
  </outline>
</glyph>
<glyph name="dotlessbeh_meem-ar" format="1">
  <advance width="470"/>
  <outline>
    <contour>
      <point x="406" y="122"/>
      <point x="410" y="137"/>
      <point x="410" y="149" type="curve" smooth="yes"/>
      <point x="409" y="171"/>
      <point x="390" y="193"/>
      <point x="354" y="193" type="curve" smooth="yes"/>
      <point x="293" y="193"/>
      <point x="248" y="166"/>
      <point x="214" y="125" type="curve" smooth="yes"/>
      <point x="188" y="94"/>
      <point x="166" y="56"/>
      <point x="157" y="7" type="curve"/>
      <point x="123" y="-10"/>
      <point x="107" y="-16"/>
      <point x="85" y="-48" type="curve"/>
      <point x="65" y="-75"/>
      <point x="52" y="-114"/>
      <point x="59" y="-169" type="curve"/>
      <point x="93" y="-375"/>
      <point x="99" y="-447"/>
      <point x="102" y="-474" type="curve"/>
      <point x="135" y="-465" type="line"/>
      <point x="134" y="-379"/>
      <point x="125" y="-302"/>
      <point x="113" y="-191" type="curve" smooth="yes"/>
      <point x="107" y="-142"/>
      <point x="106" y="-136"/>
      <point x="100" y="-99" type="curve"/>
      <point x="127" y="-72"/>
      <point x="156" y="-60"/>
      <point x="200" y="-60" type="curve" smooth="yes"/>
      <point x="246" y="-60"/>
      <point x="273" y="-64"/>
      <point x="302" y="-70" type="curve"/>
      <point x="321" y="-44"/>
      <point x="337" y="-12"/>
      <point x="346" y="15" type="curve"/>
      <point x="333" y="27"/>
      <point x="284" y="63"/>
      <point x="224" y="76" type="curve"/>
      <point x="232" y="85"/>
      <point x="244" y="95"/>
      <point x="258" y="104" type="curve" smooth="yes"/>
      <point x="277" y="117"/>
      <point x="299" y="127"/>
      <point x="321" y="132" type="curve" smooth="yes"/>
      <point x="355" y="140"/>
      <point x="390" y="135"/>
      <point x="387" y="109" type="curve"/>
      <point x="397" y="109" type="line"/>
    </contour>
    <contour>
      <point x="235" y="0" type="move" name="caret_1"/>
    </contour>
    <contour>
      <point x="312" y="-100" type="move" name="bottom_1"/>
    </contour>
    <contour>
      <point x="304" y="227" type="move" name="top_1"/>
    </contour>
    <contour>
      <point x="93" y="98" type="move" name="top_2"/>
    </contour>
    <contour>
      <point x="118" y="-502" type="move" name="bottom_2"/>
    </contour>
  </outline>
</glyph>
<glyph name="dotlessbeh_reh-ar.fina" format="1">
  <advance width="593"/>
  <outline>
    <contour>
      <point x="558" y="98" type="line" smooth="yes"/>
      <point x="501" y="98"/>
      <point x="476" y="124"/>
      <point x="467" y="166" type="curve" smooth="yes"/>
      <point x="460" y="196"/>
      <point x="461" y="235"/>
      <point x="464" y="279" type="curve"/>
      <point x="442" y="267" type="line"/>
      <point x="440" y="241"/>
      <point x="425" y="220"/>
      <point x="403" y="206" type="curve" smooth="yes"/>
      <point x="381" y="191"/>
      <point x="350" y="182"/>
      <point x="317" y="183" type="curve" smooth="yes"/>
      <point x="284" y="184"/>
      <point x="255" y="191"/>
      <point x="228" y="206" type="curve" smooth="yes"/>
      <point x="212" y="215"/>
      <point x="196" y="227"/>
      <point x="181" y="243" type="curve"/>
      <point x="164" y="224"/>
      <point x="149" y="201"/>
      <point x="133" y="171" type="curve"/>
      <point x="172" y="135"/>
      <point x="202" y="98"/>
      <point x="202" y="43" type="curve" smooth="yes"/>
      <point x="202" y="5"/>
      <point x="188" y="-24"/>
      <point x="160" y="-51" type="curve" smooth="yes"/>
      <point x="134" y="-76"/>
      <point x="93" y="-102"/>
      <point x="55" y="-124" type="curve" smooth="yes"/>
      <point x="17" y="-146"/>
      <point x="-23" y="-167"/>
      <point x="-60" y="-187" type="curve"/>
      <point x="-51" y="-200" type="line"/>
      <point x="-30" y="-194"/>
      <point x="-12" y="-192"/>
      <point x="3" y="-192" type="curve" smooth="yes"/>
      <point x="25" y="-192"/>
      <point x="57" y="-196"/>
      <point x="79" y="-196" type="curve" smooth="yes"/>
      <point x="119" y="-196"/>
      <point x="140" y="-183"/>
      <point x="161" y="-163" type="curve" smooth="yes"/>
      <point x="181" y="-144"/>
      <point x="201" y="-117"/>
      <point x="218" y="-78" type="curve" smooth="yes"/>
      <point x="235" y="-39"/>
      <point x="242" y="-4"/>
      <point x="245" y="35" type="curve" smooth="yes"/>
      <point x="248" y="71"/>
      <point x="246" y="101"/>
      <point x="245" y="113" type="curve"/>
      <point x="260" y="95"/>
      <point x="286" y="89"/>
      <point x="314" y="89" type="curve" smooth="yes"/>
      <point x="362" y="89"/>
      <point x="407" y="104"/>
      <point x="428" y="160" type="curve"/>
      <point x="422" y="122"/>
      <point x="425" y="84"/>
      <point x="442" y="54" type="curve" smooth="yes"/>
      <point x="461" y="22"/>
      <point x="496" y="0"/>
      <point x="554" y="0" type="curve" smooth="yes"/>
      <point x="593" y="0" type="line"/>
      <point x="593" y="98" type="line"/>
    </contour>
    <contour>
      <point x="327" y="0" type="move" name="caret_1"/>
    </contour>
    <contour>
      <point x="349" y="-22" type="move" name="bottom_1"/>
    </contour>
    <contour>
      <point x="320" y="273" type="move" name="top_1"/>
    </contour>
    <contour>
      <point x="103" y="273" type="move" name="top_2"/>
    </contour>
    <contour>
      <point x="41" y="-223" type="move" name="bottom_2"/>
    </contour>
  </outline>
</glyph>
<glyph name="dotlessfeh_alefMaksura-ar.fina" format="1">
  <advance width="814"/>
  <outline>
    <contour>
      <point x="655" y="98" type="line"/>
      <point x="689" y="114"/>
      <point x="704" y="155"/>
      <point x="704" y="195" type="curve"/>
      <point x="703" y="245"/>
      <point x="676" y="295"/>
      <point x="630" y="295" type="curve" smooth="yes"/>
      <point x="616" y="295"/>
      <point x="597" y="289"/>
      <point x="577" y="274" type="curve" smooth="yes"/>
      <point x="549" y="252"/>
      <point x="519" y="212"/>
      <point x="515" y="173" type="curve" smooth="yes"/>
      <point x="511" y="142"/>
      <point x="516" y="113"/>
      <point x="529" y="87" type="curve"/>
      <point x="517" y="81"/>
      <point x="504" y="74"/>
      <point x="492" y="67" type="curve" smooth="yes"/>
      <point x="474" y="57"/>
      <point x="458" y="47"/>
      <point x="450" y="41" type="curve" smooth="yes"/>
      <point x="444" y="36"/>
      <point x="426" y="9"/>
      <point x="421" y="-35" type="curve"/>
      <point x="438" y="-38"/>
      <point x="461" y="-44"/>
      <point x="484" y="-52" type="curve" smooth="yes"/>
      <point x="521" y="-66"/>
      <point x="540" y="-83"/>
      <point x="540" y="-104" type="curve" smooth="yes"/>
      <point x="540" y="-128"/>
      <point x="495" y="-152"/>
      <point x="464" y="-165" type="curve"/>
      <point x="432" y="-180"/>
      <point x="367" y="-201"/>
      <point x="292" y="-201" type="curve" smooth="yes"/>
      <point x="217" y="-201"/>
      <point x="163" y="-185"/>
      <point x="132" y="-147" type="curve" smooth="yes"/>
      <point x="105" y="-114"/>
      <point x="104" y="-65"/>
      <point x="119" y="-4" type="curve"/>
      <point x="100" y="3" type="line"/>
      <point x="85" y="-31"/>
      <point x="77" y="-62"/>
      <point x="71" y="-104" type="curve" smooth="yes"/>
      <point x="66" y="-142"/>
      <point x="71" y="-180"/>
      <point x="83" y="-208" type="curve" smooth="yes"/>
      <point x="97" y="-243"/>
      <point x="123" y="-270"/>
      <point x="159" y="-288" type="curve" smooth="yes"/>
      <point x="192" y="-305"/>
      <point x="234" y="-314"/>
      <point x="283" y="-314" type="curve" smooth="yes"/>
      <point x="342" y="-314"/>
      <point x="404" y="-299"/>
      <point x="457" y="-271" type="curve" smooth="yes"/>
      <point x="508" y="-244"/>
      <point x="547" y="-208"/>
      <point x="567" y="-170" type="curve" smooth="yes"/>
      <point x="581" y="-143"/>
      <point x="589" y="-116"/>
      <point x="589" y="-92" type="curve" smooth="yes"/>
      <point x="589" y="-28"/>
      <point x="531" y="-8"/>
      <point x="491" y="3" type="curve"/>
      <point x="512" y="18"/>
      <point x="536" y="33"/>
      <point x="560" y="47" type="curve"/>
      <point x="591" y="18"/>
      <point x="639" y="0"/>
      <point x="698" y="0" type="curve" smooth="yes"/>
      <point x="814" y="0" type="line"/>
      <point x="814" y="98" type="line"/>
    </contour>
    <contour>
      <point x="671" y="155"/>
      <point x="653" y="144"/>
      <point x="634" y="137" type="curve" smooth="yes"/>
      <point x="621" y="132"/>
      <point x="607" y="129"/>
      <point x="597" y="127" type="curve" smooth="yes"/>
      <point x="571" y="123"/>
      <point x="557" y="136"/>
      <point x="550" y="150" type="curve" smooth="yes"/>
      <point x="543" y="164"/>
      <point x="543" y="179"/>
      <point x="543" y="179" type="curve" smooth="yes"/>
      <point x="543" y="179"/>
      <point x="553" y="194"/>
      <point x="567" y="207" type="curve" smooth="yes"/>
      <point x="578" y="217"/>
      <point x="592" y="226"/>
      <point x="607" y="224" type="curve" smooth="yes"/>
      <point x="620" y="222"/>
      <point x="635" y="214"/>
      <point x="646" y="203" type="curve" smooth="yes"/>
      <point x="661" y="190"/>
      <point x="671" y="175"/>
      <point x="671" y="166" type="curve" smooth="yes"/>
    </contour>
    <contour>
      <point x="399" y="0" type="move" name="caret_1"/>
    </contour>
    <contour>
      <point x="622" y="-223" type="move" name="bottom_1"/>
    </contour>
    <contour>
      <point x="582" y="331" type="move" name="top_1"/>
    </contour>
    <contour>
      <point x="253" y="-17" type="move" name="top_2"/>
    </contour>
    <contour>
      <point x="293" y="-344" type="move" name="bottom_2"/>
    </contour>
  </outline>
</glyph>
<glyph name="extender" format="1">
  <advance width="58"/>
  <outline>
    <contour>
      <point x="-22" y="98" type="line" smooth="yes"/>
      <point x="-43" y="98"/>
      <point x="-70" y="80"/>
      <point x="-70" y="49" type="curve" smooth="yes"/>
      <point x="-70" y="21"/>
      <point x="-49" y="0"/>
      <point x="-22" y="0" type="curve" smooth="yes"/>
      <point x="58" y="0" type="line"/>
      <point x="58" y="98" type="line"/>
    </contour>
    <contour>
      <point x="42" y="128" type="move" name="top"/>
    </contour>
    <contour>
      <point x="42" y="-25" type="move" name="bottom"/>
    </contour>
  </outline>
</glyph>
<glyph name="threedotsupcenterar" format="1">
  <advance width="0"/>
  <outline>
    <contour>
      <point x="29" y="282"/>
      <point x="13" y="266"/>
      <point x="-1" y="252" type="curve"/>
      <point x="-14" y="267"/>
      <point x="-31" y="284"/>
      <point x="-47" y="295" type="curve"/>
      <point x="-61" y="280"/>
      <point x="-83" y="258"/>
      <point x="-99" y="242" type="curve"/>
      <point x="-79" y="226"/>
      <point x="-62" y="210"/>
      <point x="-43" y="188" type="curve"/>
      <point x="-24" y="205"/>
      <point x="-10" y="219"/>
      <point x="1" y="232" type="curve"/>
      <point x="16" y="219"/>
      <point x="30" y="205"/>
      <point x="44" y="188" type="curve"/>
      <point x="68" y="210"/>
      <point x="82" y="224"/>
      <point x="96" y="240" type="curve"/>
      <point x="84" y="258"/>
      <point x="61" y="281"/>
      <point x="40" y="295" type="curve"/>
    </contour>
    <contour>
      <point x="24" y="316"/>
      <point x="38" y="331"/>
      <point x="52" y="347" type="curve"/>
      <point x="40" y="365"/>
      <point x="17" y="388"/>
      <point x="-3" y="402" type="curve"/>
      <point x="-17" y="386"/>
      <point x="-39" y="364"/>
      <point x="-55" y="349" type="curve"/>
      <point x="-35" y="333"/>
      <point x="-18" y="316"/>
      <point x="0" y="295" type="curve"/>
    </contour>
    <contour>
      <point x="-10" y="300" type="move" name="_center"/>
    </contour>
  </outline>
</glyph>
<glyph name="twodotshorizontalcenterar" format="1">
  <advance width="0"/>
  <outline>
    <contour>
      <point x="29" y="282"/>
      <point x="13" y="266"/>
      <point x="-1" y="252" type="curve"/>
      <point x="-14" y="267"/>
      <point x="-31" y="285"/>
      <point x="-47" y="295" type="curve"/>
      <point x="-61" y="280"/>
      <point x="-83" y="258"/>
      <point x="-99" y="242" type="curve"/>
      <point x="-79" y="226"/>
      <point x="-62" y="210"/>
      <point x="-43" y="188" type="curve"/>
      <point x="-24" y="205"/>
      <point x="-10" y="219"/>
      <point x="1" y="232" type="curve"/>
      <point x="16" y="219"/>
      <point x="30" y="205"/>
      <point x="44" y="188" type="curve"/>
      <point x="68" y="210"/>
      <point x="82" y="224"/>
      <point x="96" y="240" type="curve"/>
      <point x="84" y="258"/>
      <point x="61" y="281"/>
      <point x="40" y="295" type="curve"/>
    </contour>
    <contour>
      <point x="-2" y="254" type="move" name="_center"/>
    </contour>
  </outline>
</glyph>
<glyph name="uni0615.alt" format="1">
  <advance width="0"/>
  <outline>
    <contour>
      <point x="-53" y="342" type="line" smooth="yes"/>
      <point x="-49" y="334"/>
      <point x="-33" y="298"/>
      <point x="-29" y="243" type="curve" smooth="yes"/>
      <point x="-40" y="223" type="line" smooth="yes"/>
      <point x="-69" y="223" type="line" smooth="yes"/>
      <point x="-59" y="191" type="line" smooth="yes"/>
      <point x="-17" y="191" type="line"/>
      <point x="4" y="191"/>
      <point x="27" y="200"/>
      <point x="46" y="213" type="curve"/>
      <point x="64" y="228"/>
      <point x="75" y="246"/>
      <point x="75" y="265" type="curve"/>
      <point x="75" y="280"/>
      <point x="54" y="294"/>
      <point x="39" y="294" type="curve"/>
      <point x="26" y="294"/>
      <point x="4" y="286"/>
      <point x="-19" y="253" type="curve" smooth="yes"/>
      <point x="-18" y="274"/>
      <point x="-19" y="281"/>
      <point x="-26" y="311" type="curve" smooth="yes"/>
      <point x="-27" y="330"/>
      <point x="-23" y="333"/>
      <point x="-16" y="340" type="curve" smooth="yes"/>
      <point x="-25" y="349"/>
      <point x="-32" y="358"/>
      <point x="-37" y="366" type="curve" smooth="yes"/>
    </contour>
    <contour>
      <point x="49" y="233"/>
      <point x="28" y="223"/>
      <point x="4" y="223" type="curve"/>
      <point x="-22" y="223" type="line" smooth="yes"/>
      <point x="-12" y="245"/>
      <point x="2" y="268"/>
      <point x="25" y="269" type="curve" smooth="yes"/>
      <point x="46" y="269"/>
      <point x="54" y="256"/>
      <point x="59" y="246" type="curve" smooth="yes"/>
    </contour>
    <contour>
      <point x="3" y="279" type="move" name="_center"/>
    </contour>
  </outline>
</glyph>
<glyph name="uni062D06450649" format="1">
  <advance width="1122"/>
  <outline>
    <contour>
      <point x="943" y="291"/>
      <point x="889" y="318"/>
      <point x="845" y="341" type="curve" smooth="yes"/>
      <point x="821" y="353"/>
      <point x="799" y="364"/>
      <point x="774" y="369" type="curve" smooth="yes"/>
      <point x="745" y="375"/>
      <point x="720" y="372"/>
      <point x="698" y="360" type="curve" smooth="yes"/>
      <point x="675" y="348"/>
      <point x="655" y="326"/>
      <point x="637" y="295" type="curve"/>
      <point x="648" y="278" type="line"/>
      <point x="659" y="288"/>
      <point x="677" y="310"/>
      <point x="721" y="306" type="curve" smooth="yes"/>
      <point x="751" y="303"/>
      <point x="780" y="286"/>
      <point x="816" y="267" type="curve"/>
      <point x="766" y="265"/>
      <point x="722" y="255"/>
      <point x="681" y="232" type="curve" smooth="yes"/>
      <point x="646" y="212"/>
      <point x="616" y="184"/>
      <point x="582" y="140" type="curve" smooth="yes"/>
      <point x="558" y="111"/>
      <point x="532" y="86"/>
      <point x="501" y="67" type="curve" smooth="yes"/>
      <point x="470" y="48"/>
      <point x="433" y="34"/>
      <point x="389" y="28" type="curve"/>
      <point x="385" y="13"/>
      <point x="382" y="-7"/>
      <point x="379" y="-32" type="curve"/>
      <point x="399" y="-34"/>
      <point x="429" y="-39"/>
      <point x="463" y="-48" type="curve" smooth="yes"/>
      <point x="509" y="-60"/>
      <point x="533" y="-77"/>
      <point x="533" y="-95" type="curve" smooth="yes"/>
      <point x="533" y="-121"/>
      <point x="494" y="-147"/>
      <point x="464" y="-160" type="curve" smooth="yes"/>
      <point x="432" y="-174"/>
      <point x="373" y="-196"/>
      <point x="290" y="-196" type="curve" smooth="yes"/>
      <point x="212" y="-196"/>
      <point x="160" y="-177"/>
      <point x="132" y="-142" type="curve" smooth="yes"/>
      <point x="105" y="-109"/>
      <point x="109" y="-57"/>
      <point x="119" y="1" type="curve"/>
      <point x="100" y="8" type="line"/>
      <point x="84" y="-33"/>
      <point x="74" y="-81"/>
      <point x="71" y="-115" type="curve" smooth="yes"/>
      <point x="68" y="-149"/>
      <point x="72" y="-177"/>
      <point x="83" y="-203" type="curve" smooth="yes"/>
      <point x="98" y="-239"/>
      <point x="124" y="-265"/>
      <point x="160" y="-283" type="curve" smooth="yes"/>
      <point x="196" y="-301"/>
      <point x="237" y="-309"/>
      <point x="282" y="-309" type="curve" smooth="yes"/>
      <point x="343" y="-309"/>
      <point x="404" y="-294"/>
      <point x="457" y="-266" type="curve" smooth="yes"/>
      <point x="489" y="-249"/>
      <point x="527" y="-221"/>
      <point x="550" y="-194" type="curve" smooth="yes"/>
      <point x="573" y="-167"/>
      <point x="590" y="-132"/>
      <point x="590" y="-96" type="curve" smooth="yes"/>
      <point x="590" y="-41"/>
      <point x="551" y="-12"/>
      <point x="506" y="-1" type="curve"/>
      <point x="529" y="2"/>
      <point x="570" y="28"/>
      <point x="580" y="48" type="curve"/>
      <point x="616" y="-2"/>
      <point x="719" y="-14"/>
      <point x="734" y="-8" type="curve"/>
      <point x="751" y="4"/>
      <point x="778" y="45"/>
      <point x="777" y="83" type="curve"/>
      <point x="777" y="124"/>
      <point x="760" y="165"/>
      <point x="723" y="183" type="curve"/>
      <point x="759" y="204"/>
      <point x="805" y="214"/>
      <point x="853" y="217" type="curve" smooth="yes"/>
      <point x="905" y="219"/>
      <point x="958" y="213"/>
      <point x="1001" y="201" type="curve"/>
      <point x="1026" y="225"/>
      <point x="1036" y="249"/>
      <point x="1052" y="274" type="curve"/>
    </contour>
    <contour>
      <point x="676" y="71"/>
      <point x="655" y="81"/>
      <point x="619" y="102" type="curve"/>
      <point x="626" y="118"/>
      <point x="645" y="142"/>
      <point x="672" y="142" type="curve" smooth="yes"/>
      <point x="706" y="142"/>
      <point x="734" y="106"/>
      <point x="723" y="60" type="curve"/>
    </contour>
    <contour>
      <point x="908" y="152" type="move" name="bottom_1"/>
    </contour>
    <contour>
      <point x="486" y="188" type="move" name="top_2"/>
    </contour>
    <contour>
      <point x="741" y="0" type="move" name="caret_2"/>
    </contour>
    <contour>
      <point x="371" y="0" type="move" name="caret_1"/>
    </contour>
    <contour>
      <point x="302" y="-339" type="move" name="bottom_3"/>
    </contour>
    <contour>
      <point x="745" y="405" type="move" name="top_1"/>
    </contour>
    <contour>
      <point x="687" y="-143" type="move" name="bottom_2"/>
    </contour>
    <contour>
      <point x="237" y="-19" type="move" name="top_3"/>
    </contour>
  </outline>
</glyph>
<glyph name="uni0662.above" format="1">
  <advance width="0"/>
  <outline>
    <contour>
      <point x="58" y="797" type="line"/>
      <point x="53" y="773"/>
      <point x="32" y="764"/>
      <point x="6" y="764" type="curve" smooth="yes"/>
      <point x="-8" y="764"/>
      <point x="-19" y="768"/>
      <point x="-29" y="775" type="curve" smooth="yes"/>
      <point x="-37" y="781"/>
      <point x="-43" y="790"/>
      <point x="-49" y="801" type="curve"/>
      <point x="-57" y="791"/>
      <point x="-64" y="780"/>
      <point x="-70" y="768" type="curve"/>
      <point x="-56" y="745"/>
      <point x="-45" y="716"/>
      <point x="-38" y="683" type="curve" smooth="yes"/>
      <point x="-31" y="646"/>
      <point x="-28" y="610"/>
      <point x="-31" y="568" type="curve"/>
      <point x="-19" y="568" type="line"/>
      <point x="-13" y="599"/>
      <point x="-8" y="627"/>
      <point x="-8" y="656" type="curve" smooth="yes"/>
      <point x="-7" y="676"/>
      <point x="-10" y="706"/>
      <point x="-15" y="724" type="curve"/>
      <point x="2" y="722"/>
      <point x="19" y="721"/>
      <point x="37" y="734" type="curve" smooth="yes"/>
      <point x="53" y="745"/>
      <point x="66" y="765"/>
      <point x="67" y="803" type="curve"/>
    </contour>
    <contour>
      <point x="-23" y="800" type="move" name="top"/>
    </contour>
    <contour>
      <point x="-13" y="550" type="move" name="_top"/>
    </contour>
  </outline>
</glyph>
<glyph name="uni0663.above" format="1">
  <advance width="0"/>
  <outline>
    <contour>
      <point x="71" y="794" type="line"/>
      <point x="71" y="787"/>
      <point x="71" y="760"/>
      <point x="46" y="760" type="curve" smooth="yes"/>
      <point x="15" y="760"/>
      <point x="18" y="791"/>
      <point x="17" y="799" type="curve"/>
      <point x="8" y="794" type="line"/>
      <point x="8" y="781"/>
      <point x="8" y="763"/>
      <point x="-16" y="763" type="curve" smooth="yes"/>
      <point x="-48" y="763"/>
      <point x="-62" y="791"/>
      <point x="-69" y="801" type="curve"/>
      <point x="-77" y="791"/>
      <point x="-84" y="779"/>
      <point x="-90" y="768" type="curve"/>
      <point x="-76" y="745"/>
      <point x="-65" y="715"/>
      <point x="-58" y="683" type="curve" smooth="yes"/>
      <point x="-51" y="646"/>
      <point x="-48" y="610"/>
      <point x="-51" y="568" type="curve"/>
      <point x="-39" y="568" type="line"/>
      <point x="-32" y="600"/>
      <point x="-27" y="631"/>
      <point x="-27" y="661" type="curve" smooth="yes"/>
      <point x="-27" y="679"/>
      <point x="-29" y="701"/>
      <point x="-34" y="722" type="curve"/>
      <point x="-8" y="720"/>
      <point x="0" y="724"/>
      <point x="9" y="740" type="curve"/>
      <point x="17" y="733"/>
      <point x="24" y="729"/>
      <point x="39" y="729" type="curve" smooth="yes"/>
      <point x="56" y="729"/>
      <point x="66" y="736"/>
      <point x="72" y="745" type="curve" smooth="yes"/>
      <point x="85" y="763"/>
      <point x="82" y="791"/>
      <point x="80" y="799" type="curve"/>
    </contour>
    <contour>
      <point x="-26" y="800" type="move" name="top"/>
    </contour>
    <contour>
      <point x="-32" y="558" type="move" name="_top"/>
    </contour>
  </outline>
</glyph>
<glyph name="uni0664.above" format="1">
  <advance width="0"/>
  <outline>
    <contour>
      <point x="76" y="781"/>
      <point x="78" y="794"/>
      <point x="79" y="803" type="curve"/>
      <point x="66" y="802"/>
      <point x="39" y="798"/>
      <point x="30" y="764" type="curve"/>
      <point x="28" y="771"/>
      <point x="18" y="803"/>
      <point x="-17" y="803" type="curve" smooth="yes"/>
      <point x="-42" y="803"/>
      <point x="-63" y="782"/>
      <point x="-72" y="754" type="curve" smooth="yes"/>
      <point x="-80" y="732"/>
      <point x="-80" y="705"/>
      <point x="-68" y="682" type="curve" smooth="yes"/>
      <point x="-58" y="660"/>
      <point x="-30" y="623"/>
      <point x="-32" y="570" type="curve"/>
      <point x="-16" y="570" type="line"/>
      <point x="-4" y="609"/>
      <point x="-22" y="652"/>
      <point x="-31" y="672" type="curve" smooth="yes"/>
      <point x="-47" y="711"/>
      <point x="-56" y="736"/>
      <point x="-44" y="757" type="curve" smooth="yes"/>
      <point x="-39" y="767"/>
      <point x="-28" y="772"/>
      <point x="-16" y="772" type="curve" smooth="yes"/>
      <point x="-8" y="772"/>
      <point x="0" y="770"/>
      <point x="6" y="764" type="curve" smooth="yes"/>
      <point x="18" y="754"/>
      <point x="23" y="740"/>
      <point x="24" y="728" type="curve"/>
      <point x="35" y="732" type="line"/>
      <point x="36" y="742"/>
      <point x="38" y="770"/>
      <point x="74" y="772" type="curve"/>
    </contour>
    <contour>
      <point x="2" y="800" type="move" name="top"/>
    </contour>
    <contour>
      <point x="2" y="548" type="move" name="_top"/>
    </contour>
  </outline>
</glyph>
<glyph name="uni066E.fina" format="1">
  <advance width="893"/>
  <outline>
    <contour>
      <point x="724" y="158"/>
      <point x="684" y="117"/>
      <point x="554" y="99" type="curve" smooth="yes"/>
      <point x="493" y="91"/>
      <point x="450" y="91"/>
      <point x="448" y="91" type="curve" smooth="yes"/>
      <point x="322" y="91"/>
      <point x="248" y="92"/>
      <point x="192" y="110" type="curve" smooth="yes"/>
      <point x="129" y="129"/>
      <point x="104" y="162"/>
      <point x="93" y="220" type="curve" smooth="yes"/>
      <point x="74" y="228" type="line"/>
      <point x="68" y="191"/>
      <point x="65" y="133"/>
      <point x="91" y="87" type="curve" smooth="yes"/>
      <point x="122" y="32"/>
      <point x="185" y="11"/>
      <point x="233" y="3" type="curve" smooth="yes"/>
      <point x="269" y="-3"/>
      <point x="327" y="-6"/>
      <point x="380" y="-6" type="curve" smooth="yes"/>
      <point x="490" y="-6"/>
      <point x="598" y="5"/>
      <point x="670" y="52" type="curve" smooth="yes"/>
      <point x="689" y="64"/>
      <point x="706" y="80"/>
      <point x="719" y="98" type="curve"/>
      <point x="722" y="78"/>
      <point x="729" y="58"/>
      <point x="743" y="41" type="curve" smooth="yes"/>
      <point x="762" y="17"/>
      <point x="795" y="0"/>
      <point x="848" y="0" type="curve" smooth="yes"/>
      <point x="893" y="0" type="line"/>
      <point x="893" y="98" type="line"/>
      <point x="851" y="98" type="line" smooth="yes"/>
      <point x="769" y="98"/>
      <point x="755" y="144"/>
      <point x="753" y="153" type="curve" smooth="yes"/>
      <point x="753" y="153"/>
      <point x="770" y="175"/>
      <point x="777" y="184" type="curve"/>
      <point x="754" y="189" type="line"/>
    </contour>
    <contour>
      <point x="418" y="198" type="move" name="top"/>
    </contour>
    <contour>
      <point x="418" y="-35" type="move" name="bottom"/>
    </contour>
  </outline>
</glyph>
<glyph name="uni066E062D" format="1">
  <advance width="579"/>
  <outline>
    <contour>
      <point x="428" y="244"/>
      <point x="400" y="251"/>
      <point x="347" y="261" type="curve" smooth="yes"/>
      <point x="260" y="277"/>
      <point x="218" y="276"/>
      <point x="203" y="278" type="curve"/>
      <point x="243" y="290"/>
      <point x="262" y="299"/>
      <point x="277" y="316" type="curve" smooth="yes"/>
      <point x="288" y="327"/>
      <point x="297" y="340"/>
      <point x="309" y="360" type="curve" smooth="yes"/>
      <point x="324" y="384"/>
      <point x="340" y="403"/>
      <point x="364" y="403" type="curve" smooth="yes"/>
      <point x="405" y="403"/>
      <point x="397" y="356"/>
      <point x="393" y="342" type="curve"/>
      <point x="408" y="342" type="line"/>
      <point x="418" y="358"/>
      <point x="429" y="391"/>
      <point x="429" y="418" type="curve" smooth="yes"/>
      <point x="429" y="448"/>
      <point x="415" y="488"/>
      <point x="379" y="488" type="curve" smooth="yes"/>
      <point x="349" y="488"/>
      <point x="325" y="467"/>
      <point x="304" y="441" type="curve" smooth="yes"/>
      <point x="284" y="415"/>
      <point x="268" y="394"/>
      <point x="252" y="375" type="curve" smooth="yes"/>
      <point x="230" y="350"/>
      <point x="206" y="329"/>
      <point x="166" y="307" type="curve" smooth="yes"/>
      <point x="142" y="294"/>
      <point x="126" y="284"/>
      <point x="110" y="257" type="curve"/>
      <point x="106" y="249"/>
      <point x="100" y="235"/>
      <point x="94" y="212" type="curve"/>
      <point x="105" y="213"/>
      <point x="150" y="217"/>
      <point x="156" y="217" type="curve" smooth="yes"/>
      <point x="160" y="217"/>
      <point x="165" y="217"/>
      <point x="170" y="217" type="curve" smooth="yes"/>
      <point x="233" y="217"/>
      <point x="312" y="202"/>
      <point x="312" y="202" type="curve"/>
      <point x="238" y="183"/>
      <point x="195" y="153"/>
      <point x="158" y="116" type="curve" smooth="yes"/>
      <point x="87" y="45"/>
      <point x="74" y="-39"/>
      <point x="71" y="-69" type="curve" smooth="yes"/>
      <point x="64" y="-139"/>
      <point x="88" y="-199"/>
      <point x="125" y="-240" type="curve" smooth="yes"/>
      <point x="165" y="-284"/>
      <point x="221" y="-310"/>
      <point x="289" y="-310" type="curve" smooth="yes"/>
      <point x="335" y="-310"/>
      <point x="359" y="-298"/>
      <point x="384" y="-284" type="curve" smooth="yes"/>
      <point x="408" y="-271"/>
      <point x="434" y="-258"/>
      <point x="479" y="-256" type="curve"/>
      <point x="484" y="-241" type="line"/>
      <point x="448" y="-236"/>
      <point x="449" y="-237"/>
      <point x="402" y="-233" type="curve" smooth="yes"/>
      <point x="357" y="-229"/>
      <point x="338" y="-227"/>
      <point x="314" y="-223" type="curve" smooth="yes"/>
      <point x="254" y="-213"/>
      <point x="202" y="-192"/>
      <point x="168" y="-152" type="curve" smooth="yes"/>
      <point x="135" y="-113"/>
      <point x="125" y="-65"/>
      <point x="128" y="-33" type="curve" smooth="yes"/>
      <point x="133" y="19"/>
      <point x="174" y="96"/>
      <point x="253" y="139" type="curve" smooth="yes"/>
      <point x="295" y="162"/>
      <point x="349" y="179"/>
      <point x="413" y="179" type="curve" smooth="yes"/>
      <point x="429" y="179"/>
      <point x="446" y="179"/>
      <point x="463" y="177" type="curve"/>
      <point x="473" y="198"/>
      <point x="486" y="230"/>
      <point x="489" y="244" type="curve"/>
    </contour>
    <contour>
      <point x="275" y="17" type="move" name="caret_1"/>
    </contour>
    <contour>
      <point x="478" y="140" type="move" name="bottom_1"/>
    </contour>
    <contour>
      <point x="379" y="518" type="move" name="top_1"/>
    </contour>
    <contour>
      <point x="289" y="-340" type="move" name="bottom_2"/>
    </contour>
    <contour>
      <point x="276" y="15" type="move" name="center_2"/>
    </contour>
    <contour>
      <point x="158" y="391" type="move" name="top_2"/>
    </contour>
  </outline>
</glyph>
<glyph name="uni066E062D.init" format="1">
  <advance width="576"/>
  <outline>
    <contour>
      <point x="500" y="230"/>
      <point x="486" y="229"/>
      <point x="466" y="229" type="curve" smooth="yes"/>
      <point x="394" y="229"/>
      <point x="352" y="242"/>
      <point x="303" y="253" type="curve" smooth="yes"/>
      <point x="263" y="262"/>
      <point x="212" y="271"/>
      <point x="161" y="271" type="curve"/>
      <point x="161" y="271"/>
      <point x="268" y="281"/>
      <point x="317" y="356" type="curve" smooth="yes"/>
      <point x="327" y="371"/>
      <point x="342" y="403"/>
      <point x="371" y="403" type="curve" smooth="yes"/>
      <point x="400" y="403"/>
      <point x="411" y="382"/>
      <point x="400" y="342" type="curve"/>
      <point x="415" y="342" type="line"/>
      <point x="427" y="360"/>
      <point x="433" y="383"/>
      <point x="435" y="397" type="curve" smooth="yes"/>
      <point x="438" y="419"/>
      <point x="440" y="488"/>
      <point x="386" y="488" type="curve" smooth="yes"/>
      <point x="349" y="488"/>
      <point x="326" y="459"/>
      <point x="290" y="422" type="curve" smooth="yes"/>
      <point x="232" y="361"/>
      <point x="204" y="334"/>
      <point x="133" y="306" type="curve" smooth="yes"/>
      <point x="99" y="293"/>
      <point x="76" y="284"/>
      <point x="59" y="257" type="curve" smooth="yes"/>
      <point x="51" y="244"/>
      <point x="40" y="221"/>
      <point x="39" y="200" type="curve"/>
      <point x="54" y="191" type="line"/>
      <point x="63" y="203"/>
      <point x="73" y="216"/>
      <point x="114" y="216" type="curve" smooth="yes"/>
      <point x="157" y="216"/>
      <point x="257" y="202"/>
      <point x="305" y="158" type="curve" smooth="yes"/>
      <point x="308" y="156"/>
      <point x="246" y="135"/>
      <point x="228" y="129" type="curve" smooth="yes"/>
      <point x="186" y="115"/>
      <point x="123" y="98"/>
      <point x="26" y="98" type="curve" smooth="yes"/>
      <point x="-21" y="98" type="line" smooth="yes"/>
      <point x="-48" y="98"/>
      <point x="-70" y="76"/>
      <point x="-70" y="48" type="curve" smooth="yes"/>
      <point x="-70" y="21"/>
      <point x="-49" y="0"/>
      <point x="-21" y="0" type="curve" smooth="yes"/>
      <point x="25" y="0" type="line" smooth="yes"/>
      <point x="123" y="0"/>
      <point x="181" y="33"/>
      <point x="243" y="68" type="curve" smooth="yes"/>
      <point x="318" y="110"/>
      <point x="379" y="138"/>
      <point x="472" y="139" type="curve"/>
      <point x="492" y="172"/>
      <point x="504" y="197"/>
      <point x="516" y="231" type="curve"/>
    </contour>
    <contour>
      <point x="288" y="0" type="move" name="caret_1"/>
    </contour>
    <contour>
      <point x="377" y="60" type="move" name="bottom_1"/>
    </contour>
    <contour>
      <point x="386" y="518" type="move" name="top_1"/>
    </contour>
    <contour>
      <point x="144" y="391" type="move" name="top_2"/>
    </contour>
    <contour>
      <point x="122" y="-25" type="move" name="bottom_2"/>
    </contour>
  </outline>
</glyph>
<glyph name="uni066E0649" format="1">
  <advance width="650"/>
  <outline>
    <contour>
      <point x="537" y="193"/>
      <point x="509" y="241"/>
      <point x="451" y="301" type="curve"/>
      <point x="439" y="281"/>
      <point x="426" y="246"/>
      <point x="417" y="220" type="curve"/>
      <point x="452" y="195"/>
      <point x="478" y="174"/>
      <point x="496" y="136" type="curve"/>
      <point x="482" y="107"/>
      <point x="461" y="88"/>
      <point x="421" y="79" type="curve" smooth="yes"/>
      <point x="407" y="76"/>
      <point x="395" y="76"/>
      <point x="388" y="75" type="curve"/>
      <point x="385" y="61"/>
      <point x="383" y="9"/>
      <point x="381" y="-9" type="curve"/>
      <point x="401" y="-11"/>
      <point x="429" y="-14"/>
      <point x="463" y="-23" type="curve" smooth="yes"/>
      <point x="509" y="-35"/>
      <point x="533" y="-49"/>
      <point x="533" y="-67" type="curve" smooth="yes"/>
      <point x="533" y="-93"/>
      <point x="494" y="-119"/>
      <point x="464" y="-132" type="curve" smooth="yes"/>
      <point x="432" y="-146"/>
      <point x="373" y="-168"/>
      <point x="289" y="-168" type="curve" smooth="yes"/>
      <point x="218" y="-168"/>
      <point x="163" y="-152"/>
      <point x="132" y="-114" type="curve" smooth="yes"/>
      <point x="105" y="-81"/>
      <point x="104" y="-26"/>
      <point x="119" y="29" type="curve"/>
      <point x="100" y="36" type="line"/>
      <point x="85" y="6"/>
      <point x="75" y="-32"/>
      <point x="71" y="-70" type="curve" smooth="yes"/>
      <point x="68" y="-108"/>
      <point x="71" y="-145"/>
      <point x="83" y="-175" type="curve" smooth="yes"/>
      <point x="98" y="-211"/>
      <point x="124" y="-237"/>
      <point x="160" y="-255" type="curve" smooth="yes"/>
      <point x="196" y="-273"/>
      <point x="237" y="-281"/>
      <point x="282" y="-281" type="curve" smooth="yes"/>
      <point x="343" y="-281"/>
      <point x="404" y="-266"/>
      <point x="457" y="-238" type="curve" smooth="yes"/>
      <point x="489" y="-221"/>
      <point x="527" y="-193"/>
      <point x="550" y="-166" type="curve" smooth="yes"/>
      <point x="573" y="-139"/>
      <point x="590" y="-104"/>
      <point x="590" y="-68" type="curve" smooth="yes"/>
      <point x="590" y="-7"/>
      <point x="543" y="21"/>
      <point x="492" y="30" type="curve"/>
      <point x="514" y="50"/>
      <point x="540" y="77"/>
      <point x="540" y="141" type="curve"/>
    </contour>
    <contour>
      <point x="325" y="0" type="move" name="caret_1"/>
    </contour>
    <contour>
      <point x="497" y="-312" type="move" name="bottom_1"/>
    </contour>
    <contour>
      <point x="335" y="272" type="move" name="top_1"/>
    </contour>
    <contour>
      <point x="218" y="36" type="move" name="top_2"/>
    </contour>
    <contour>
      <point x="255" y="-321" type="move" name="bottom_2"/>
    </contour>
  </outline>
</glyph>
